<mxfile host="app.diagrams.net" agent="Mozilla/5.0 (Windows NT 10.0; Win64; x64) AppleWebKit/537.36 (KHTML, like Gecko) Chrome/134.0.0.0 Safari/537.36 Edg/134.0.0.0" version="26.1.0">
  <diagram name="第 1 页" id="51p_PJDg5Sjwjm2zwcA7">
    <mxGraphModel dx="1042" dy="661" grid="1" gridSize="10" guides="1" tooltips="1" connect="1" arrows="1" fold="1" page="1" pageScale="1" pageWidth="827" pageHeight="1169" math="0" shadow="0">
      <root>
        <mxCell id="0" />
        <mxCell id="1" parent="0" />
        <mxCell id="uYhiXO7AZnuXkb5iHW7L-1" value="" style="shape=image;verticalLabelPosition=bottom;labelBackgroundColor=default;verticalAlign=top;aspect=fixed;imageAspect=0;editableCssRules=.*;image=data:image/svg+xml,PHN2ZyB4bWxucz0iaHR0cDovL3d3dy53My5vcmcvMjAwMC9zdmciIHZpZXdCb3g9IjAgMC4wODE1ODQ2OTIwMDEzNDI3NyA1MzMzLjIwMDE5NTMxMjUgMzI4MS45NzE0MzU1NDY4NzUiIHdpZHRoPSI1MzMzLjIwMDE5NTMxMjUiIGhlaWdodD0iMzI4MS45NzE0MzU1NDY4NzUiPjxwYXRoIHRyYW5zZm9ybT0ibWF0cml4KC4xMzMzMyAwIDAgLS4xMzMzMyAwIDMyODIuMDUzKSIgc3R5bGU9ImZpbGw6I2ZmZjtmaWxsLW9wYWNpdHk6MTtmaWxsLXJ1bGU6bm9uemVybztzdHJva2U6bm9uZSIgZD0iTTAgMGg0MDAwMHYyNDYxNS40SDBaIi8+PHBhdGggdHJhbnNmb3JtPSJtYXRyaXgoLjEzMzMzIDAgMCAtLjEzMzMzIDAgMzI4Mi4wNTMpIiBzdHlsZT0iZmlsbDojZTFlMmUyO2ZpbGwtb3BhY2l0eToxO2ZpbGwtcnVsZTpub256ZXJvO3N0cm9rZTpub25lIiBkPSJNNDAwMDAgMEgwdjI4MTIuOWg0MDAwMFYwIi8+PHBhdGggdHJhbnNmb3JtPSJtYXRyaXgoLjEzMzMzIDAgMCAtLjEzMzMzIDAgMzI4Mi4wNTMpIiBzdHlsZT0iZmlsbDojYmJiYWI4O2ZpbGwtb3BhY2l0eToxO2ZpbGwtcnVsZTpub256ZXJvO3N0cm9rZTpub25lIiBkPSJNMTkyODEuNyA2MTIxLjhIMTg5MTN2MTQ3NC44aDM2OC43VjYxMjEuOCIvPjxwYXRoIHRyYW5zZm9ybT0ibWF0cml4KC4xMzMzMyAwIDAgLS4xMzMzMyAwIDMyODIuMDUzKSIgc3R5bGU9ImZpbGw6I2Q4ZDdkNTtmaWxsLW9wYWNpdHk6MTtmaWxsLXJ1bGU6bm9uemVybztzdHJva2U6bm9uZSIgZD0iTTIwNTkyLjQgNjY2OWgtMjk5MGMtMTIuNiAwLTIzIDEwLjMtMjMgMjN2MjAyMC42YzAgMTIuNiAxMC40IDIyLjkgMjMgMjIuOWgyOTkwYzEyLjYgMCAyMi45LTEwLjMgMjIuOS0yMi45VjY2OTJjMC0xMi43LTEwLjMtMjMtMjIuOS0yMyIvPjxwYXRoIHRyYW5zZm9ybT0ibWF0cml4KC4xMzMzMyAwIDAgLS4xMzMzMyAwIDMyODIuMDUzKSIgc3R5bGU9ImZpbGw6IzI1MWYyYTtmaWxsLW9wYWNpdHk6MTtmaWxsLXJ1bGU6bm9uemVybztzdHJva2U6bm9uZSIgZD0iTTIwNTgyLjYgNjc4Ny44aC0yOTcwLjR2MTkxOS4xaDI5NzAuNFY2Nzg3LjgiLz48cGF0aCB0cmFuc2Zvcm09Im1hdHJpeCguMTMzMzMgMCAwIC0uMTMzMzMgMCAzMjgyLjA1MykiIHN0eWxlPSJmaWxsOiNkOGQ3ZDU7ZmlsbC1vcGFjaXR5OjE7ZmlsbC1ydWxlOm5vbnplcm87c3Ryb2tlOm5vbmUiIGQ9Ik0xOTc4MSA2MDUwLjFoLTEzNjcuM3YyMS40YzAgMjcuOCAyMi41IDUwLjMgNTAuMiA1MC4zaDEyNjYuOWMyNy44IDAgNTAuMi0yMi41IDUwLjItNTAuM3YtMjEuNCIvPjxwYXRoIHRyYW5zZm9ybT0ibWF0cml4KC4xMzMzMyAwIDAgLS4xMzMzMyAwIDMyODIuMDUzKSIgc3R5bGU9ImZpbGw6I2Y1NzgyMTtmaWxsLW9wYWNpdHk6MTtmaWxsLXJ1bGU6bm9uemVybztzdHJva2U6bm9uZSIgZD0iTTE4Mjg4LjggODUxNS4yaC00NTQuOWMtMTcuMSAwLTMxLjEgMTMuOS0zMS4xIDMxIDAgMTcgMTQgMzEgMzEuMSAzMWg0NTQuOWMxNyAwIDMxLTE0IDMxLTMxIDAtMTcuMS0xNC0zMS0zMS0zMSIvPjxwYXRoIHRyYW5zZm9ybT0ibWF0cml4KC4xMzMzMyAwIDAgLS4xMzMzMyAwIDMyODIuMDUzKSIgc3R5bGU9ImZpbGw6I2ZiZjVjMjtmaWxsLW9wYWNpdHk6MTtmaWxsLXJ1bGU6bm9uemVybztzdHJva2U6bm9uZSIgZD0iTTE4Mjg4LjggODQwNy40aC00NTQuOWMtMTcuMSAwLTMxLjEgMTQtMzEuMSAzMSAwIDE3LjEgMTQgMzEuMSAzMS4xIDMxLjFoNDU0LjljMTcgMCAzMS0xNCAzMS0zMS4xIDAtMTctMTQtMzEtMzEtMzEiLz48cGF0aCB0cmFuc2Zvcm09Im1hdHJpeCguMTMzMzMgMCAwIC0uMTMzMzMgMCAzMjgyLjA1MykiIHN0eWxlPSJmaWxsOiMyNDNmNjI7ZmlsbC1vcGFjaXR5OjE7ZmlsbC1ydWxlOm5vbnplcm87c3Ryb2tlOm5vbmUiIGQ9Ik0xODA3MS43IDgyOTkuN2gtMjM3LjhjLTE3LjEgMC0zMS4xIDEzLjktMzEuMSAzMXMxNCAzMSAzMS4xIDMxaDIzNy44YzE3IDAgMzEtMTMuOSAzMS0zMXMtMTQtMzEtMzEtMzEiLz48cGF0aCB0cmFuc2Zvcm09Im1hdHJpeCguMTMzMzMgMCAwIC0uMTMzMzMgMCAzMjgyLjA1MykiIHN0eWxlPSJmaWxsOiNiYjI3MjM7ZmlsbC1vcGFjaXR5OjE7ZmlsbC1ydWxlOm5vbnplcm87c3Ryb2tlOm5vbmUiIGQ9Ik0xODY1Mi44IDgyOTkuN2gtNDY1LjZjLTE3LjEgMC0zMS4xIDEzLjktMzEuMSAzMXMxNCAzMSAzMS4xIDMxaDQ2NS42YzE3LjEgMCAzMS0xMy45IDMxLTMxcy0xMy45LTMxLTMxLTMxIi8+PHBhdGggdHJhbnNmb3JtPSJtYXRyaXgoLjEzMzMzIDAgMCAtLjEzMzMzIDAgMzI4Mi4wNTMpIiBzdHlsZT0iZmlsbDojMjQzZjYyO2ZpbGwtb3BhY2l0eToxO2ZpbGwtcnVsZTpub256ZXJvO3N0cm9rZTpub25lIiBkPSJNMTg4NjguMyA4NDA3LjRoLTQ1NC45Yy0xNy4xIDAtMzEgMTQtMzEgMzEgMCAxNy4xIDEzLjkgMzEuMSAzMSAzMS4xaDQ1NC45YzE3LjEgMCAzMS0xNCAzMS0zMS4xIDAtMTctMTMuOS0zMS0zMS0zMSIvPjxwYXRoIHRyYW5zZm9ybT0ibWF0cml4KC4xMzMzMyAwIDAgLS4xMzMzMyAwIDMyODIuMDUzKSIgc3R5bGU9ImZpbGw6I2ZiZjVjMjtmaWxsLW9wYWNpdHk6MTtmaWxsLXJ1bGU6bm9uemVybztzdHJva2U6bm9uZSIgZD0iTTE4NDk5LjYgNzE4NS4zaC00NTQuOWMtMTcuMSAwLTMxLjEgMTMuOS0zMS4xIDMxIDAgMTcgMTQgMzEgMzEuMSAzMWg0NTQuOWMxNyAwIDMxLTE0IDMxLTMxIDAtMTcuMS0xNC0zMS0zMS0zMSIvPjxwYXRoIHRyYW5zZm9ybT0ibWF0cml4KC4xMzMzMyAwIDAgLS4xMzMzMyAwIDMyODIuMDUzKSIgc3R5bGU9ImZpbGw6IzI0M2Y2MjtmaWxsLW9wYWNpdHk6MTtmaWxsLXJ1bGU6bm9uemVybztzdHJva2U6bm9uZSIgZD0iTTE4NDk5LjYgNzA3Ny41aC00NTQuOWMtMTcuMSAwLTMxLjEgMTQtMzEuMSAzMSAwIDE3LjEgMTQgMzEgMzEuMSAzMWg0NTQuOWMxNyAwIDMxLTEzLjkgMzEtMzEgMC0xNy0xNC0zMS0zMS0zMW0tMjE3LjEtMTA3LjdoLTIzNy44Yy0xNy4xIDAtMzEuMSAxMy45LTMxLjEgMzEgMCAxNyAxNCAzMSAzMS4xIDMxaDIzNy44YzE3IDAgMzEtMTQgMzEtMzEgMC0xNy4xLTE0LTMxLTMxLTMxIi8+PHBhdGggdHJhbnNmb3JtPSJtYXRyaXgoLjEzMzMzIDAgMCAtLjEzMzMzIDAgMzI4Mi4wNTMpIiBzdHlsZT0iZmlsbDojZmJmNWMyO2ZpbGwtb3BhY2l0eToxO2ZpbGwtcnVsZTpub256ZXJvO3N0cm9rZTpub25lIiBkPSJNMTg4NjMuNiA2OTY5LjhIMTgzOThjLTE3LjEgMC0zMSAxMy45LTMxIDMxIDAgMTcgMTMuOSAzMSAzMSAzMWg0NjUuNmMxNy4xIDAgMzEuMS0xNCAzMS4xLTMxIDAtMTcuMS0xNC0zMS0zMS4xLTMxIi8+PHBhdGggdHJhbnNmb3JtPSJtYXRyaXgoLjEzMzMzIDAgMCAtLjEzMzMzIDAgMzI4Mi4wNTMpIiBzdHlsZT0iZmlsbDojZjU3ODIxO2ZpbGwtb3BhY2l0eToxO2ZpbGwtcnVsZTpub256ZXJvO3N0cm9rZTpub25lIiBkPSJNMTkwNzkuMSA3MDc3LjVoLTQ1NC45Yy0xNy4xIDAtMzEgMTQtMzEgMzEgMCAxNy4xIDEzLjkgMzEgMzEgMzFoNDU0LjljMTcuMSAwIDMxLTEzLjkgMzEtMzEgMC0xNy0xMy45LTMxLTMxLTMxIi8+PHBhdGggdHJhbnNmb3JtPSJtYXRyaXgoLjEzMzMzIDAgMCAtLjEzMzMzIDAgMzI4Mi4wNTMpIiBzdHlsZT0iZmlsbDojZmJmNWMyO2ZpbGwtb3BhY2l0eToxO2ZpbGwtcnVsZTpub256ZXJvO3N0cm9rZTpub25lIiBkPSJNMTg0ODMgNzgxNS43aC00NTQuOWMtMTcgMC0zMSAxNC0zMSAzMSAwIDE3LjEgMTQgMzEgMzEgMzFoNDU0LjljMTcuMSAwIDMxLjEtMTMuOSAzMS4xLTMxIDAtMTctMTQtMzEtMzEuMS0zMSIvPjxwYXRoIHRyYW5zZm9ybT0ibWF0cml4KC4xMzMzMyAwIDAgLS4xMzMzMyAwIDMyODIuMDUzKSIgc3R5bGU9ImZpbGw6I2Y1NzgyMTtmaWxsLW9wYWNpdHk6MTtmaWxsLXJ1bGU6bm9uemVybztzdHJva2U6bm9uZSIgZD0iTTE4NDgzIDc3MDhoLTQ1NC45Yy0xNyAwLTMxIDEzLjktMzEgMzEgMCAxNyAxNCAzMSAzMSAzMWg0NTQuOWMxNy4xIDAgMzEuMS0xNCAzMS4xLTMxIDAtMTcuMS0xNC0zMS0zMS4xLTMxIi8+PHBhdGggdHJhbnNmb3JtPSJtYXRyaXgoLjEzMzMzIDAgMCAtLjEzMzMzIDAgMzI4Mi4wNTMpIiBzdHlsZT0iZmlsbDojZmJmNWMyO2ZpbGwtb3BhY2l0eToxO2ZpbGwtcnVsZTpub256ZXJvO3N0cm9rZTpub25lIiBkPSJNMTkwNjIuNiA3NzA4aC00NTQuOWMtMTcuMSAwLTMxLjEgMTMuOS0zMS4xIDMxIDAgMTcgMTQgMzEgMzEuMSAzMWg0NTQuOWMxNyAwIDMxLTE0IDMxLTMxIDAtMTcuMS0xNC0zMS0zMS0zMW0tNTc5LjYgNDQzLjVoLTQ1NC45Yy0xNyAwLTMxIDE0LTMxIDMxIDAgMTcuMSAxNCAzMSAzMSAzMWg0NTQuOWMxNy4xIDAgMzEuMS0xMy45IDMxLjEtMzEgMC0xNy0xNC0zMS0zMS4xLTMxIi8+PHBhdGggdHJhbnNmb3JtPSJtYXRyaXgoLjEzMzMzIDAgMCAtLjEzMzMzIDAgMzI4Mi4wNTMpIiBzdHlsZT0iZmlsbDojMjQzZjYyO2ZpbGwtb3BhY2l0eToxO2ZpbGwtcnVsZTpub256ZXJvO3N0cm9rZTpub25lIiBkPSJNMTkxMTMuMiA3OTM1aC03MjYuNGMtMTcuMSAwLTMxIDEzLjktMzEgMzFzMTMuOSAzMSAzMSAzMWg3MjYuNGMxNy4xIDAgMzEtMTMuOSAzMS0zMXMtMTMuOS0zMS0zMS0zMW0tODQ3LjMgMTA4LjhoLTIzNy44Yy0xNyAwLTMxIDEzLjktMzEgMzEgMCAxNyAxNCAzMSAzMSAzMWgyMzcuOGMxNy4xIDAgMzEtMTQgMzEtMzEgMC0xNy4xLTEzLjktMzEtMzEtMzEiLz48cGF0aCB0cmFuc2Zvcm09Im1hdHJpeCguMTMzMzMgMCAwIC0uMTMzMzMgMCAzMjgyLjA1MykiIHN0eWxlPSJmaWxsOiNiYjI3MjM7ZmlsbC1vcGFjaXR5OjE7ZmlsbC1ydWxlOm5vbnplcm87c3Ryb2tlOm5vbmUiIGQ9Ik0xODI2NS45IDc5MzVoLTIzNy44Yy0xNyAwLTMxIDEzLjktMzEgMzFzMTQgMzEgMzEgMzFoMjM3LjhjMTcuMSAwIDMxLTEzLjkgMzEtMzFzLTEzLjktMzEtMzEtMzEiLz48cGF0aCB0cmFuc2Zvcm09Im1hdHJpeCguMTMzMzMgMCAwIC0uMTMzMzMgMCAzMjgyLjA1MykiIHN0eWxlPSJmaWxsOiNmNTc4MjE7ZmlsbC1vcGFjaXR5OjE7ZmlsbC1ydWxlOm5vbnplcm87c3Ryb2tlOm5vbmUiIGQ9Ik0xODI3OS4xIDc0MjguOGgtNDU0LjljLTE3LjEgMC0zMSAxMy45LTMxIDMxczEzLjkgMzEgMzEgMzFoNDU0LjljMTcuMSAwIDMxLTEzLjkgMzEtMzFzLTEzLjktMzEtMzEtMzFtMjEwLjgtMTA3LjhIMTgwMzVjLTE3LjEgMC0zMSAxNC0zMSAzMS4xIDAgMTcgMTMuOSAzMSAzMSAzMWg0NTQuOWMxNy4xIDAgMzEuMS0xNCAzMS4xLTMxIDAtMTcuMS0xNC0zMS4xLTMxLjEtMzEuMSIvPjxwYXRoIHRyYW5zZm9ybT0ibWF0cml4KC4xMzMzMyAwIDAgLS4xMzMzMyAwIDMyODIuMDUzKSIgc3R5bGU9ImZpbGw6I2JiMjcyMztmaWxsLW9wYWNpdHk6MTtmaWxsLXJ1bGU6bm9uemVybztzdHJva2U6bm9uZSIgZD0iTTE5MDY5LjUgNzMyMWgtNDU1Yy0xNyAwLTMxIDE0LTMxIDMxLjEgMCAxNyAxNCAzMSAzMSAzMWg0NTVjMTcgMCAzMS0xNCAzMS0zMSAwLTE3LjEtMTQtMzEuMS0zMS0zMS4xbS0xNjAuMiAyMjcuMWgtNzI2LjRjLTE3LjEgMC0zMSAxMy45LTMxIDMxIDAgMTcgMTMuOSAzMSAzMSAzMWg3MjYuNGMxNyAwIDMxLTE0IDMxLTMxIDAtMTcuMS0xNC0zMS0zMS0zMSIvPjxwYXRoIHRyYW5zZm9ybT0ibWF0cml4KC4xMzMzMyAwIDAgLS4xMzMzMyAwIDMyODIuMDUzKSIgc3R5bGU9ImZpbGw6I2ZiZjVjMjtmaWxsLW9wYWNpdHk6MTtmaWxsLXJ1bGU6bm9uemVybztzdHJva2U6bm9uZSIgZD0iTTE4MDYyIDc1NDguMWgtMjM3LjhjLTE3LjEgMC0zMSAxMy45LTMxIDMxIDAgMTcgMTMuOSAzMSAzMSAzMWgyMzcuOGMxNy4xIDAgMzEtMTQgMzEtMzEgMC0xNy4xLTEzLjktMzEtMzEtMzFtMTE1MS45IDQ5NS43aC0yMzcuOGMtMTcgMC0zMSAxMy45LTMxIDMxIDAgMTcgMTQgMzEgMzEgMzFoMjM3LjhjMTcuMSAwIDMxLjEtMTQgMzEuMS0zMSAwLTE3LjEtMTQtMzEtMzEuMS0zMSIvPjxwYXRoIHRyYW5zZm9ybT0ibWF0cml4KC4xMzMzMyAwIDAgLS4xMzMzMyAwIDMyODIuMDUzKSIgc3R5bGU9ImZpbGw6I2Y1NzgyMTtmaWxsLW9wYWNpdHk6MTtmaWxsLXJ1bGU6bm9uemVybztzdHJva2U6bm9uZSIgZD0iTTE4ODQ3LjEgODA0My44aC00NjUuN2MtMTcgMC0zMSAxMy45LTMxIDMxIDAgMTcgMTQgMzEgMzEgMzFoNDY1LjdjMTcuMSAwIDMxLTE0IDMxLTMxIDAtMTcuMS0xMy45LTMxLTMxLTMxbS00MyAxMDcuN2gtMTk2LjRjLTE3LjEgMC0zMS4xIDE0LTMxLjEgMzEgMCAxNy4xIDE0IDMxIDMxLjEgMzFoMTk2LjRjMTcuMSAwIDMxLTEzLjkgMzEtMzEgMC0xNy0xMy45LTMxLTMxLTMxIi8+PHBhdGggdHJhbnNmb3JtPSJtYXRyaXgoLjEzMzMzIDAgMCAtLjEzMzMzIDAgMzI4Mi4wNTMpIiBzdHlsZT0iZmlsbDojNGU5YTM1O2ZpbGwtb3BhY2l0eToxO2ZpbGwtcnVsZTpub256ZXJvO3N0cm9rZTpub25lIiBkPSJNNTc5OS40NCA0NDIwYy0xNC41Ni02My4xLTk0Ljg1LTk4LjQtMTc5LjI3LTc5LTg0LjQyIDE5LjUtMTQxLjExIDg2LjUtMTI2LjU1IDE0OS42IDE0LjU2IDYzIDk0Ljg2IDk4LjQgMTc5LjI3IDc4LjkgODQuNDktMTkuNCAxNDEuMTEtODYuNCAxMjYuNTUtMTQ5LjVNNDU1MC44IDQxMzQuOWMtMTUwLjMtNjEuNS0yOTEuMTctNjUtMzE0LjYxLTcuOC0yMy40NCA1Ny4zIDc5LjQzIDE1My43IDIyOS43MyAyMTUuMiAxNTAuMjkgNjEuNiAyOTEuMTcgNjUgMzE0LjYgNy44IDIzLjQ1LTU3LjMtNzkuMzQtMTUzLjYtMjI5LjcyLTIxNS4ybTExMjIuODcgMjM5Mi41YzMwLjQ1IDc0LjYgODMuODcgMTIzLjIgMTE5LjM4IDEwOC43IDM1LjQ0LTE0LjQgMzkuNDgtODYuNiA5LjA0LTE2MS4yLTMwLjQ1LTc0LjYtODMuOTUtMTIzLjMtMTE5LjM4LTEwOC44LTM1LjQ0IDE0LjUtMzkuNSA4Ni43LTkuMDQgMTYxLjNtLTg4OS44Ny03NzBjLTMuMzUgMzggNTguOTUgNzQuNiAxMzkuMjQgODEuNyA4MC4yMiA3LjIgMTQ4LjA0LTE3LjkgMTUxLjM5LTU1LjkgMy40Mi0zOC01OC44OC03NC42LTEzOS4xNy04MS43LTgwLjI5LTcuMi0xNDguMDQgMTcuOC0xNTEuNDYgNTUuOW05MC4wMi03MTIuOGMtOTUtNDcuMi0xOTUuMzgtMzguNC0yMjQuMTkgMTkuNy0yOC43NCA1OCAyNC45MSAxNDMuMiAxMjAgMTkwLjQgOTUuMDggNDcuMSAxOTUuNDYgMzguNCAyMjQuMTktMTkuNyAyOC44Mi01OC0yNC45MS0xNDMuMy0xMjAtMTkwLjRtNzc4Ljk4LTcxLjhjLTE5LjI0LTM2LjgtODcuNjktMzguOC0xNTIuODctNC42LTY1LjE4IDM0LjEtMTAyLjMzIDkxLjUtODMuMDkgMTI4LjMgMTkuMjMgMzYuNyA4Ny42OSAzOC44IDE1Mi44NiA0LjYgNjUuMTEtMzQuMiAxMDIuMzMtOTEuNyA4My4xLTEyOC4zbTczOS40MSAxNTEuOWMtMTE0LjA4LTU5LjYtNTExLjMxLTUwNi45LTU1NC42MS0xNDktNDMuMjIgMzU3LjkgMjI0LjE5IDI2Ny41IDIyNC4xOSAyNjcuNSAzOTMuMzQtMTA2LjIgNjgwLjQ3IDMyMi41IDY4MC40NyAzMjIuNSAyLjQ5IDc5LjYtMjcuNjQgMTgwLjgtNzAuMDkgMjgyLTMuMTEgNy41LTYuMzEgMTUuMS05LjU3IDIyLjYtOTIuMTMgMjExLjEtMjMxLjA2IDQxNS4yLTIzMS4wNiA0MTUuMi0xNjEuMjgtMzAyLjktODQ1LjYzLTgzNy44LTkxMi41Mi02NzYuNS02Ni44MyAxNjEuMiAxMTQuMDggMjE2LjMgMTE0LjA4IDIxNi4zIDYzNy4xNiAxMzMuNyA2NjAuNzcgNjAxLjggNjYwLjc3IDYwMS44LTExLjkzIDMxLjMtMzUuMjEgNjQuOC02NS44MSA5OC45LTUuMyA1LjktMTAuNzUgMTEuNy0xNi4zNiAxNy42LTE2OC41MSAxNzQuNy01MTEuNzEgMzU5LjMtNTExLjcxIDM1OS4zLTIzLjU5LTM1MC0yNjcuNS01MjctMjY3LjUtNTI3LTQyMC44My0yMy42LTE5Ni42MyAyMzkuOS0xOTYuNjMgMjM5LjkgMzI2LjQ1IDg2LjUgMjk4Ljg4IDQwNS4xIDI5OC44OCA0MDUuMS0yMi44OSAwLTU1LjA2IDEyLjUtOTEuOTcgMzIuNS02LjMxIDMuNC0xMi44NSA3LjEtMTkuNDYgMTEuMS0xNDYuMjUgODUuNC0zNDguNzMgMjY3LjEtMzQ4LjczIDI2Ny4xLTE1LjQ5LTEzOS40LTE3NS43Ny0xODcuMi0xODAuNzQtMTg4LjYgNDMuMjIgMjQgNjIuNzYgMjM1LjggNjIuNzYgMjM1LjgtMTIuMyA1LjMtMjcuMTcgMTQuMi00My45MiAyNS45LTUuOTEgNC4yLTEyLjE0IDguNy0xOC41MyAxMy41LTEwMi40OCA3Ny41LTI1Ni40NSAyMzQuOS0zMjUuOTggMzA3LjYtMjIuNjYgMjMuOC0zNi4zNyAzOC41LTM2LjM3IDM4LjUgMS43OS01LjggMi42NS0xMi41IDIuNjUtMjAuMSAwLTEyLjItMi4yNi0yNi42LTYuNDctNDIuOC0yNS40Ni0xMDAuMS0xMjIuMjYtMjY2LjMtMTk4LjE5LTM4Ny00LjQzLTcuMS04Ljg3LTE0LjEtMTMuMjQtMjAuOS00Ny4zNC03NC41LTgzLjY0LTEyNy04My42NC0xMjcgMTIxLjk2LTMwNi44IDY0MS4wNy0yMDguNSA0MjAuODQtNDc0LjctMjIwLjIzLTI2Ni4xLTUzNC45MSAzMDEuNi01MzQuOTEgMzAxLjYgNi4wNi0zNS4xLTI5LjY4LTEwNS4zLTgyLTE4NS43LTQuNTItNi45LTkuMTItMTMuOS0xMy44Ny0yMC45LTM4LjQtNTcuMS04My44OC0xMTguMi0xMjcuOC0xNzQuNy00LjgyLTYuMi05LjczLTEyLjUtMTQuNDgtMTguNi04Ni4zNi0xMDkuOC0xNjIuOTktMTk3LjktMTYyLjk5LTE5Ny45czM5LjM0LTMyNi41IDUwMy4zOC00MzYuNmM0NjQuMTMtMTEwLjEgMzk3LjMxLTIwMC42IDM5Ny4zMS0yMDAuNi00NTYuMjctMTk2LjYtOTM2LjEyIDUxMS4zLTkzNi4xMiA1MTEuMy05NC45My0xMDMtMTcxLjQtMjM4LjctMjMxLjQ1LTM3NC44LTMuMzQtNy42LTYuNjEtMTUuMS05LjgtMjIuNy0xMTYuOTctMjczLjMtMTY3Ljc1LTU0MC44LTE2Ny43NS01NDAuOCA0MzYuNTYtNTk5LjkgNjgwLjM5LTI5Mi44IDg5Mi43NS0yOTIuOCAyMTIuNDQgMCAzMTguNTktNjIuOSAzMTguNTktMTIxLjggMC01OS4xLTUxLjA5LTI1NS43LTQ2NC4wNi0yNTUuN3MtNzgyLjcxIDQyMC44LTc4Mi43MSA0MjAuOGMzNi4zNy0yMjkuMiA4MS42MS00MjUgMTMzLjc5LTU5MS40IDIuNjUtOC40IDUuMjktMTYuNyA3Ljk0LTI0LjkgNDk3Ljg1LTE1MzkuNSAxNjAzLjU5LTQ5MS41IDE3NDYuNTYtMzQ3LjQgMTAuMDYgMTAuMiAxNS4zNSAxNS44IDE1LjM1IDE1LjhzMS4xNi0xMy4zIDYuOTMtMzQuNGM0LjA1LTE0LjkgMTAuNDQtMzMuNCAyMC40LTUzLjh2LS4xYzI0LjE0LTQ5LjkgNjkuMzgtMTEwLjMgMTUzLjU3LTE1MS42IDQwOS45Mi0yMDAuOCAxMzg4LjQxIDcwLjggMTM0NS4xMiA1NTUuNC03Ljk1IDg4LjktNS41MiAxNzQuOSAzLjY2IDI1NiAuOTQgOC4zIDEuOTQgMTYuNiAzLjA0IDI0LjggNDUuODYgMzQ4LjMgMjEzLjUzIDYwMS4xIDIxMy41MyA2MDEuMXMtMzgxLjUxLTE0Ny4yLTQ5NS41Mi0yMDYuNyIvPjxwYXRoIHRyYW5zZm9ybT0ibWF0cml4KC4xMzMzMyAwIDAgLS4xMzMzMyAwIDMyODIuMDUzKSIgc3R5bGU9ImZpbGw6IzgwYjI2MDtmaWxsLW9wYWNpdHk6MTtmaWxsLXJ1bGU6bm9uemVybztzdHJva2U6bm9uZSIgZD0iTTM5MjAuOCA0NDIzYy0yMTcuNTEgMC00MTAuNTYgMjIuMy01NDEuMjMgNDIuNi0yLjY1IDguMi01LjI5IDE2LjUtNy45NCAyNC45IDEyOS42Ni0yMC42IDMyNi41NS00NC4xIDU0OS4zLTQ0LjEgNy4zNiAwIDE0LjcyIDAgMjIuMTQuMSAxMTcuNy44IDI0OS45MyA4LjYgMzg2Ljg4IDI5LjMgMy45Mi03LjUgOC4xMS0xNC45IDEyLjQ1LTIyLjMtMTI1LjY3LTE5LjItMjU5LjMyLTI5LjQtMzk5LjcyLTMwLjQtNy4zMi0uMS0xNC42NC0uMS0yMS44OC0uMW0yNjM5LjIyIDI1Ni44Yy00Ljc1IDcuMS04Ljk0IDE0LjItMTIuNjQgMjEuMiA0MS4yNiA4LjYgODMuNTEgMTguNCAxMjYuODIgMjkuMy0xLjEtOC4yLTIuMS0xNi41LTMuMDQtMjQuOC0zNy44NC05LjUtNzQuODctMTgtMTExLjE0LTI1LjdtLTE4ODEuMTkgNjkxLjljLTkuMjkgNy0yMC4zIDE1LTMyLjY0IDIzLjcgOTcuNDMuMiAxOTkuNzYgOS4yIDMwNi43MSAyOS40IDExLjY2LS44IDIzLjQ3LTEuMyAzNS41LTEuMyAxMy43NiAwIDI3LjczLjYgNDEuOTggMS44IDAgMCAxMC40NSAxLjYgMjYuNTMgMS42IDMuNTkgMCA3LjQ4LS4xIDExLjU5LS4zLTEzMC42Ny0zMy41LTI2MC44Ny01MS45LTM4OS42Ny01NC45bS0zNzIuMDYgMzQuN2MtMTc1LjYzIDM3LjUtMzQ3LjA3IDEwNC43LTUxMC45NiAyMDAuNC0xNDguMzUgODYuOC0yNjcuODkgMTg0LjEtMzU0Ljc5IDI2NS40IDMuMTkgNy42IDYuNDYgMTUuMSA5LjggMjIuNyA4Ni4zNy04MS4zIDIwNy0xODAuNCAzNTcuNjEtMjY4LjMgMTMwLjk2LTc2LjUgMjk3LjA4LTE1MS4yIDQ5Mi45MS0xOTQuMSAxLjg0LTguNSAzLjY2LTE3LjIgNS40My0yNi4xbTk2MSA2ODMuNGMtNTIuMTcuOS05Mi45IDUuMS0xMTguMzYgOC42LTEuODYgOC0zLjggMTYuMS01Ljc1IDI0LjMgMTkuMzItMi45IDUyLjU0LTYuOSA5Ni40My04LjggOC44Ny04LjEgMTguMTItMTYuMSAyNy42OC0yNC4xbS0xNjcuNDEgMTMuNmMtMS43NC4xLTMuNDcuMS01LjIuMS02LjExIDgtMTIuMTUgMTUuOS0xOC4xNSAyMy45IDUuODktLjIgMTEuODEtLjMgMTcuNzQtLjUgMS45NS03LjggMy44Mi0xNS42IDUuNjEtMjMuNW0tNTI1Ljc4IDgwLjNjLTIyMi45NiA2Ni41LTM5MS43OCAxNjMuNi01MTAuMDMgMjUwLjQtNzUuMjIgNTUuMi0xMzYuMiAxMTAuNS0xODMuODYgMTU5LjQgNC43NSA2LjEgOS42NiAxMi40IDE0LjQ4IDE4LjYgNDcuMzYtNDguOCAxMDguNDEtMTA0LjQgMTg0LjE4LTE1OS44IDExNy43OC04Ni4zIDI4Ni4zNS0xODIuOSA1MDkuNTYtMjQ4LjUtNC44LTYuNi05LjU5LTEzLjMtMTQuMzMtMjAuMW0tMjYuODEgMzI1LjhjLTkuODIgMC0xOS42My4zLTI5LjQ0IDEtMjAwLjc2IDEzLjEtMzc4LjQgMTU0LjktNDk1LjM2IDI3Ni4zIDQuNzUgNyA5LjM1IDE0IDEzLjg3IDIwLjkgMTE0LjctMTE5LjUgMjg5LjY5LTI2MS4zIDQ4My4wNC0yNzMuOSA5LjIzLS42IDE4LjQ0LS45IDI3LjU5LS45IDEzMi40NCAwIDI1Ni45NiA2Mi42IDM3MC42NiAxODYuNSAyLjg4LTguMyA1Ljc3LTE2LjggOC42NS0yNS4xLTExNi4wNC0xMjIuNy0yNDMuMjktMTg0LjgtMzc5LjAxLTE4NC44TTQ5NjcuOSA2NzE4Yy0yLjY2IDcuNi01LjIzIDE1LjItNy43OSAyMi43IDQxLjg5IDUuMyAxNDQuMzcgMjQuMiAyNDguNDEgODguNyA5My40NSA1OCAxNjUuMjYgMTM2LjUgMjE0Ljc5IDIzNS4xIDYuNjEtNCAxMy4xNS03LjcgMTkuNDYtMTEuMS02MS45LTEyMi0xNDcuNDItMTk3LjktMjIyLjg3LTI0NC41LTEwNC41OS02NC41LTIwNS41Mi04NC43LTI1Mi05MC45bS00MDUuNSA1MjcuOWMtNzcuOTUgMC0xNjMuNzYgMTkuOC0yNDUuODUgNDcuNiA0LjM3IDYuOCA4LjgxIDEzLjggMTMuMjQgMjAuOSA3OC43OS0yNi4zIDE2MC4zNi00NC45IDIzMy41OS00NC45IDUwLjU2IDAgOTcuMTIgOC44IDEzNi4wOCAzMC4xIDIuOTYtNy4xIDUuODQtMTQuNCA4LjgxLTIxLjctNDIuMzctMjIuNi05Mi4yOS0zMi0xNDUuODctMzJtMTg3LjgzIDUyLjZjLTIuODggNy4zLTUuODQgMTQuNS04LjggMjEuNiAyOC4xMiAxMS40IDgxLjIzIDM2LjUgMTMzLjU2IDgxIDYuNjIgNS42IDEzLjAxIDExLjQgMTkuMTYgMTcuMSA2LjM5LTQuOCAxMi42Mi05LjMgMTguNTMtMTMuNS02MS43NS01OS43LTEyOC41Ny05Mi4yLTE2Mi40NS0xMDYuMiIvPjxwYXRoIHRyYW5zZm9ybT0ibWF0cml4KC4xMzMzMyAwIDAgLS4xMzMzMyAwIDMyODIuMDUzKSIgc3R5bGU9ImZpbGw6IzNlNzIyZTtmaWxsLW9wYWNpdHk6MTtmaWxsLXJ1bGU6bm9uemVybztzdHJva2U6bm9uZSIgZD0iTTUyMTUuNTMgNDgzOS43Yy0uNDYtOS4xLS44Ni0xOC4xLTEuNC0yNy4xLTcuNDgtMTQ4LTE2Ljc0LTI5Ni0yNS42Mi00MzcuNi03LTExMi4yLTEzLjkzLTIyMy0xOS43LTMyOS4ydi0uMWMtMjAuMzMtMzcxLjMtMjYuNzktNjg2LjIgMjUuMTUtODA2LjlsLTQyLjktMTguNWMtNTkuMjYgMTM3LjktNDkuMjIgNDc5LjktMjQuOTMgODk3LjkgNC44MyA4My44IDEwLjI5IDE3MC43IDE1LjgxIDI1OS43IDguNTcgMTM3LjYgMTcuNiAyODEuNCAyNSA0MjUuMi41NSAxMC44IDEuMDkgMjEuNiAxLjY0IDMyLjQgMTAuODEgMjE1LjkgMTcuNzUgNDMwLjggMTQuMjUgNjI0LjMtLjI0IDguMi0uMzkgMTYuMy0uNTQgMjQuNC0xLjE3IDUxLTMuMTMgMTAwLjYtNS45MiAxNDguMS04LjQyIDE0Mi0zNi4xNCAzMDIuOC03Ni4wMSA0NzEuMS0xLjc5IDcuOS0zLjY2IDE1LjctNS42MSAyMy41LTQ0LjkzIDE4NS44LTEwNC4xMSAzNzkuOC0xNjcuOTcgNTY3LjQtMi44OCA4LjMtNS43NyAxNi44LTguNjUgMjUuMS02OC45MSAyMDAuNy0xNDIuODEgMzkzLTIwOS44NiA1NTguNS0yLjk3IDcuMy01Ljg1IDE0LjYtOC44MSAyMS43LTcwLjAxIDE3Mi0xMzEuNzYgMzEzLjEtMTcxLjQ4IDQwMS44IDQuMjEgMTYuMiA2LjQ3IDMwLjYgNi40NyA0Mi44IDAgNy42LS44NiAxNC4zLTIuNjUgMjAuMSAwIDAgMTMuNzEtMTQuNyAzNi4zNy0zOC41IDM5LjU2LTg4LjIgMTAyLjE2LTIzMC45IDE3My4yNi00MDUuNyAyLjk2LTcuMSA1LjkyLTE0LjMgOC44LTIxLjYgNjYuOS0xNjUuMSAxNDAuNzItMzU3LjEgMjA5Ljg4LTU1Ny44IDIuNTYtNy41IDUuMTMtMTUuMSA3Ljc5LTIyLjcgNjcuMDUtMTk2LjUgMTI5LjI2LTQwMC42IDE3NS43Ni01OTUuMyAxLjk1LTguMiAzLjg5LTE2LjMgNS43NS0yNC4zIDM4LjU2LTE2NS4zIDY1LjI2LTMyMy4zIDczLjYtNDYzLjQgMi44OS00OC45IDQuOS05OS44IDYuMDctMTUyLjQuMTYtOC40LjMxLTE2LjkuNDctMjUuNCAzLjM1LTE5Mi0zLjQzLTQwNC4yLTE0LjAyLTYxNy41Ii8+PHBhdGggdHJhbnNmb3JtPSJtYXRyaXgoLjEzMzMzIDAgMCAtLjEzMzMzIDAgMzI4Mi4wNTMpIiBzdHlsZT0iZmlsbDojNjRjNDMxO2ZpbGwtb3BhY2l0eToxO2ZpbGwtcnVsZTpub256ZXJvO3N0cm9rZTpub25lIiBkPSJNNTI5Mi45NCA0NjkzLjFjODYuNTQgNC4xIDE1OS4yMi00NSAxNjIuMzEtMTA5LjcgMy4wOC02NC42LTY0LjY1LTEyMC40LTE1MS4xOC0xMjQuNS04Ni41My00LjEtMTU5LjIyIDQ1LTE2Mi4zMiAxMDkuNi0zLjA3IDY0LjcgNjQuNTggMTIwLjUgMTUxLjE5IDEyNC42bTgzOC45My0zNzVjMzMuMjcgNTIuMSAxNzEuMjggMjMuNiAzMDguMTctNjMuOCAxMzYuOTMtODcuMyAyMjAuOTgtMjAwLjUgMTg3LjctMjUyLjctMzMuMjgtNTIuMS0xNzEuMjYtMjMuNi0zMDguMTkgNjMuOC0xMzYuOTggODcuNC0yMjAuOTUgMjAwLjUtMTg3LjY4IDI1Mi43bS01MjguMjYgMjE0NC41Yy0zNy40NS03LjktODEuMzkgNDkuNi05OC4wNyAxMjguMy0xNi42NiA3OC45LjIgMTQ5LjIgMzcuNjUgMTU3LjEgMzcuNTIgNy45IDgxLjQxLTQ5LjUgOTguMDctMTI4LjMgMTYuNjUtNzguOC0uMi0xNDkuMS0zNy42NS0xNTcuMW02MTYuOTctNzg3LjJjLTc3Ljc0IDIxLjMtMTMyLjUyIDY4LjQtMTIyLjM3IDEwNS4yIDEwLjA3IDM2LjggODEuMjggNDkuNCAxNTguOTQgMjggNzcuNzMtMjEuMyAxMzIuNTEtNjguNCAxMjIuNDMtMTA1LjItMTAuMTYtMzYuOC04MS4yOC00OS40LTE1OS0yOG0tMTQwLjgtNDQ4LjVjMzguNjIgNTEuOSAxMzguOTYgNDIuNyAyMjQuMTEtMjAuNyA4NS4xNi02My4zIDEyMi43NS0xNTYuOCA4NC4xMy0yMDguOC0zOC43LTUxLjktMTM5LjAzLTQyLjctMjI0LjEgMjAuNy04NS4xNyA2My4zLTEyMi44NCAxNTYuOC04NC4xNCAyMDguOG0tNTkwLjU0LTI5LjJjNzAuMjQgMjIuMSAxMzcuMjIgNy44IDE0OS42MS0zMS43IDEyLjM3LTM5LjYtMzQuNDItODkuNS0xMDQuNjUtMTExLjVzLTEzNy4yMi03LjgtMTQ5LjYgMzEuOGMtMTIuMzggMzkuNSAzNC40OSA4OS40IDEwNC42NCAxMTEuNG0tMTI1NS44MiA0NjEuN3MxMTkuODktMjc4LjcgMTAyLjkzLTYyOS41Yy0uMzktOC4zLS44OC0xNi43LTEuNDQtMjUtNS40Mi04MS40LTE4LjM4LTE2Ni41LTQyLjA1LTI1Mi41LTEyOS00NjkuMiA3ODUuMzgtOTEwLjkgMTIyNC41NC03ODYuNCA5MC4yIDI1LjYgMTQ1LjQ5IDc3IDE3OC4xMyAxMjEuN2wuMDMuMmMxMy40NSAxOC4zIDIzLjAyIDM1LjMgMjkuNjUgNDkuMmwuMDIuMWM5LjQzIDE5LjcgMTIuOTYgMzIuNiAxMi45NiAzMi42czQuMi02LjUgMTIuMjctMTguMmMxMTQuOTgtMTY3LjQgMTAxNi4xNC0xMzk1LjggMTc4MC41IDMwLjMgNC4wOSA3LjYgOC4xOSAxNS40IDEyLjI3IDIzLjEgODEuMDEgMTU0LjQgMTYwLjQ0IDMzOSAyMzcuMSA1NTguMSAwIDAtNDM4Ljg1LTM0OC4xLTg0NS4yLTI3NC41LTQwNi4zNSA3My42LTQyMS41NyAyNzYuMi00MTEuMDQgMzM0LjMgMTAuNTEgNTggMTI2LjE3IDEwMSAzMzUuMjEgNjMuMSAyMDguOTYtMzcuOCAzOTQuMTItMzgzLjUgOTMwLjY2IDEyOC45IDAgMC0yLjI3IDI3Mi4zLTY4LjY0IDU2Mi0xLjggOC0zLjY3IDE2LjEtNS42MiAyNC4xLTM0LjggMTQ0LjYtODUuODUgMjkxLjgtMTYwLjg4IDQxMC4xIDAgMC01OTguNDEtNjExLTEwMTIuMy0zMzYuMiAwIDAtNDkuNjEgMTAxIDQyNi43MiAxMjYuNiA0NzYuMjQgMjUuNiA1NzMuMTUgMzM5LjggNTczLjE1IDMzOS44cy01OS43IDEwMC4zLTEyNS4xIDIyMy44Yy0zLjU3IDYuOS03LjI5IDEzLjktMTAuOTQgMjAuOC0zMy4xMyA2My41LTY3IDEzMS43LTk0LjU3IDE5NC44LTMuNDQgNy43LTYuNzEgMTUuNC05LjkzIDIzLTM3LjE2IDg4LjQtNTkuODEgMTYzLjktNDcuNTcgMTk3LjQgMCAwLTQxMC44OC01MDIuNi01ODAuMTItMjAxLjQtMTY5LjI1IDMwMS4yIDMyNC4wMyAxMTEuOSA0OTguNzIgMzkyIDAgMC0yNi4zNSA1OC4xLTU5LjY1IDEzOS45LTMuMDkgNy40LTYuMiAxNS4xLTkuMyAyMi45LTUzLjIgMTMyLjMtMTE4LjggMzEzLjEtMTI2LjAxIDQxNi4xLTEuMjYgMTYuNy0uOTEgMzEuMyAxLjI4IDQzLjMgMS4zNCA3LjUgMy4zOSAxNCA2LjE4IDE5LjMgMCAwLTE2LjExLTEyLTQyLjY0LTMxLjMtODEuMzktNTkuMi0yNjAuOTctMTg2LjctMzc1LjYtMjQ0LjYtNy4xNS0zLjYtMTQuMDgtNi45LTIwLjY2LTEwLTE4LjU2LTguNS0zNC43OC0xNC42LTQ3LjgzLTE3LjYgMCAwLTE4LjUzLTIxMS45IDE5LjctMjQzLjMtNC42NSAyLjItMTUzLjgxIDc4LTE0NC4yMSAyMTcuOSAwIDAtMjMxLjYzLTE0Mi44LTM5MC43Ni0yMDAuOC03LjIyLTIuNy0xNC4zMS01LjEtMjEuMTMtNy40LTM5Ljg5LTEzLjEtNzMuNzYtMTkuNi05Ni4yOC0xNS41IDAgMC04My45NC0zMDguNiAyMjEuODYtNDUxLjkgMCAwIDE3My42MS0yOTkuMy0yMzYuMjYtMjAxIDAgMC0yMDguNDQgMjE3LjYtMTY5LjI0IDU2Ni4zIDAgMC0zNzAuNjItMTIwLjUtNTY3LjU4LTI2Mi40LTYuNTctNC44LTEyLjk4LTkuNi0xOS4yMy0xNC40LTM2LjItMjguMS02NS4wOC01Ni45LTgyLjQtODUuNiAwIDAtNjAuMjMtNDY0LjggNTQyLjg5LTcwOS45IDAgMCAxNjguMTctODYuNSA3My42OC0yMzMuMi05NC41OC0xNDYuOC02NzIuNiA1MDEuNi03NzcuMjkgODI4LjMgMCAwLTE3My4wOS0xNzYtMzAxLjM5LTM2Ny40LTQuNTQtNi43LTkuMDMtMTMuNi0xMy40NS0yMC41LTU5Ljc5LTkxLjktMTA3LjUtMTg2LjItMTE5LjI0LTI2NC45IDAgMCAyMDYuMDgtNDczLjEgNjEyLjA2LTQzOC43IDAgMCAyNzkuMjYgNDEuMyAxNzIuOTItMzAzLjItMTA2LjQzLTM0NC40LTQxNy41NCAxNjYuNi01MTkuMTggMjQ1LjUtMTAxLjU2IDc4LjktNDUwLjcgMjkxLjgtNDUwLjcgMjkxLjgiLz48cGF0aCB0cmFuc2Zvcm09Im1hdHJpeCguMTMzMzMgMCAwIC0uMTMzMzMgMCAzMjgyLjA1MykiIHN0eWxlPSJmaWxsOiM5M2Q1NjM7ZmlsbC1vcGFjaXR5OjE7ZmlsbC1ydWxlOm5vbnplcm87c3Ryb2tlOm5vbmUiIGQ9Ik03NTMwLjk2IDQxODEuOWMtMTMyLjE4IDMuNC0zMjYuMTEgMTUuOS01NDAuMTMgNTQuNy03LjEyIDEuMi0xNC4zMiAyLjYtMjEuNTIgMy45LTIzNS4xOCA0NC4zLTQ0Ni4yNiAxMTEuNS02MjcuNSAxOTkuNy0yMTEuNDMgMTAyLjktMzgyLjU1IDIzNC43LTUwOS4zOSAzOTIuNS03LjM4IDkuMS0xNC42MyAxOC40LTIxLjcyIDI3LjctNS4zNy0yLjUtMTMuMDItNS44LTIzLjAyLTEwLTY0LjU3LTI2LjEtMjI1LjYyLTc4LjktNDc0LjA1LTc5LjRoLTMuMTdjLTIyNi40NiAwLTU1OS43NCA0Ni05NzUuNTUgMjMzLjkuNTYgOC4zIDEuMDUgMTYuNyAxLjQ0IDI1IDQxNi4xNy0xODkuNCA3NDguODUtMjM1LjUgOTc0LjA5LTIzNS41aDEuMzJjMjYxLjE0LjIgNDI3LjIzIDYwLjcgNDc5LjM4IDgzIDExLjQ4IDQuOCAxNy40MiA3LjkgMTcuNzYgOC4xbDguODIgNC41IDUuOTItNy45YzQuMjYtNS44IDguNjEtMTEuNSAxMi45Ny0xNy4yIDI4OS4zMy0zNzMuOSA3NzYuMjctNTMzLjQgMTEzNi40OS02MDEuMyAyMjcuODMtNDMgNDM0LjU0LTU1LjYgNTcwLjEzLTU4LjYtNC4wOC03LjctOC4xOC0xNS41LTEyLjI3LTIzLjFtLTc5NC4yOCAxMDkwLjNjLTE2LjYxIDAtMzMuMjQuMy00OS44Mi44LTc4LjcyIDIuNC0xNTcuMDUgMTAuNy0yMzQuOTEgMjQuOC0xNzUuOTQgMzEuOS0zNDkuNDIgOTMuNC01MTguMDcgMTgzLjktNi44NSAzLjctMTMuNzYgNy41LTIwLjU5IDExLjMtNC45OC0xLjMtMTMuNzMtMy4zLTI1Ljg0LTUuNS0yOS4xNy01LjMtNzguMTUtMTEuOC0xNDMuNDktMTEuOC04OS40MiAwLTIwOS40NyAxMi4yLTM1MS4wOCA1NS45LTE4MS41IDU2LjItMzYwLjc0IDE1My4yLTUzMi41OSAyODguNC0xMTAuNzYgODcuMi0yMTguNTIgMTkwLjQtMzIyLjczIDMwOC45IDQuNDIgNi45IDguOTEgMTMuOCAxMy40NSAyMC41IDMyMi43Ni0zNjcuNyA2MjguMTItNTI2LjkgODQ3LjA1LTU5NC45IDEzOC43NC00My4xIDI1Ny4zOC01NC44IDM0NS41OC01NC44IDcxLjM3IDAgMTIyLjgyIDcuNyAxNDguNzkgMTIuNyAxMi4zIDIuNCAxOC44OSA0LjIgMTkuMjIgNC4zbDQuNjYgMS4zIDQuMTctMi40YzYuMTEtMy40IDEyLjI0LTYuNyAxOC4yOC0xMCAyODYuMTYtMTU0LjggNTU4LjEtMjA5IDc5OC44Ni0yMDkgMjI0LjYyIDAgNDIyLjExIDQ3LjMgNTc4LjM4IDEwNC4yIDE2My44NyA1OS42IDMwMC4yMyAxMzUuNiAzOTkuNyAyMDAuMiAxLjk1LTggMy44Mi0xNi4xIDUuNjItMjQuMS0xMDAuMDEtNjQuNS0yMzUtMTM4LjktMzk2LjQ0LTE5Ny44LTE5NC44LTcxLTM5Mi4zNy0xMDYuOS01ODguMi0xMDYuOW0tMjgyLjQzIDgwMi4xYy0xMDEuMDMgMC0yMDkuMjkgNy44LTMyNC40NiAyNi02LjcgMS4xLTEzLjM4IDIuMS0yMC4xNCAzLjMtLjkxIDAtMi4zLS4xLTQuMTYtLjEtNSAwLTEzLjQyLjEtMjQuODcuNi0yOC45NyAxLjMtNzcuMjcgNS4xLTEzOC40MiAxNi4yLTg3LjA1IDE1LjgtMjAwLjIyIDQ2LjMtMzIwLjQzIDEwNS40LTE1Mi42OSA3NC45LTI4Ny4wOCAxODAuNS0zOTkuNCAzMTMuNy00Ni4wNSA1NC43LTg4LjQgMTE0LTEyNi44NSAxNzcuOCA2LjI1IDQuOCAxMi42NiA5LjYgMTkuMjMgMTQuNCAxNTcuNjktMjYwLjkgMzU1LjEzLTQwNS4yIDUxNi4zLTQ4NC41IDIxMS4zNi0xMDQuMSA0MDAtMTE4LjIgNDU5LjU4LTEyMC4xIDUuNzctLjEgMTAuMzItLjIgMTMuNTctLjIgMy43MiAwIDUuNzQuMSA1Ljk2LjFsMi4yNy0uMWM5LjA3LTEuNSAxOC4xNC0zIDI3LjA3LTQuMyAxMTEuNy0xNy40IDIxNi42Ny0yNC45IDMxNC44LTI0LjkgMzI1Ljg3IDAgNTc1LjgzIDgyLjkgNzQyLjM0IDE2NCA4NC40NSA0MSAxNTQuNDQgODQuOCAyMDkuNzEgMTI0LjMgMy42NS02LjkgNy4zNy0xMy45IDEwLjk0LTIwLjgtNTUuNjEtMzkuNi0xMjUuNDctODMuMi0yMDkuMzItMTI0LTE2OS4wNi04Mi41LTQyMi44OS0xNjYuOC03NTMuNzItMTY2LjgiLz48cGF0aCB0cmFuc2Zvcm09Im1hdHJpeCguMTMzMzMgMCAwIC0uMTMzMzMgMCAzMjgyLjA1MykiIHN0eWxlPSJmaWxsOiM5M2Q1NjM7ZmlsbC1vcGFjaXR5OjE7ZmlsbC1ydWxlOm5vbnplcm87c3Ryb2tlOm5vbmUiIGQ9Ik02ODMwLjMxIDYzOTRjLTE4LjM3IDAtMzYuOCAxLTU1LjIyIDMuMS05Ljc4IDEuMS0xOS41IDIuNS0yOS4xNSA0LjMtMTMzLjU2IDI0LjItMjQ3LjcgMTA4LTMzOS45OSAyNDkuNC01LjI4IDgtMTAuNDQgMTYuMi0xNS40OSAyNC42LTQuMzkgMS4xLTExLjQ3IDMuMS0yMC43NSA2LTQ0LjYzIDE0LjUtMTQwLjM0IDUyLjMtMjMxLjc1IDEzNC41LTY1LjkzIDU5LjItMTM2LjU0IDE0OS4yLTE3NS43MSAyODAuMiA2LjgyIDIuMyAxMy45MSA0LjcgMjEuMTMgNy40IDMxLjE3LTEwNS43IDg3LjgtMTk1LjggMTY5LjQxLTI2OS42IDkwLjg5LTgxLjkgMTg4LjM2LTExOC44IDIyOC42NC0xMzEuNSAxMS45LTMuNyAxOC44OS01LjQgMTkuMTktNS40bDQuODctMS4yIDIuNTUtNC4yYzMuNTktNiA3LjE4LTExLjkgMTAuODktMTcuNyA5Ni0xNTIgMjE2LjY3LTIzNy4yIDM1OC43Ny0yNTMuNiAxNy4xMy0xLjkgMzQuMjktMi45IDUxLjQ1LTIuOSAxNzUuNyAwIDM1MC40NiA5Ny44IDQ3Mi43IDE4Ni4zIDMuMjItNy42IDYuNDktMTUuMyA5LjkzLTIzLTEyNC4xNS04OS41LTMwMC40Ny0xODYuNy00ODEuNDctMTg2LjdtMTM3Ljc0IDcyNS45Yy0zNi40NSAwLTcxLjkxIDIuNi0xMDUuMjIgOC43LTUyLjcxIDkuNS0xMDAuMTYgMjcuNy0xMzcuODEgNTcuNS02LjYgNS4xLTEyLjg5IDEwLjYtMTguNzggMTYuNC0yLjk1IDEuNy05LjYzIDUuNC0xOC44NCAxMS40LTMwLjg1IDE5LjctOTAuNzkgNjMuNy0xNDAuOTIgMTMzLjQgNi41OCAzLjEgMTMuNTEgNi40IDIwLjY2IDEwIDUuMDEtNi44IDEwLjI4LTEzLjYgMTUuNzktMjAuMyA0My41Ny01My4xIDkxLjM0LTg3LjMgMTE2Ljk4LTEwMy41IDExLjQ5LTcuMyAxOC41MS0xMC45IDE4LjcyLTExbDEuNTgtLjkgMS4zNS0xLjNjNS4wOC01LjIgMTAuNC05LjkgMTYtMTQuNCA1Ni40Mi00NS42IDEzOC43Ny02Mi4yIDIyOC42MS02Mi4yIDQ0LjgyIDAgOTEuNTEgNC4yIDEzNy43NiAxMC44IDMuMS03LjggNi4yMS0xNS41IDkuMy0yMi45LTQ4LjUtNy4yLTk3LjY5LTExLjctMTQ1LjE4LTExLjciLz48cGF0aCB0cmFuc2Zvcm09Im1hdHJpeCguMTMzMzMgMCAwIC0uMTMzMzMgMCAzMjgyLjA1MykiIHN0eWxlPSJmaWxsOiM1MjlmMzU7ZmlsbC1vcGFjaXR5OjE7ZmlsbC1ydWxlOm5vbnplcm87c3Ryb2tlOm5vbmUiIGQ9Ik01NzkxLjE0IDQ4NzcuNGMtMS4xNi05LTIuMzktMTgtMy40Ni0yNy0xOS4wMy0xNDYuOS0zNi4yOS0yOTQuMS01Mi44MS00MzUuMS0xMy4xMS0xMTEuNy0yNi4wNi0yMjEuOS0zOS4zMS0zMjcuNGwtLjAzLS4yYy00Ni4yLTM2OC45LTk1Ljk4LTY3OS45LTE2OC42MS03ODkuNGwzOC45My0yNS44YzgyLjg5IDEyNS4xIDEzMy45OSA0NjMuNCAxODQuNjEgODc5LjEgMTAuMTkgODMuMyAyMC4zMyAxNjkuNyAzMC43NSAyNTguMiAxNi4xMSAxMzcgMzIuODYgMjgwLjEgNTEuMjEgNDIyLjlsNC4xOCAzMi4yYzI3Ljg0IDIxNC40IDU5LjMzIDQyNyA5Ny4yOCA2MTYuOCAxLjY5IDggMy4yOSAxNS45IDQuODggMjMuOSAxMC4yNiA1MCAyMS4wMSA5OC40IDMyLjI0IDE0NC43IDMzLjYgMTM4LjIgODkuNTUgMjkxLjUgMTU4Ljc5IDQ1MCAzLjE2IDcuNCA2LjM5IDE0LjggOS43MSAyMi4yIDc3LjMzIDE3NC43IDE3MC4xNyAzNTUuMSAyNjYuNDUgNTI4LjMgNC4zMiA3LjcgOC42NSAxNS41IDEyLjk4IDIzLjEgMTAzLjU5IDE4NS4yIDIxMC42MSAzNjEuMyAzMDYuMDkgNTEyLjIgNC4yMiA2LjcgOC4zNCAxMy4zIDEyLjUzIDE5LjggOTkuNTUgMTU2LjcgMTg1LjQ3IDI4NC41IDI0MC4zNyAzNjQuNy0xLjI1IDE2LjctLjkxIDMxLjMgMS4yNyA0My4zIDEuMzUgNy41IDMuNCAxNCA2LjE5IDE5LjMgMCAwLTE2LjExLTEyLTQyLjY0LTMxLjMtNTQuNjYtNzkuOC0xNDEuNzItMjA5LjEtMjQyLjg0LTM2OC40LTQuMTktNi41LTguMzgtMTMtMTIuNS0xOS42LTk1LjI4LTE1MC42LTIwMi4xNC0zMjYuMy0zMDUuOTctNTExLjUtMy44OC03LTcuNzUtMTMuOS0xMS43Mi0yMS0xMDEtMTgxLjMtMTk4LjYyLTM3MS4xLTI3OS4wOC01NTQuNC0zLjM3LTcuNy02LjczLTE1LjMtMTAuMDEtMjIuOS02Ny40LTE1NS43LTEyMS44Ni0zMDYuNS0xNTUuMDMtNDQyLjgtMTEuNTYtNDcuNi0yMi42NC05Ny40LTMzLjE2LTE0OC45LTEuNjUtOC4yLTMuMzEtMTYuNi00Ljk4LTI0LjktMzcuNTItMTg4LjMtNjguNzEtMzk4LjQtOTYuMzEtNjEwLjEiLz48cGF0aCB0cmFuc2Zvcm09Im1hdHJpeCguMTMzMzMgMCAwIC0uMTMzMzMgMCAzMjgyLjA1MykiIHN0eWxlPSJmaWxsOiNkNThhMTg7ZmlsbC1vcGFjaXR5OjE7ZmlsbC1ydWxlOm5vbnplcm87c3Ryb2tlOm5vbmUiIGQ9Ik02MDc3LjQyIDE4MTAuNkg0NjUzLjA5Yy03NC41MiAwLTEzNy4wOCA1Ni4xLTE0NS4xNiAxMzAuMmwtMTM4Ljc2IDEyNzMuNGMtOS40MiA4Ni4zIDU4LjI1IDE2MS44IDE0NS4xNSAxNjEuOGgxNzAxLjg3Yzg2LjkxIDAgMTU0LjU3LTc1LjUgMTQ1LjE1LTE2MS44bC0xMzguNzctMTI3My40Yy04LjA3LTc0LjEtNzAuNjMtMTMwLjItMTQ1LjE1LTEzMC4yIi8+PHBhdGggdHJhbnNmb3JtPSJtYXRyaXgoLjEzMzMzIDAgMCAtLjEzMzMzIDAgMzI4Mi4wNTMpIiBzdHlsZT0iZmlsbDojZjlhNzBkO2ZpbGwtb3BhY2l0eToxO2ZpbGwtcnVsZTpub256ZXJvO3N0cm9rZTpub25lIiBkPSJNNjQ1My43NyAyOTU1LjVINDI5Ny4yOWMtNTcuNzggMC0xMDQuNjIgNDYuOC0xMDQuNjIgMTA0LjZ2MjExLjNjMCA1Ny43IDQ2Ljg0IDEwNC42IDEwNC42MiAxMDQuNmgyMTU2LjQ4YzU3Ljc5IDAgMTA0LjYyLTQ2LjkgMTA0LjYyLTEwNC42di0yMTEuM2MwLTU3LjgtNDYuODMtMTA0LjYtMTA0LjYyLTEwNC42Ii8+PHBhdGggdHJhbnNmb3JtPSJtYXRyaXgoLjEzMzMzIDAgMCAtLjEzMzMzIDAgMzI4Mi4wNTMpIiBzdHlsZT0iZmlsbDojZDhkN2Q2O2ZpbGwtb3BhY2l0eToxO2ZpbGwtcnVsZTpub256ZXJvO3N0cm9rZTpub25lIiBkPSJNMjQ2MjcuOCA2MDU2LjloLTExNDMuM2MtMjIuMiAwLTQwLjMgMTguMi00MC4zIDQwLjMgMCAyMi4yIDE4LjEgNDAuNCA0MC4zIDQwLjRoMTE0My4zYzIyLjIgMCA0MC40LTE4LjIgNDAuNC00MC40IDAtMjIuMS0xOC4yLTQwLjMtNDAuNC00MC4zbS0xMTcyLjQgMTQyLjktMjUwLjMgMTMzMi44Yy00LjYgMjQuOS0yNi4zIDQyLjktNTEuNiA0Mi45aC04NjQuN2MtMzIuOSAwLTU3LjctMjkuOC01MS43LTYyLjFsMjQ3LjEtMTMzMi45YzQuNi0yNC45IDI2LjMtNDIuOSA1MS43LTQyLjloODY3LjljMzIuOSAwIDU3LjcgMjkuOSA1MS42IDYyLjIiLz48cGF0aCB0cmFuc2Zvcm09Im1hdHJpeCguMTMzMzMgMCAwIC0uMTMzMzMgMCAzMjgyLjA1MykiIHN0eWxlPSJmaWxsOiNlYmViZWE7ZmlsbC1vcGFjaXR5OjE7ZmlsbC1ydWxlOm5vbnplcm87c3Ryb2tlOm5vbmUiIGQ9Im0yMzQzMi41IDYxOTkuOC0yNTAuMyAxMzMyLjhjLTQuNyAyNC45LTI2LjQgNDIuOS01MS43IDQyLjloLTg2NC43Yy0zMi44IDAtNTcuNi0yOS44LTUxLjYtNjIuMWwyNDctMTMzMi45YzQuNi0yNC45IDI2LjQtNDIuOSA1MS43LTQyLjloODY3LjljMzMgMCA1Ny44IDI5LjkgNTEuNyA2Mi4ybTE5LjItMTQyLjlIMjI1MDZjLTIwLjIgMC0zNi44IDE2LjYtMzYuOCAzNi44djcuMWMwIDIwLjIgMTYuNiAzNi44IDM2LjggMzYuOGg5NDUuN2MyMC4zIDAgMzYuOS0xNi42IDM2LjktMzYuOHYtNy4xYzAtMjAuMi0xNi42LTM2LjgtMzYuOS0zNi44Ii8+PHBhdGggdHJhbnNmb3JtPSJtYXRyaXgoLjEzMzMzIDAgMCAtLjEzMzMzIDAgMzI4Mi4wNTMpIiBzdHlsZT0iZmlsbDojYjViNWI0O2ZpbGwtb3BhY2l0eToxO2ZpbGwtcnVsZTpub256ZXJvO3N0cm9rZTpub25lIiBkPSJNMjM2NTEuNyA2MDc5LjZoLTEwMWMtMTAuNCAwLTE4LjggOC40LTE4LjggMTguOCAwIDEwLjMgOC40IDE4LjggMTguOCAxOC44aDEwMWMxMC40IDAgMTguOC04LjUgMTguOC0xOC44IDAtMTAuNC04LjQtMTguOC0xOC44LTE4LjhtMTcyLjIgMGgtMTAxLjFjLTEwLjMgMC0xOC44IDguNC0xOC44IDE4LjggMCAxMC4zIDguNSAxOC44IDE4LjggMTguOGgxMDEuMWMxMC4zIDAgMTguOC04LjUgMTguOC0xOC44IDAtMTAuNC04LjUtMTguOC0xOC44LTE4LjgiLz48cGF0aCB0cmFuc2Zvcm09Im1hdHJpeCguMTMzMzMgMCAwIC0uMTMzMzMgMCAzMjgyLjA1MykiIHN0eWxlPSJmaWxsOiNlOWQ1YmE7ZmlsbC1vcGFjaXR5OjE7ZmlsbC1ydWxlOm5vbnplcm87c3Ryb2tlOm5vbmUiIGQ9Ik0yMzEwMC40IDM1NDIuNlMyMjg2NyAzMjUwLjMgMjI1OTAgMzI4M2MwIDAtMjguNC0xNjMuNiAxNTctMTk2LjMgMTg1LjQtMzIuNyA0NDcuMiAwIDQ0Ny4yIDBsMjQ2LjUgMzQ5LTM0MC4zIDEwNi45Ii8+PHBhdGggdHJhbnNmb3JtPSJtYXRyaXgoLjEzMzMzIDAgMCAtLjEzMzMzIDAgMzI4Mi4wNTMpIiBzdHlsZT0iZmlsbDojOGYxOTFlO2ZpbGwtb3BhY2l0eToxO2ZpbGwtcnVsZTpub256ZXJvO3N0cm9rZTpub25lIiBkPSJNMjI1OTAgMzI4M3MtNDY0LjcgMTkuNi01NTguNSA2OS44YzAgMC05MS42IDguNyAyOC40LTEyNi41IDExOS45LTEzNS4zIDUyOS40LTM3NS4yIDkyNy44LTMxMmwtMzUuNi0xODUuNCA2Mi41LTMwLjUgMTg2LjYgMzk4LjJzLTMyNy43LTk1LTYxMS4yIDE4Ni40Ii8+PHBhdGggdHJhbnNmb3JtPSJtYXRyaXgoLjEzMzMzIDAgMCAtLjEzMzMzIDAgMzI4Mi4wNTMpIiBzdHlsZT0iZmlsbDojYTQ1YzI3O2ZpbGwtb3BhY2l0eToxO2ZpbGwtcnVsZTpub256ZXJvO3N0cm9rZTpub25lIiBkPSJNMjUxMTEuNyA4ODM3LjVzLTE1NS41IDMzMi4yIDI0My45IDQxMC42YzM5OS41IDc4LjQgNTkzLjYtMjA5IDY1My4zLTQzMyAwIDAgNDgxLjYgMTI2LjkgNTMwLjEtNDY2LjYgMCAwIDk0NC40LTM1NC43IDg1LjktMTE4My40bC02NjQuNSAxOTkuMi0zNjkuNiAxMTU5LjYtMzU4LjMgMjUwLjEtMTIwLjggNjMuNSIvPjxwYXRoIHRyYW5zZm9ybT0ibWF0cml4KC4xMzMzMyAwIDAgLS4xMzMzMyAwIDMyODIuMDUzKSIgc3R5bGU9ImZpbGw6I2U5ZDViYTtmaWxsLW9wYWNpdHk6MTtmaWxsLXJ1bGU6bm9uemVybztzdHJva2U6bm9uZSIgZD0iTTI1MTIzIDkwNDZzLTg0LjYtNTE5LjQgMjAzLTg5Ny4xYzAgMCAyMDguNiA2Ny42IDI2NSAwIDI4LjItMzMuOSA3Ni45LTEzMC40IDExMC43LTIxNSAwIDAtNjUtMjcuNS02NC4yLTM1LjQgNi43LTU5IDcuMi01NCA3LjItNTRsNDg3LjYgOTkuMnMtMjMxLjIgNDI1LjEtMjU5LjQgNzA3Yy0yOC4yIDI4MS45LTExMi44IDUyNC40LTM2Ni41IDQ4Ny43LTI1My43LTM2LjYtMzgzLjQtOTIuNC0zODMuNC05Mi40Ii8+PHBhdGggdHJhbnNmb3JtPSJtYXRyaXgoLjEzMzMzIDAgMCAtLjEzMzMzIDAgMzI4Mi4wNTMpIiBzdHlsZT0iZmlsbDojYTQ1YzI3O2ZpbGwtb3BhY2l0eToxO2ZpbGwtcnVsZTpub256ZXJvO3N0cm9rZTpub25lIiBkPSJNMjU0NzMuNyA4OTIzLjdzNDA1LjQtMzM5LjEgNTQzLjEtNjgwLjdsMTY4LjMgMjg4LjEtMzU1LjcgMzc3LjMtMzMwLjIgMTcwLjktMjUuNS0xNTUuNiIvPjxwYXRoIHRyYW5zZm9ybT0ibWF0cml4KC4xMzMzMyAwIDAgLS4xMzMzMyAwIDMyODIuMDUzKSIgc3R5bGU9ImZpbGw6I2E0NWMyNztmaWxsLW9wYWNpdHk6MTtmaWxsLXJ1bGU6bm9uemVybztzdHJva2U6bm9uZSIgZD0iTTI1MTIzIDkwNDZzNDIuMy00NzIuNiA4MDcuNS01ODYuNmwtMzAgNDk1LjEtMjA0IDE5NS0yMjIuOCA0NS0yMzEuOS0zOUwyNTEyMyA5MDQ2Ii8+PHBhdGggdHJhbnNmb3JtPSJtYXRyaXgoLjEzMzMzIDAgMCAtLjEzMzMzIDAgMzI4Mi4wNTMpIiBzdHlsZT0iZmlsbDojMmYyZDJlO2ZpbGwtb3BhY2l0eToxO2ZpbGwtcnVsZTpub256ZXJvO3N0cm9rZTpub25lIiBkPSJNMjY5NDYuNCAzNzYzLjNoLTEwMTQuN3YxMzkuMmgxMDEzLjRjMjguMy43IDU3MC4zIDIzLjggNTcwLjMgNjYzLjUgMCAzMzUuMS0xMDQgNDY1LjUtMjE0LjEgNjAzLjYtMTIxLjcgMTUyLjUtMjQ3LjYgMzEwLjMtMjQ3LjYgNzAzLjhoMTM5LjJjMC0zNDQuOCAxMDUuNS00NzcgMjE3LjItNjE3IDEyMC4yLTE1MC43IDI0NC41LTMwNi42IDI0NC41LTY5MC40IDAtNDA2LjItMTkyLjYtNjAzLjUtMzU0LjItNjk3LjYtMTczLjUtMTAwLjktMzQ2LjEtMTA1LTM1My40LTEwNS4xaC0uNiIvPjxwYXRoIHRyYW5zZm9ybT0ibWF0cml4KC4xMzMzMyAwIDAgLS4xMzMzMyAwIDMyODIuMDUzKSIgc3R5bGU9ImZpbGw6I2U5ZDViYTtmaWxsLW9wYWNpdHk6MTtmaWxsLXJ1bGU6bm9uemVybztzdHJva2U6bm9uZSIgZD0iTTI0OTc4LjcgMzEzMS4xczMzNi45LTY3Ny42IDE5Mi41LTgwMS43Yy0xNTEuMy0xMjkuOS00MTguMS0zNi4yLTQxOC4xLTM2LjJzNjguNSAyNjEuOC05Ni43IDc2NS40bDMyMi4zIDcyLjUiLz48cGF0aCB0cmFuc2Zvcm09Im1hdHJpeCguMTMzMzMgMCAwIC0uMTMzMzMgMCAzMjgyLjA1MykiIHN0eWxlPSJmaWxsOiM4ZTMzMWM7ZmlsbC1vcGFjaXR5OjE7ZmlsbC1ydWxlOm5vbnplcm87c3Ryb2tlOm5vbmUiIGQ9Im0yNTE3MS4yIDU1MzAtMTE5NS40LTg5NHM2MjUuMi0xNTMwLjEgNjM2LjItMTgyMC44YzAgMCAzMTIuNSAyMS45IDQ3Ny4xIDE0OC4xbC00MzguNyAxMzgyIDE2NzIuOCAyNTkuOC02MC40IDY4OS0zNjIgMjc5LjctNzI5LjYtNDMuOCIvPjxwYXRoIHRyYW5zZm9ybT0ibWF0cml4KC4xMzMzMyAwIDAgLS4xMzMzMyAwIDMyODIuMDUzKSIgc3R5bGU9ImZpbGw6I2U5ZDViYTtmaWxsLW9wYWNpdHk6MTtmaWxsLXJ1bGU6bm9uemVybztzdHJva2U6bm9uZSIgZD0iTTI0MzE4LjMgNjI2OC44cy01OC45LTk0LjgtMjkzLTY0LjVjMCAwLTIwNi4yLTI2LTI3Mi05MC43IDAgMC0xOS40LjkgMjcuMyA2MS4zIDQ2LjcgNjAuNSAxOTIuNCAyNjguOCA0NjAgMjE0LjVsMTE1LjctNDIuOS0zOC03Ny43Ii8+PHBhdGggdHJhbnNmb3JtPSJtYXRyaXgoLjEzMzMzIDAgMCAtLjEzMzMzIDAgMzI4Mi4wNTMpIiBzdHlsZT0iZmlsbDojOGYxOTFlO2ZpbGwtb3BhY2l0eToxO2ZpbGwtcnVsZTpub256ZXJvO3N0cm9rZTpub25lIiBkPSJNMjQyNTEuNCA2Mzg1LjRzNjkuNS01MS41IDU4LjgtMTI5LjRjMCAwIDcyMy41LTE3NC40IDc5Ni40LTE2MyA3MyAxMS41IDQ4MiA0NzUuNyA0ODIgNDc1LjdsLTMyNyAyNTEuNHMtMTE0LjItNDUzLjYtMjE5LjktNDc0LjNjLTEwNS43LTIwLjctNzkwLjMgMzkuNi03OTAuMyAzOS42Ii8+PHBhdGggdHJhbnNmb3JtPSJtYXRyaXgoLjEzMzMzIDAgMCAtLjEzMzMzIDAgMzI4Mi4wNTMpIiBzdHlsZT0iZmlsbDojMjM0NDY1O2ZpbGwtb3BhY2l0eToxO2ZpbGwtcnVsZTpub256ZXJvO3N0cm9rZTpub25lIiBkPSJNMjU3MDEuNyA3OTMzLjlzLTI1LjQtMTUwLjEgMzk3LjkgNTcuNWwzMTUuMS01MDUuNXMtMTAwLjgtMTE2My01Ni0xMzkzLjRjNDQuOC0yMzAuNCAxNTYuOC02ODIuMSAxNTYuOC02ODIuMXMtMTE1My41LTEzOC4xLTEzNDMuOSA3OC40bDE2NC4zIDkxNS4zLTIyLjQgODgwLjIgMTMwLjYgMzk5LjUgMjU3LjYgMjUwLjEiLz48cGF0aCB0cmFuc2Zvcm09Im1hdHJpeCguMTMzMzMgMCAwIC0uMTMzMzMgMCAzMjgyLjA1MykiIHN0eWxlPSJmaWxsOiNiYjI3MjM7ZmlsbC1vcGFjaXR5OjE7ZmlsbC1ydWxlOm5vbnplcm87c3Ryb2tlOm5vbmUiIGQ9Ik0yNTcwMS4zIDc5MzMuOXMtMzU4LjQtMzM0LjMtMzE3LjMtMTM4NmM0MS0xMDUxLjYtMjM5LTExMDMuOS0yMzktMTEwMy45bC01NS45IDI2LjFzMjI3LjcgODExLjUgMTgyLjkgMTI0NS43Yy00NC44IDQzNC4yLTk3LjEgMTAyMC4yIDQyOS4zIDEyMTguMSIvPjxwYXRoIHRyYW5zZm9ybT0ibWF0cml4KC4xMzMzMyAwIDAgLS4xMzMzMyAwIDMyODIuMDUzKSIgc3R5bGU9ImZpbGw6I2U5ZDViYTtmaWxsLW9wYWNpdHk6MTtmaWxsLXJ1bGU6bm9uemVybztzdHJva2U6bm9uZSIgZD0iTTI1MTQ1LjEgNTk5Ni41cy0xMjguNy05NC4yLTQyMi44IDcxLjNjMCAwLTI4Ny4zIDc1LjgtNDA5IDI1LjIgMCAwLTI1LjMgMTEuNSA2OC45IDY2LjcgOTQuMiA1NS4xIDM5OC44IDI1My40IDcyNC40IDM4LjJsMTMwLjQtMTE4LjYtOTEuOS04Mi44Ii8+PHBhdGggdHJhbnNmb3JtPSJtYXRyaXgoLjEzMzMzIDAgMCAtLjEzMzMzIDAgMzI4Mi4wNTMpIiBzdHlsZT0iZmlsbDojOWQzZDFlO2ZpbGwtb3BhY2l0eToxO2ZpbGwtcnVsZTpub256ZXJvO3N0cm9rZTpub25lIiBkPSJtMjY1MTUgNTQxMC40LTI1NjQuNC00Mi43Yy0yOC4xLS40LTUzLjQtMTcuMS02NS00Mi43LTEyMS44LTI3MC4xLTc5NC44LTE3NTIuNS05MjQuNC0xODAyLjNsNDU1LjItMzE4LjEgNjk0LjggMTUyOC42czE5MzcuNy0zMDUuNiAyMjg4LjctOTcuMmM0NDcuMyAyNjUuNiAxMTUuMSA3NzQuNCAxMTUuMSA3NzQuNCIvPjxwYXRoIHRyYW5zZm9ybT0ibWF0cml4KC4xMzMzMyAwIDAgLS4xMzMzMyAwIDMyODIuMDUzKSIgc3R5bGU9ImZpbGw6IzhmMTkxZTtmaWxsLW9wYWNpdHk6MTtmaWxsLXJ1bGU6bm9uemVybztzdHJva2U6bm9uZSIgZD0iTTI0NzYxLjcgMjM0Ni4ycy0yMTAuMS00MDcuNi0zODMuMy01MTIuM2MwIDAtMzYuMy02MC40IDEwOC44LTI0LjIgMTQ1IDM2LjMgNzIyLjggNDA2LjkgNzIyLjggNDA2LjlsMTAxLjgtMjAwLjEgNDkuNiAyOS4yLTE1Ni41IDQzNi44cy0zNi4zLTE0MC4zLTQ0My4yLTEzNi4zIi8+PHBhdGggdHJhbnNmb3JtPSJtYXRyaXgoLjEzMzMzIDAgMCAtLjEzMzMzIDAgMzI4Mi4wNTMpIiBzdHlsZT0iZmlsbDojYmIyNzIzO2ZpbGwtb3BhY2l0eToxO2ZpbGwtcnVsZTpub256ZXJvO3N0cm9rZTpub25lIiBkPSJNMjYxMDQuMSA3OTk3LjhzLTQ4Mi42LTE4Ny00ODIuNi0xMjUwLTkxLjMtMTYzNi45LTkxLjMtMTYzNi45IDcwMy4xIDM5NS42IDExMDMuNyAxNjUuMmMwIDAtMjA4LjEgNTM0LjgtMTQ3LjIgMTAwOC43IDYwLjggNDczLjkgMjIwLjYgMTIwNCA3LjEgMTQyOS4yLTIxMy40IDIyNS4zLTM4OS43IDI4My44LTM4OS43IDI4My44Ii8+PHBhdGggdHJhbnNmb3JtPSJtYXRyaXgoLjEzMzMzIDAgMCAtLjEzMzMzIDAgMzI4Mi4wNTMpIiBzdHlsZT0iZmlsbDojOGYxOTFlO2ZpbGwtb3BhY2l0eToxO2ZpbGwtcnVsZTpub256ZXJvO3N0cm9rZTpub25lIiBkPSJNMjY0MDMuMyA3NzY0LjNzNTg3LjQtMTQwLjQtMTMzLTIwMzUuNWMwIDAtMjU0LjktODguNy0xMTQ4LjkgMjUxLjIgMCAwIDU5LjEgMTMzLTE0LjggMjE3LjlsNzgzLjItMTEwLjhzMjkxLjkgNTI4LjMgMTQ3LjggMTM1OS41YzAgMCAxNDQuMSAzMTAuMyAzNjUuNyAzMTcuNyIvPjxwYXRoIHRyYW5zZm9ybT0ibWF0cml4KC4xMzMzMyAwIDAgLS4xMzMzMyAwIDMyODIuMDUzKSIgc3R5bGU9ImZpbGw6IzJmMmQyZTtmaWxsLW9wYWNpdHk6MTtmaWxsLXJ1bGU6bm9uemVybztzdHJva2U6bm9uZSIgZD0iTTI2Mjk5LjUgMzg3NC43YzAtODAuOS0xNzAtMTg4LjMtMzczLjItMTg4LjMtMjAzLjEgMC0zNjIuNCAxMDcuNC0zNjIuNCAxODguMyAwIDgxIDE1OS4zIDEwNC43IDM2Mi40IDEwNC43IDIwMy4yIDAgMzczLjItMjMuNyAzNzMuMi0xMDQuNyIvPjxwYXRoIHRyYW5zZm9ybT0ibWF0cml4KC4xMzMzMyAwIDAgLS4xMzMzMyAwIDMyODIuMDUzKSIgc3R5bGU9ImZpbGw6IzQyYTBkMDtmaWxsLW9wYWNpdHk6MTtmaWxsLXJ1bGU6bm9uemVybztzdHJva2U6bm9uZSIgZD0iTTI2NzM2LjEgMzk5OC45aC0xNjA4LjljLTE1NS45IDAtMjgzLjUgMTI3LjYtMjgzLjUgMjgzLjUgMCAxNTYgMTI3LjYgMjgzLjYgMjgzLjUgMjgzLjZoMTYwOC45YzE1NiAwIDI4My41LTEyNy42IDI4My41LTI4My42IDAtMTU1LjktMTI3LjUtMjgzLjUtMjgzLjUtMjgzLjUiLz48cGF0aCB0cmFuc2Zvcm09Im1hdHJpeCguMTMzMzMgMCAwIC0uMTMzMzMgMCAzMjgyLjA1MykiIHN0eWxlPSJmaWxsOiMyZjJkMmU7ZmlsbC1vcGFjaXR5OjE7ZmlsbC1ydWxlOm5vbnplcm87c3Ryb2tlOm5vbmUiIGQ9Ik0yNjc2MSAzODc0LjdoLTE2MTYuNGMtMzAuNSAwLTU1LjUgMjUuMS01NS41IDU1LjZ2MTMuMWMwIDMwLjUgMjUgNTUuNSA1NS41IDU1LjVIMjY3NjFjMzAuNiAwIDU1LjYtMjUgNTUuNi01NS41di0xMy4xYzAtMzAuNS0yNS01NS42LTU1LjYtNTUuNm0tODI1LjgtMTQyNS40djEwLjZjLTUwLjcgMC05Mi4xIDQxLjQtOTIuMSA5Mi4xdjExNjguOGMwIDUwLjcgNDEuNCA5Mi4xIDkyLjEgOTIuMSA1MC42IDAgOTItNDEuNCA5Mi05Mi4xVjI1NTJjMC01MC43LTQxLjQtMTAyLjctOTItMTAyLjciLz48cGF0aCB0cmFuc2Zvcm09Im1hdHJpeCguMTMzMzMgMCAwIC0uMTMzMzMgMCAzMjgyLjA1MykiIHN0eWxlPSJmaWxsOiMyZjJkMmU7ZmlsbC1vcGFjaXR5OjE7ZmlsbC1ydWxlOm5vbnplcm87c3Ryb2tlOm5vbmUiIGQ9Im0yNjY0NS4zIDIwMzMuNC03MjAuNSA0MTUuOWMtNDEuMiAyMy44LTU1LjUgNzctMzEuNyAxMTguMyAyMy44IDQxLjIgNzcgNTUuNCAxMTguMiAzMS42bDcyMC41LTQxNS45YzQxLjItMjMuOCA1NS41LTc3IDMxLjctMTE4LjItMjMuOC00MS4zLTc3LTU1LjUtMTE4LjItMzEuNyIvPjxwYXRoIHRyYW5zZm9ybT0ibWF0cml4KC4xMzMzMyAwIDAgLS4xMzMzMyAwIDMyODIuMDUzKSIgc3R5bGU9ImZpbGw6IzJmMmQyZTtmaWxsLW9wYWNpdHk6MTtmaWxsLXJ1bGU6bm9uemVybztzdHJva2U6bm9uZSIgZD0ibTI1MjIzLjEgMjAzMy40IDcyMC41IDQxNS45YzQxLjIgMjMuOCA1NS40IDc3IDMxLjYgMTE4LjMtMjMuOCA0MS4yLTc2LjkgNTUuNC0xMTguMiAzMS42bC03MjAuNS00MTUuOWMtNDEuMi0yMy44LTU1LjQtNzctMzEuNi0xMTguMiAyMy44LTQxLjMgNzctNTUuNSAxMTguMi0zMS43bTE4MzAuMSA3YzAtMTM2LjQtMTEwLjYtMjQ3LTI0Ny4xLTI0Ny0xMzYuNCAwLTI0NyAxMTAuNi0yNDcgMjQ3IDAgMTM2LjUgMTEwLjYgMjQ3LjEgMjQ3IDI0Ny4xIDEzNi41IDAgMjQ3LjEtMTEwLjYgMjQ3LjEtMjQ3LjEiLz48cGF0aCB0cmFuc2Zvcm09Im1hdHJpeCguMTMzMzMgMCAwIC0uMTMzMzMgMCAzMjgyLjA1MykiIHN0eWxlPSJmaWxsOiM1ODU5NWI7ZmlsbC1vcGFjaXR5OjE7ZmlsbC1ydWxlOm5vbnplcm87c3Ryb2tlOm5vbmUiIGQ9Ik0yNjk0NS44IDIwNDAuNGMwLTc3LjEtNjIuNS0xMzkuNy0xMzkuNy0xMzkuNy03Ny4xIDAtMTM5LjcgNjIuNi0xMzkuNyAxMzkuNyAwIDc3LjIgNjIuNiAxMzkuNyAxMzkuNyAxMzkuNyA3Ny4yIDAgMTM5LjctNjIuNSAxMzkuNy0xMzkuNyIvPjxwYXRoIHRyYW5zZm9ybT0ibWF0cml4KC4xMzMzMyAwIDAgLS4xMzMzMyAwIDMyODIuMDUzKSIgc3R5bGU9ImZpbGw6IzJmMmQyZTtmaWxsLW9wYWNpdHk6MTtmaWxsLXJ1bGU6bm9uemVybztzdHJva2U6bm9uZSIgZD0iTTI1MzY4IDIwNDAuNGMwLTEzNi40LTExMC42LTI0Ny0yNDctMjQ3LTEzNi41IDAtMjQ3LjEgMTEwLjYtMjQ3LjEgMjQ3IDAgMTM2LjUgMTEwLjYgMjQ3LjEgMjQ3LjEgMjQ3LjEgMTM2LjQgMCAyNDctMTEwLjYgMjQ3LTI0Ny4xIi8+PHBhdGggdHJhbnNmb3JtPSJtYXRyaXgoLjEzMzMzIDAgMCAtLjEzMzMzIDAgMzI4Mi4wNTMpIiBzdHlsZT0iZmlsbDojNTg1OTViO2ZpbGwtb3BhY2l0eToxO2ZpbGwtcnVsZTpub256ZXJvO3N0cm9rZTpub25lIiBkPSJNMjUyNjAuNyAyMDQwLjRjMC03Ny4xLTYyLjYtMTM5LjctMTM5LjctMTM5LjctNzcuMiAwLTEzOS43IDYyLjYtMTM5LjcgMTM5LjcgMCA3Ny4yIDYyLjUgMTM5LjcgMTM5LjcgMTM5LjcgNzcuMSAwIDEzOS43LTYyLjUgMTM5LjctMTM5LjciLz48cGF0aCB0cmFuc2Zvcm09Im1hdHJpeCguMTMzMzMgMCAwIC0uMTMzMzMgMCAzMjgyLjA1MykiIHN0eWxlPSJmaWxsOiMzNTg3YWE7ZmlsbC1vcGFjaXR5OjE7ZmlsbC1ydWxlOm5vbnplcm87c3Ryb2tlOm5vbmUiIGQ9Ik0yNzY1Mi45IDY4OTUuN2MtNjcuNC0yMDEuNS0yMzEuMy04MDMuMy03LjItMTM1MS4xIDE0LjMtMzQuOS0xMS41LTczLjItNDkuMi03My4yaC02MDkuNGMtMTguNiAwLTM1LjkgOS42LTQ1LjUgMjUuNS01NCA5MC4zLTE5OS4zIDQ0My40IDguOSAxNDI2LjcgNS4yIDI0LjUgMjYuOSA0Mi4yIDUyIDQyLjJoNjAwYzM2LjMgMCA2MS45LTM1LjYgNTAuNC03MC4xIi8+PHBhdGggdHJhbnNmb3JtPSJtYXRyaXgoLjEzMzMzIDAgMCAtLjEzMzMzIDAgMzI4Mi4wNTMpIiBzdHlsZT0iZmlsbDojNDJhMGQwO2ZpbGwtb3BhY2l0eToxO2ZpbGwtcnVsZTpub256ZXJvO3N0cm9rZTpub25lIiBkPSJNMjc1MjUuNCA2ODg0LjNjLTY4LjktMjEwLjQtMjIxLTc5Mi43LTguNS0xMzI3LjIgMTYuMy00MS4xLTEzLjUtODUuNy01Ny43LTg1LjdoLTU5MC42Yy0yMi4yIDAtNDIuOCAxMS43LTUzLjggMzAuOS01Ni4xIDk4LjEtMTkxLjYgNDU0LjcgMTAuNSAxNDE0IDYgMjguOCAzMS41IDQ5LjUgNjAuOSA0OS41aDU4MGM0Mi4zIDAgNzIuMy00MS4zIDU5LjItODEuNSIvPjxwYXRoIHRyYW5zZm9ybT0ibWF0cml4KC4xMzMzMyAwIDAgLS4xMzMzMyAwIDMyODIuMDUzKSIgc3R5bGU9ImZpbGw6Izk3NjIxZDtmaWxsLW9wYWNpdHk6MTtmaWxsLXJ1bGU6bm9uemVybztzdHJva2U6bm9uZSIgZD0iTTI0ODg3IDU4ODcuMWgtOTc0OC45djE2OS44SDI0ODg3di0xNjkuOCIvPjxwYXRoIHRyYW5zZm9ybT0ibWF0cml4KC4xMzMzMyAwIDAgLS4xMzMzMyAwIDMyODIuMDUzKSIgc3R5bGU9ImZpbGw6Izc3NGMxNjtmaWxsLW9wYWNpdHk6MTtmaWxsLXJ1bGU6bm9uemVybztzdHJva2U6bm9uZSIgZD0iTTI0ODg3IDU4ODcuMWgtOTc0OC45djg0LjlIMjQ4ODd2LTg0LjkiLz48cGF0aCB0cmFuc2Zvcm09Im1hdHJpeCguMTMzMzMgMCAwIC0uMTMzMzMgMCAzMjgyLjA1MykiIHN0eWxlPSJmaWxsOiM4MjUxMWM7ZmlsbC1vcGFjaXR5OjE7ZmlsbC1ydWxlOm5vbnplcm87c3Ryb2tlOm5vbmUiIGQ9Ik0xNjE5NC4xIDE4MDQuNGgtMTM0Ljh2NDA4Mi43aDEzNC44VjE4MDQuNG03NjcyLjEgMGgtMTM0Ljl2NDA4Mi43aDEzNC45VjE4MDQuNCIvPjxwYXRoIHRyYW5zZm9ybT0ibWF0cml4KC4xMzMzMyAwIDAgLS4xMzMzMyAwIDMyODIuMDUzKSIgc3R5bGU9ImZpbGw6Izc0YzkzZjtmaWxsLW9wYWNpdHk6MTtmaWxsLXJ1bGU6bm9uemVybztzdHJva2U6bm9uZSIgZD0iTTM2NTY4LjEgNTE5OC44Yy0xLjctOTQuMi0xOTIuNi0xMDYzLjktMTg1My4zLTE2OTYuNSAwIDAgMjE4LjEgMzc1IDgyNC4zIDgwMi41IDU5Mi42IDQxNy42IDk4MC44IDc2OC43IDEwMjIuNiA4ODYuMiAxIDIuNyAxLjcgNS4zIDIuMyA3LjggMi40IDEwLjEgNC4zIDkuNyA0LjEgME0zNDc2Ny45IDMzNzlsLS4yLjFjLTE2LjEgNy43LTEwNDkuOCA1MDMtMTI1MS40IDcxOS40LTIxMC4xIDIyNS42LTQwMC4zIDU3Ny4zLTU2My43IDgyNy04NC4yIDEyOC40LTE2MS4yIDIyOS44LTIzMC4zIDI3My4zLTMuOSAyLjUtNy45IDQuOC0xMS44IDYuOSA0MC41LTIxLjIgMTM0MC41LTcxMC41IDIwNTcuNC0xODI2LjdtMjA2My45IDI2NDAuNHMtMzAyLjQtMjMyLjItMzYyLTM0NC41Yy0xMTMuNC0yMTMuNy00OTQuMi00NjMuNy05MjguOS02NTguNS0yNjguOC0xMjAuNC00MDguNi0yMTgtODQ1LjktNzcxLjZsLjcgMS4yYzIwLjkgNDAuOSA0NzYuMyA5MTYuNyAxMDkzLjkgMTE5My40IDYzMi4zIDI4My41IDU0NS4xIDQ2Mi4zIDY4OC45IDUzMiAxNDQgNjkuOSAzNTMuMyA0OCAzNTMuMyA0OG0tMjA5MC0xOTk4LjhjLTI1Ny40IDM3MC43LTgwNi44IDY1NC4xLTk1OS41IDc1MC0xNTIuNiA5Ni0zNDguOSAzMzEuNS01MTQuNiA2MDYuMi0xNjUuOCAyNzQuOC03NDUuOCAzODMuOC03NDUuOCAzODMuOCA1NDUuMiAxMzkuNSA5OTguNy0xNTIuNiAxMTA3LjgtMzI3IDEwOS0xNzQuNCAzMjIuNy00MDUuNiA2MzIuMy02MzIuNCAzMDkuNi0yMjYuOCA0NzkuOC03ODAuNiA0NzkuOC03ODAuNm0yMDM3LjUgMzI4MS4xYy0xMy4xLTI5Ni42LTI5Mi4xLTk1NS4xLTg3Mi4xLTEyMjkuOC01NzEtMjcwLjQtMTE0MS45LTgyOC4zLTExNTkuNy04NDUuNWwuNS42YzYuMiA3LjIgMTIuNCAxNS40IDE4LjggMjQuNSAxMjUuNiAxNzggMzE0IDY5MC41IDEwMDkuNSAxMDM0LjEgNzMyLjcgMzYyIDEwMDMgMTAxNi4xIDEwMDMgMTAxNi4xTTMyNTE4LjQgNjg0N2MtMTQuOCAxLjctMjIuNiAyLjItMjIuNiAyLjJzNy4xLjcgMjIuNi0yLjJtMjI0OS41LTE4MjAuOHMtMjQ0LjEtMTMwLjItMTEyNy40IDg2Ni43Yy01OTEuOSA2NjguMy05MDggODY5LjktMTA0OS44IDkzMC41bC0xLjEuNWMtMzIuNSAxMy44LTU1LjYgMjAuMS03MC44IDIzLjEgMTQyLjktMTYgOTE2LjMtMTMwLjYgMTMwNy4xLTc3NC4xIDQzMS40LTcxMC4xIDc4MC05NTAuMyA5NDEuNi0xMDQ2LjVsLjQtLjJtMTYyMi4zIDI2MTQuNS0uMS0uNS0uNy0xLjNjLTE3LjItMzkuMi0yOTktNjcwLjktNTM5LjgtOTc5LjMtMjQ2LjUtMzE2LTEwMjkuOS03NzcuNi0xMDQyLjItNzg0LjggNSA5LjIgMzA0LjUgNTQ3LjQgNzI4LjIgODMyLjggNDI0LjEgMjg1LjYgODQ4LjEgOTIzLjEgODU0LjYgOTMzLjFtLTE1NjAuOS0xODU3LjEtLjUuMWMtMjMuNiA0LTc4NC41IDEzNi42LTEzMzguMyA4OTIuMi01NjIuNyA3NjcuNS0yODcuOSA4MjguNi03NDUuOCAxMjk5LjZsLjQtLjJjMTcuMy05LjkgNTcyLjktMzMyLjIgOTc2LjQtMTIxMi4yIDAgMCAyODgtNTU5LjEgMTEwNy44LTk3OS41bTgwMi42IDE0ODAuNmMtMTg1LjUtMTg3LjUtNjc4LjktNjc3LjQtNzYyLTc1OS45di0uMWwtLjUtLjNjLTcuNS03LjYtMTEuNS0xMS41LTExLjUtMTEuNXMuNCAzLjUgMS41IDEwLjJjMTIuNyA4Mi40IDExNS45IDY0Ni42IDU5NiAxMDAzLjcgNTEwLjkgMzgwIDcyMS43IDk5NC4zIDcyOC4zIDEwMTMuNGwuMS41YzEzLTUxNC42LTM0OS0xMDUwLjktNTUxLjktMTI1Nm0tNzYyLjQtODYzLjMtMSAuNGMtMzEgMTMtNjk1LjQgMjk3LjYtMTAwNi4zIDkwNi42LTMxOC4yIDYyMy4zLTQyNy4yIDkxOS44LTYxMC4yIDEwNjguMmguMWMxOC4yLTEwLjYgNjAyLjEtMzU2LjUgOTE5LjctMTEzMy42IDAgMCAxMzQuOS0yODcuMiA2OTYtODM5LjlsMS43LTEuN20yOC43IDcxMy40Yy00OS4yIDQzLTQzNS42IDM5Mi42LTY5Mi41IDk2My41LTI3NC40IDYwOS44LTM2Ni4xIDgxNS4xLTQ3NSA4NTguOSAzLjQtLjYgMjgtNi4xIDY3LTIxLjEgMS4yLS41IDIuNS0xIDMuNy0xLjYgMTUyLjQtNTkuOCA1MTIuNi0yNjMuNCA3MDUuMi04ODguNSAxNzYuMy01NzIuMiAzMDIuMS03OTMuNCAzNjAuNC04NzMuNiAxNS0yMC43IDI1LjQtMzIgMzEuMi0zNy42bTQuOS00LjN2LS4xbC0uMS4xaC4xbTY5NC4xIDE5NDYuOC43LTEuNmMtLjUgMS0uNyAxLjYtLjcgMS42bS0yMDIuOC0xMDY0LjFjLTQyOS4zLTU2Ni44LTQ5OS41LTY2Mi4yLTUwMS41LTY2NXYuM2MzLjEgMTEuOCAxMDQuMiAzOTYuNyAzNTcuNSA4MjEuNyAyNDYuMyA0MTMuMiAzNzIuNyA3OTguNSAzNTAuNyA4OTUuOGwtLjggMi42Yy0uNyAyLjctMS41IDUtMi40IDcuMSAxMy43LTMwLjEgMjE4LjUtNTA1LjYtMjAzLjUtMTA2Mi41Ii8+PHBhdGggdHJhbnNmb3JtPSJtYXRyaXgoLjEzMzMzIDAgMCAtLjEzMzMzIDAgMzI4Mi4wNTMpIiBzdHlsZT0iZmlsbDojOGU1MzFkO2ZpbGwtb3BhY2l0eToxO2ZpbGwtcnVsZTpub256ZXJvO3N0cm9rZTpub25lIiBkPSJNMzQ4NTQuNiAyNjA0LjVjLTcuNCAxMS4xLTkuOCAxNy0xNC4xIDI0LjgtNC4yIDcuNy02LjkgMTQuNS0xMC4xIDIxLjdsLTkuMyAyMS4zYy0yLjcgNy4xLTUuMSAxNC4xLTcuNyAyMS4xLTQuOCAxNC4xLTEwLjUgMjguMi0xNC42IDQyLjJsLTEyLjQgNDIuMi02LjIgMjFjLTIgNy4xLTMuNSAxNC4xLTUuMiAyMS4xbC0xMCA0Mi4yYy0zLjIgMTQuMS03IDI4LjItOS42IDQyLjNsLTcuOSA0Mi4zLTcuOSA0Mi4zYy0yLjYgMTQuMS01LjQgMjguMi03LjEgNDIuM2wtMTIuMSA4NC44LTYgNDIuMy00LjMgNDIuNC04LjcgODQuOS00LjMgNDIuMy0yLjkgNDIuNS01LjcgODQuOGMtMS43IDI4LjMtNCA1Ni42LTUuNCA4NC44bC0yLjkgODQuOS0yLjkgODQuOGMtLjkgMjguMi0yLjMgNTYuNS0yLjEgODQuN2wtLjggMTY5LjVjLjQgNDUxLjggMjkuNSA5MDIgNzAuMiAxMzUwLjYgMTkgMjI0LjYgNDIuNyA0NDcuOSA2Mi44IDY3MiAyMC40IDIyNCA0MC4zIDQ0OCA1Ni4xIDY3Mi4yIDMuNyA1Ni4xIDguNSAxMTIuMSAxMS40IDE2OC4ybDkuMiAxNjguM2M0IDExMi4yIDguNiAyMjQuNiAzLjggMzM2LjYtLjQgMjguMS0yLjkgNTUuOS01LjIgODMuOS0xLjYgMjgtNi4yIDU1LjYtOS43IDgzLjQtNC4xIDI3LjctOS4zIDU1LjMtMTQuNSA4Mi45LTUuNCAyNy42LTEwLjcgNTUuMi0xNS41IDgzLTIwLjEgMTEwLjktMjguOSAyMjMuMy0zNS43IDMzNS41IDkuMS0xMTIuMSAyMC4yLTIyNC4xIDQyLjUtMzM0LjIgNS40LTI3LjYgMTEuMy01NS4xIDE3LjItODIuNiA1LjctMjcuNSAxMS41LTU1LjIgMTYuMy04MyA0LjEtMjcuOSA5LjMtNTUuNyAxMS41LTgzLjggMi44LTI4LjEgNi01Ni4yIDYuOS04NC40IDcuMi0xMTIuNyA0LjgtMjI1LjQgMy4xLTMzOGwtNS43LTE2OC44Yy0xLjgtNTYuMy01LjQtMTEyLjUtOC0xNjguNy0xMS4yLTIyNC44LTI2LjUtNDQ5LjQtNDIuMi02NzMuOS0xNS42LTIyNC40LTM0LjctNDQ4LjktNDktNjczLTMxLjUtNDQ4LjEtNTEuMi04OTcuNC00Mi40LTEzNDUuNGw0LjMtMTY3LjljLjMtMjggMi4zLTU1LjkgMy44LTgzLjhsNC42LTgzLjggNC42LTgzLjdjMS45LTI3LjkgNC43LTU1LjYgNy04My40bDcuMi04My40IDMuNy00MS43IDUuMS00MS40IDEwLjItODIuOCA1LjEtNDEuNCA2LjctNDEuMSAxMy40LTgyYzItMTMuOCA0LjktMjcuMiA3LjctNDAuN2w4LjUtNDAuNSA4LjQtNDAuNGMyLjctMTMuNSA2LjYtMjYuNiA5LjktMzkuOGwxMC4yLTM5LjdjMS44LTYuNiAzLjMtMTMuMyA1LjMtMTkuOGw2LjEtMTkuMyAxMi4yLTM4LjVjNC0xMi45IDkuMi0yNC44IDEzLjgtMzcuMiAyLjQtNi4xIDQuNi0xMi40IDcuMS0xOC40bDcuOS0xNy4yYzIuNy01LjYgNS4yLTExLjggOC0xNi40IDIuNS00LjUgNi4yLTExLjMgNi42LTExLjkgMTkuOS0yMy40IDE3LTU4LjQtNi40LTc4LjMtMjMuNC0xOS44LTU4LjQtMTctNzguMyA2LjQtMS40IDEuNi0yLjYgMy4yLTMuNyA0LjlsLTEuOSAyLjkiLz48cGF0aCB0cmFuc2Zvcm09Im1hdHJpeCguMTMzMzMgMCAwIC0uMTMzMzMgMCAzMjgyLjA1MykiIHN0eWxlPSJmaWxsOiM3NGM5M2Y7ZmlsbC1vcGFjaXR5OjE7ZmlsbC1ydWxlOm5vbnplcm87c3Ryb2tlOm5vbmUiIGQ9Ik0zNDkwNy41IDg0MTQuOGMtNzQuNS01ODAuNC0zOC44LTg0NS41LTM1LjItODcwLjNsLjMtMS45cy0yMTMuNiAzMDkuNi0xOTYuMiAxMDI5LjJjMTUgNjE3LjQtODIuNCA4MzYuNy0xMTAuMyA4ODYuNi0uOSAxLjQtMS43IDIuNi0yLjMgMy44LS42IDEuMS0xLjEgMS45LTEuNyAyLjctMSAxLjgtMS45IDMuMS0yLjUgNGwtLjYuOWMxNC45LTE1LjUgNDI1LjctNDU1LjQgMzQ4LjUtMTA1NSIvPjxwYXRoIHRyYW5zZm9ybT0ibWF0cml4KC4xMzMzMyAwIDAgLS4xMzMzMyAwIDMyODIuMDUzKSIgc3R5bGU9ImZpbGw6I2Q5ZDVkNDtmaWxsLW9wYWNpdHk6MTtmaWxsLXJ1bGU6bm9uemVybztzdHJva2U6bm9uZSIgZD0iTTM2NTYxLjcgNTE5MWMuOCAyLjUgMS41IDUuMiAyLjMgNy44LS42LTIuNS0xLjMtNS4xLTIuMy03LjgiLz48cGF0aCB0cmFuc2Zvcm09Im1hdHJpeCguMTMzMzMgMCAwIC0uMTMzMzMgMCAzMjgyLjA1MykiIHN0eWxlPSJmaWxsOiM2OGFlM2U7ZmlsbC1vcGFjaXR5OjE7ZmlsbC1ydWxlOm5vbnplcm87c3Ryb2tlOm5vbmUiIGQ9Ik0zNDc3Ni4yIDM1MjYuMWMtLjMgNC40LS43IDguNy0xIDEzLjEgMjk3IDE4My44IDE1OTYuNSAxMDE3LjggMTc4Ni41IDE2NTEuOCAxIDIuNyAxLjcgNS4zIDIuMyA3LjhoNC4xYy0xLjctOTMuMS0xODcuOS0xMDM5LjktMTc5MS45LTE2NzIuNyIvPjxwYXRoIHRyYW5zZm9ybT0ibWF0cml4KC4xMzMzMyAwIDAgLS4xMzMzMyAwIDMyODIuMDUzKSIgc3R5bGU9ImZpbGw6IzdjNGIxZjtmaWxsLW9wYWNpdHk6MTtmaWxsLXJ1bGU6bm9uemVybztzdHJva2U6bm9uZSIgZD0iTTM0NzE0LjggMzUwMi4zczIxLjcgMTIuOSA2MC40IDM2LjljLjMtNC40LjctOC43IDEtMTMuMS0yMC4yLTgtNDAuNy0xNS45LTYxLjQtMjMuOCIvPjxwYXRoIHRyYW5zZm9ybT0ibWF0cml4KC4xMzMzMyAwIDAgLS4xMzMzMyAwIDMyODIuMDUzKSIgc3R5bGU9ImZpbGw6IzY4YWUzZTtmaWxsLW9wYWNpdHk6MTtmaWxsLXJ1bGU6bm9uemVybztzdHJva2U6bm9uZSIgZD0iTTM0NjkxLjEgMzQxNi4zYy0yNDUuNCAxMjAuMS0xMDA1LjEgNTAwLTExNzQuOCA2ODIuMi0yMTAuMSAyMjUuNi00MDAuMyA1NzcuMy01NjMuNyA4MjcgNjk5LjYtNzg4LjcgMTQ5MS0xMzM1LjIgMTczNy43LTE0OTYuOGwuOC0xMi40Ii8+PHBhdGggdHJhbnNmb3JtPSJtYXRyaXgoLjEzMzMzIDAgMCAtLjEzMzMzIDAgMzI4Mi4wNTMpIiBzdHlsZT0iZmlsbDojN2M0YjFmO2ZpbGwtb3BhY2l0eToxO2ZpbGwtcnVsZTpub256ZXJvO3N0cm9rZTpub25lIiBkPSJNMzQ3NjcuNyAzMzc5LjFjLTIuNSAxLjItMzAuNSAxNC42LTc2LjYgMzcuMmwtLjggMTIuNGM0Ny40LTMxLjEgNzQuOC00OCA3Ny40LTQ5LjYiLz48cGF0aCB0cmFuc2Zvcm09Im1hdHJpeCguMTMzMzMgMCAwIC0uMTMzMzMgMCAzMjgyLjA1MykiIHN0eWxlPSJmaWxsOiNkOWQ1ZDQ7ZmlsbC1vcGFjaXR5OjE7ZmlsbC1ydWxlOm5vbnplcm87c3Ryb2tlOm5vbmUiIGQ9Ik0zNjgyOS45IDYwMTkuNmMtLjkuMS0yLjEuMi0zLjUuMyAxLjguNCAzLjYuOCA1LjMgMS4ybC0xLjgtMS41Ii8+PHBhdGggdHJhbnNmb3JtPSJtYXRyaXgoLjEzMzMzIDAgMCAtLjEzMzMzIDAgMzI4Mi4wNTMpIiBzdHlsZT0iZmlsbDojNjhhZTNlO2ZpbGwtb3BhY2l0eToxO2ZpbGwtcnVsZTpub256ZXJvO3N0cm9rZTpub25lIiBkPSJtMzQ3NTYuMiA0MzIzLjUuMyAxNy41YzE0NC41IDIxNC40IDUyMC40IDcyOC42IDg4NSA4NjQuNyA0NjQuMSAxNzMuNCA3NDYuMSA1MzUgNzY2IDU1NC45IDE5LjcgMTkuOCAyMDcuNCAyMTMuMSA0MTguOSAyNTkuMyAxLjQtLjEgMi42LS4yIDMuNS0uMy0yNS40LTE5LjYtMzAzLjMtMjM2LTM2MC4yLTM0My4xLTExMy40LTIxMy43LTQ5NC4yLTQ2My43LTkyOC45LTY1OC41LTI1NS44LTExNC41LTM5NC44LTIwOC41LTc4NC42LTY5NC41Ii8+PHBhdGggdHJhbnNmb3JtPSJtYXRyaXgoLjEzMzMzIDAgMCAtLjEzMzMzIDAgMzI4Mi4wNTMpIiBzdHlsZT0iZmlsbDojN2M0YjFmO2ZpbGwtb3BhY2l0eToxO2ZpbGwtcnVsZTpub256ZXJvO3N0cm9rZTpub25lIiBkPSJtMzQ2OTQuOSA0MjQ2LjQuNiAxLjJjNC41IDcuMSAyNS45IDQxLjUgNjEgOTMuNGwtLjMtMTcuNWMtMTkuOC0yNC43LTQwLjItNTAuNC02MS4zLTc3LjEiLz48cGF0aCB0cmFuc2Zvcm09Im1hdHJpeCguMTMzMzMgMCAwIC0uMTMzMzMgMCAzMjgyLjA1MykiIHN0eWxlPSJmaWxsOiM2OGFlM2U7ZmlsbC1vcGFjaXR5OjE7ZmlsbC1ydWxlOm5vbnplcm87c3Ryb2tlOm5vbmUiIGQ9Ik0zNDY3NS41IDQxMDdjLTI3NS42IDMyOC03NTIuNiA1NzUuMy04OTMuMiA2NjMuNi0xNTIuNiA5Ni0zNDguOSAzMzEuNS01MTQuNiA2MDYuMi0xNjUuOCAyNzQuOC03NDUuOCAzODMuOC03NDUuOCAzODMuOHM1OTAuOS0xNy4xIDcxMy40LTIyNWMxMjIuNC0yMDcuOSA0OTUuNC01OTUuMSA3ODUuOS03MjguOSAyMzIuOC0xMDcuMyA1MjIuMy00ODUuNCA2NTQuNS02ODEuMS0uMS02LjItLjEtMTIuNC0uMi0xOC42Ii8+PHBhdGggdHJhbnNmb3JtPSJtYXRyaXgoLjEzMzMzIDAgMCAtLjEzMzMzIDAgMzI4Mi4wNTMpIiBzdHlsZT0iZmlsbDojN2M0YjFmO2ZpbGwtb3BhY2l0eToxO2ZpbGwtcnVsZTpub256ZXJvO3N0cm9rZTpub25lIiBkPSJNMzQ3NDEuOCA0MDIwLjZjLTIwLjQgMjkuNC00Mi42IDU4LjItNjYuMyA4Ni40LjEgNi4yLjEgMTIuNC4yIDE4LjYgMzIuOC00OC41IDU1LjktODUuOCA2Ni4xLTEwNSIvPjxwYXRoIHRyYW5zZm9ybT0ibWF0cml4KC4xMzMzMyAwIDAgLS4xMzMzMyAwIDMyODIuMDUzKSIgc3R5bGU9ImZpbGw6IzY4YWUzZTtmaWxsLW9wYWNpdHk6MTtmaWxsLXJ1bGU6bm9uemVybztzdHJva2U6bm9uZSIgZD0iTTM0Nzk3LjMgNTI3My44Yy40IDUuOS45IDExLjkgMS4zIDE3LjkgMTQ1LjUgMTgxLjUgNTc3LjIgNjg3IDk5MSA4NTMuMyA1MDcuNiAyMDQuMSA5NjguOCA4OTIuNSA5ODkuNyAxMTU2LjctMTMuMS0yOTYuNi0yOTIuMS05NTUuMS04NzIuMS0xMjI5LjgtNDc4LjUtMjI2LjYtOTU3LTY1NS4xLTExMDkuOS03OTguMSIvPjxwYXRoIHRyYW5zZm9ybT0ibWF0cml4KC4xMzMzMyAwIDAgLS4xMzMzMyAwIDMyODIuMDUzKSIgc3R5bGU9ImZpbGw6IzdjNGIxZjtmaWxsLW9wYWNpdHk6MTtmaWxsLXJ1bGU6bm9uemVybztzdHJva2U6bm9uZSIgZD0ibTM0NzQ3LjUgNTIyNi40LjUuNmMyLjIgMyA4LjYgMTEuNCAxOC44IDI0LjUgOC4yIDEwLjUgMTguOSAyNC4xIDMxLjggNDAuMi0uNC02LS45LTEyLTEuMy0xNy45LTI5LjUtMjcuNy00Ni45LTQ0LjYtNDkuOC00Ny40Ii8+PHBhdGggdHJhbnNmb3JtPSJtYXRyaXgoLjEzMzMzIDAgMCAtLjEzMzMzIDAgMzI4Mi4wNTMpIiBzdHlsZT0iZmlsbDojNjhhZTNlO2ZpbGwtb3BhY2l0eToxO2ZpbGwtcnVsZTpub256ZXJvO3N0cm9rZTpub25lIiBkPSJNMzQ4NDIuNiA1ODk1LjhjLjQgNS41LjggMTAuOSAxLjIgMTYuNCAxMDQuNiAxMDYuNiA0MTAgNDE0LjEgNjE2LjQgNTgwLjIgMjUyIDIwMi41IDc1Mi43IDc3MC4yIDkyOS4yIDExNDYuNS0xNy4yLTM5LjItMjk5LTY3MC45LTUzOS44LTk3OS4zLTIxNy0yNzguMi04NTAuMi02NjkuMy0xMDA3LTc2My44Ii8+PHBhdGggdHJhbnNmb3JtPSJtYXRyaXgoLjEzMzMzIDAgMCAtLjEzMzMzIDAgMzI4Mi4wNTMpIiBzdHlsZT0iZmlsbDojN2M0YjFmO2ZpbGwtb3BhY2l0eToxO2ZpbGwtcnVsZTpub256ZXJvO3N0cm9rZTpub25lIiBkPSJNMzQ4MDcuNCA1ODc0LjhjMS41IDEuNiAxNC42IDE1LjEgMzYuNCAzNy40LS40LTUuNS0uOC0xMC45LTEuMi0xNi40LTIxLjMtMTIuOC0zMy44LTIwLjItMzUuMi0yMSIvPjxwYXRoIHRyYW5zZm9ybT0ibWF0cml4KC4xMzMzMyAwIDAgLS4xMzMzMyAwIDMyODIuMDUzKSIgc3R5bGU9ImZpbGw6IzY4YWUzZTtmaWxsLW9wYWNpdHk6MTtmaWxsLXJ1bGU6bm9uemVybztzdHJva2U6bm9uZSIgZD0iTTM0NzE5LjggNTAyMS4xYy0xMDYuNyA3LjgtNDA4LjkgMTE1LjEtMTA3OS4zIDg3MS44LTU5MS45IDY2OC4zLTkwOCA4NjkuOS0xMDQ5LjggOTMwLjUgNTcyLjktMjE5LjMgNzg2LjgtNDE5LjIgOTU2LjktNjUzLjcgNTk3LjItODIzLjYgMTAzNS42LTEwNjQuMSAxMTc0LjEtMTEyNS4xLS42LTcuOC0xLjItMTUuNi0xLjktMjMuNSIvPjxwYXRoIHRyYW5zZm9ybT0ibWF0cml4KC4xMzMzMyAwIDAgLS4xMzMzMyAwIDMyODIuMDUzKSIgc3R5bGU9ImZpbGw6IzdjNGIxZjtmaWxsLW9wYWNpdHk6MTtmaWxsLXJ1bGU6bm9uemVybztzdHJva2U6bm9uZSIgZD0iTTM0NzMzIDUwMjAuNmMtNCAwLTguNC4yLTEzLjIuNS43IDcuOSAxLjMgMTUuNyAxLjkgMjMuNSAyNy4xLTExLjkgNDIuNy0xNyA0NS44LTE4LjJsLjQtLjJzLTEwLjUtNS42LTM0LjktNS42Ii8+PHBhdGggdHJhbnNmb3JtPSJtYXRyaXgoLjEzMzMzIDAgMCAtLjEzMzMzIDAgMzI4Mi4wNTMpIiBzdHlsZT0iZmlsbDojNzRjOTNmO2ZpbGwtb3BhY2l0eToxO2ZpbGwtcnVsZTpub256ZXJvO3N0cm9rZTpub25lIiBkPSJtMzQ4NTkuNCA2NTAyLjYgMTAgMS4zYy03LjUtNy42LTExLjUtMTEuNS0xMS41LTExLjVzLjQgMy41IDEuNSAxMC4yIi8+PHBhdGggdHJhbnNmb3JtPSJtYXRyaXgoLjEzMzMzIDAgMCAtLjEzMzMzIDAgMzI4Mi4wNTMpIiBzdHlsZT0iZmlsbDojNjhhZTNlO2ZpbGwtb3BhY2l0eToxO2ZpbGwtcnVsZTpub256ZXJvO3N0cm9rZTpub25lIiBkPSJNMzQ4ODMuNyA2NTE4LjFjLjMgNC40LjUgOC44LjcgMTMuMiA2Ni4yIDEyMC4yIDM0NC41IDYwNC4yIDYzNi43IDc5Ni4zIDMzNC41IDIyMCA1ODMuNyA3NDcuNiA2NjIuNiAxMTkyLjFsLjEuNWMuMi05LjEuMy0xOC4xLjMtMjcuMi4xLTUwNi4xLTM1Mi45LTEwMjcuMy01NTIuMi0xMjI4LjgtMTc3LjEtMTc4LjktNjM0LjYtNjMzLjQtNzQ4LjItNzQ2LjEiLz48cGF0aCB0cmFuc2Zvcm09Im1hdHJpeCguMTMzMzMgMCAwIC0uMTMzMzMgMCAzMjgyLjA1MykiIHN0eWxlPSJmaWxsOiM3YzRiMWY7ZmlsbC1vcGFjaXR5OjE7ZmlsbC1ydWxlOm5vbnplcm87c3Ryb2tlOm5vbmUiIGQ9Ik0zNDg2OS45IDY1MDQuM2MxLjEgMi4xIDYuMSAxMS42IDE0LjUgMjctLjItNC40LS40LTguOC0uNy0xMy4ybC0xMy44LTEzLjgiLz48cGF0aCB0cmFuc2Zvcm09Im1hdHJpeCguMTMzMzMgMCAwIC0uMTMzMzMgMCAzMjgyLjA1MykiIHN0eWxlPSJmaWxsOiNkOWQ1ZDQ7ZmlsbC1vcGFjaXR5OjE7ZmlsbC1ydWxlOm5vbnplcm87c3Ryb2tlOm5vbmUiIGQ9Im0zNTYwMS4xIDkwNDUuNS0uOCAyLjZjLTEgMy0yLjEgNS45LTMuMSA4LjcgMCAwIC4yLS42LjctMS42LjEtLjIuMi0uNS4zLS44LjgtMS45IDEuNS00IDIuMS02LjNsLjgtMi42Ii8+PHBhdGggdHJhbnNmb3JtPSJtYXRyaXgoLjEzMzMzIDAgMCAtLjEzMzMzIDAgMzI4Mi4wNTMpIiBzdHlsZT0iZmlsbDojNjhhZTNlO2ZpbGwtb3BhY2l0eToxO2ZpbGwtcnVsZTpub256ZXJvO3N0cm9rZTpub25lIiBkPSJNMzU1OTcuOSA5MDU1LjJjLS41IDEtLjcgMS42LS43IDEuNmwuNy0xLjZtLTY5Ni41LTE3MTUuOWMwIDEuNy0uMSAzLjQtLjIgNSA0OC4yIDk0LjkgMjkzLjEgNTcwLjggNTAxLjkgODQ3LjggMjI3LjIgMzAxLjUgMjQ5LjMgNjk1LjIgMTk4IDg1My40bC0uOCAyLjZjLS42IDIuMy0xLjMgNC40LTIuMSA2LjMgOC4zLTE4LjQgNjEuNC0xNDQuMiA2MS4zLTMzNCAwLTE5Mi4yLTU0LjUtNDQ5LjgtMjY1LjEtNzI3LjctMzU1LjYtNDY5LjQtNDY0LjgtNjE1LjUtNDkzLTY1My40Ii8+PHBhdGggdHJhbnNmb3JtPSJtYXRyaXgoLjEzMzMzIDAgMCAtLjEzMzMzIDAgMzI4Mi4wNTMpIiBzdHlsZT0iZmlsbDojN2M0YjFmO2ZpbGwtb3BhY2l0eToxO2ZpbGwtcnVsZTpub256ZXJvO3N0cm9rZTpub25lIiBkPSJNMzQ4OTIuOSA3MzI3Ljd2LjNjLjcgMS40IDMuNiA3IDguMyAxNi4zLjEtMS42LjItMy4zLjItNS01LjgtNy45LTguMS0xMS4xLTguNS0xMS42Ii8+PHBhdGggdHJhbnNmb3JtPSJtYXRyaXgoLjEzMzMzIDAgMCAtLjEzMzMzIDAgMzI4Mi4wNTMpIiBzdHlsZT0iZmlsbDojZDlkNWQ0O2ZpbGwtb3BhY2l0eToxO2ZpbGwtcnVsZTpub256ZXJvO3N0cm9rZTpub25lIiBkPSJNMzQ1NjYuMSA5NDU4LjRjLS45IDEuNC0xLjcgMi42LTIuMyAzLjgtLjcgMS4xLTEuMiAxLjgtMS43IDIuNy0xLjEgMS43LTIgMy4xLTIuNSA0bC0uNi45LjYtLjljLjYtLjkgMS41LTIuMiAyLjUtNCAuNi0uOCAxLjEtMS42IDEuNy0yLjcuNi0xLjIgMS40LTIuNCAyLjMtMy44Ii8+PHBhdGggdHJhbnNmb3JtPSJtYXRyaXgoLjEzMzMzIDAgMCAtLjEzMzMzIDAgMzI4Mi4wNTMpIiBzdHlsZT0iZmlsbDojNjhhZTNlO2ZpbGwtb3BhY2l0eToxO2ZpbGwtcnVsZTpub256ZXJvO3N0cm9rZTpub25lIiBkPSJNMzQ4NzIuMyA3NTQ0LjVjLTExNS4yIDYzMS43LTUxLjUgODU0LjItMTQuNCAxMTI3LjIgMzMuOCAyNDguOS0yNDIuNCA3MDcuMi0yOTEuOCA3ODYuNy0uOSAxLjQtMS43IDIuNi0yLjMgMy44LS42IDEuMS0xLjEgMS45LTEuNyAyLjctMSAxLjgtMS45IDMuMS0yLjUgNGwtLjYuOWMxMy42LTE0LjIgMzU4LTM4Mi45IDM1OC4yLTkwNC4xIDAtNDktMy05OS40LTkuNy0xNTAuOS0zNy4xLTI4OS4xLTQ2LjktNDk5LjktNDYuOS02NDEuOCAwLTE0MyA5LjktMjE2IDExLjctMjI4LjVtLTgzLjEtMTc1Mi44Yy0xNjUuOCAzNy40LTgxMi4yIDIyMC40LTEyOTguNyA4ODQuMi01NjIuNyA3NjcuNS0yODcuOSA4MjguNi03NDUuOCAxMjk5LjZsLjQtLjJjMTUuMy0xMi4zIDQ2MS43LTM3Mi4xIDk2MS0xMzYwLjMgMCAwIDQwMy4zLTU5MSAxMDgzLjYtODE4LjctLjItMS42LS4zLTMuMS0uNS00LjYiLz48cGF0aCB0cmFuc2Zvcm09Im1hdHJpeCguMTMzMzMgMCAwIC0uMTMzMzMgMCAzMjgyLjA1MykiIHN0eWxlPSJmaWxsOiM3YzRiMWY7ZmlsbC1vcGFjaXR5OjE7ZmlsbC1ydWxlOm5vbnplcm87c3Ryb2tlOm5vbmUiIGQ9Ik0zNDgyOC44IDU3ODMuN2MtMi45LjUtMTYuNyAyLjgtMzkuNiA4IC4yIDEuNS4zIDMgLjUgNC42IDEyLjktNC40IDI1LjktOC42IDM5LjEtMTIuNiIvPjxwYXRoIHRyYW5zZm9ybT0ibWF0cml4KC4xMzMzMyAwIDAgLS4xMzMzMyAwIDMyODIuMDUzKSIgc3R5bGU9ImZpbGw6IzY4YWUzZTtmaWxsLW9wYWNpdHk6MTtmaWxsLXJ1bGU6bm9uemVybztzdHJva2U6bm9uZSIgZD0iTTM0ODQ0LjYgNjQxMS45Yy0xMjYuNiA1Ny43LTcwMC4xIDM0My4yLTk4Mi40IDg5Ni0zMTguMiA2MjMuMy00MjcuMiA5MTkuOC02MTAuMiAxMDY4LjJoLjFjMTUuNS0xMSA0NjQuNi0zMzIuNiA3NTQtMTAzMy44IDI1OS4zLTYyOCA3MjkuNC04NzguNCA4MzguNi05MjkuNS0uMS0uMy0uMS0uNi0uMS0uOSIvPjxwYXRoIHRyYW5zZm9ybT0ibWF0cml4KC4xMzMzMyAwIDAgLS4xMzMzMyAwIDMyODIuMDUzKSIgc3R5bGU9ImZpbGw6IzdjNGIxZjtmaWxsLW9wYWNpdHk6MTtmaWxsLXJ1bGU6bm9uemVybztzdHJva2U6bm9uZSIgZD0iTTM0ODY4LjUgNjQwMS4zYy0yLjggMS4yLTExLjEgNC43LTIzLjkgMTAuNiAwIC4zIDAgLjYuMS45IDE0LjktNi45IDIzLjEtMTAuMiAyMy4xLTEwLjJsLjctMS4zIi8+PHBhdGggdHJhbnNmb3JtPSJtYXRyaXgoLjEzMzMzIDAgMCAtLjEzMzMzIDAgMzI4Mi4wNTMpIiBzdHlsZT0iZmlsbDojZDlkNWQ0O2ZpbGwtb3BhY2l0eToxO2ZpbGwtcnVsZTpub256ZXJvO3N0cm9rZTpub25lIiBkPSJNMzQ4ODguNCA3MTIzLjFjLTc3LjggNjkuOC00MzguNyA0MTIuNS02ODIuNyA5NTQuNy0yNzQuNCA2MDkuOC0zNjYuMSA4MTUuMS00NzUgODU4LjlsLS4zLjFzMjUuOC0zLjMgNjcuMy0yMS4yYy0zOSAxNS02My42IDIwLjUtNjcgMjEuMSAxMDguOS00My44IDIwMC42LTI0OS4xIDQ3NS04NTguOSAyNDQtNTQyLjIgNjA0LjktODg0LjkgNjgyLjctOTU0LjdtMCAxLjZjLTUuNiA2LjQtMTIuOCAxNS4yLTIxLjQgMjcuMiA4LjUtMTAuMyAxNS43LTE4LjcgMjEuNC0yNS4zdi0xLjkiLz48cGF0aCB0cmFuc2Zvcm09Im1hdHJpeCguMTMzMzMgMCAwIC0uMTMzMzMgMCAzMjgyLjA1MykiIHN0eWxlPSJmaWxsOiM2OGFlM2U7ZmlsbC1vcGFjaXR5OjE7ZmlsbC1ydWxlOm5vbnplcm87c3Ryb2tlOm5vbmUiIGQ9Ik0zNDg4OC40IDcxMjMuMWMtNzcuOCA2OS44LTQzOC43IDQxMi41LTY4Mi43IDk1NC43LTI3NC40IDYwOS44LTM2Ni4xIDgxNS4xLTQ3NSA4NTguOSAzLjQtLjYgMjgtNi4xIDY3LTIxLjEgMS4yLS41IDIuNS0xIDMuNy0xLjYgMTExLjYtNDkuNSAzMjguNi0yMDIuNCA0NjIuNi02NjQuOCAxNTQuNC01MzIuNyA0OTEuNi05NjQuNiA2MDMtMTA5Ny4zIDguNi0xMiAxNS44LTIwLjggMjEuNC0yNy4ydi0xLjYiLz48cGF0aCB0cmFuc2Zvcm09Im1hdHJpeCguMTMzMzMgMCAwIC0uMTMzMzMgMCAzMjgyLjA1MykiIHN0eWxlPSJmaWxsOiM3YzRiMWY7ZmlsbC1vcGFjaXR5OjE7ZmlsbC1ydWxlOm5vbnplcm87c3Ryb2tlOm5vbmUiIGQ9Im0zNDkwMy4xIDcxMDkuOS0uMS4xLS4yLjEtLjQuMy0uMi4yLS41LjUtMSAuOS0xLjEgMS0xLjQgMS4zYy0yLjQgMi4yLTUuNyA1LjEtOS44IDguOHYzLjVjOC4zLTkuNSAxMy40LTE1LjIgMTQuNy0xNi42di0uMSIvPjxwYXRoIHRyYW5zZm9ybT0ibWF0cml4KC4xMzMzMyAwIDAgLS4xMzMzMyAwIDMyODIuMDUzKSIgc3R5bGU9ImZpbGw6I2Q1OGExODtmaWxsLW9wYWNpdHk6MTtmaWxsLXJ1bGU6bm9uemVybztzdHJva2U6bm9uZSIgZD0iTTM1NDQ5LjEgMTgxMC42aC0xMzQ4LjJjLTg0LjIgMC0xNTQuOCA2My4zLTE2My45IDE0N0wzMzgwNi42IDMxNTRjLTEwLjYgOTcuNSA2NS44IDE4Mi43IDE2My45IDE4Mi43aDE2MDljOTguMSAwIDE3NC41LTg1LjIgMTYzLjktMTgyLjdMMzU2MTMgMTk1Ny42Yy05LjEtODMuNy03OS43LTE0Ny0xNjMuOS0xNDciLz48cGF0aCB0cmFuc2Zvcm09Im1hdHJpeCguMTMzMzMgMCAwIC0uMTMzMzMgMCAzMjgyLjA1MykiIHN0eWxlPSJmaWxsOiNmOWE3MGQ7ZmlsbC1vcGFjaXR5OjE7ZmlsbC1ydWxlOm5vbnplcm87c3Ryb2tlOm5vbmUiIGQ9Ik0zNTgzNi4yIDI5MjYuOGgtMjEwMi40Yy01Ni4zIDAtMTAyIDQ1LjYtMTAyIDEwMnYyMDUuOWMwIDU2LjQgNDUuNyAxMDIgMTAyIDEwMmgyMTAyLjRjNTYuNCAwIDEwMi00NS42IDEwMi0xMDJ2LTIwNS45YzAtNTYuNC00NS42LTEwMi0xMDItMTAyIi8+PHBhdGggdHJhbnNmb3JtPSJtYXRyaXgoLjEzMzMzIDAgMCAtLjEzMzMzIDAgMzI4Mi4wNTMpIiBzdHlsZT0iZmlsbDojZTlkNWJhO2ZpbGwtb3BhY2l0eToxO2ZpbGwtcnVsZTpub256ZXJvO3N0cm9rZTpub25lIiBkPSJNMTk3MjIuOCA2OTM2LjFzMTQuNiAzNzMuMS04OC4xIDQzNi40Yy0yMDYuOCAxMjcuNC00MjQuNi03LjItMTk5LjUtNDM2LjRoMjg3LjYiLz48cGF0aCB0cmFuc2Zvcm09Im1hdHJpeCguMTMzMzMgMCAwIC0uMTMzMzMgMCAzMjgyLjA1MykiIHN0eWxlPSJmaWxsOiMxYTE4MTc7ZmlsbC1vcGFjaXR5OjE7ZmlsbC1ydWxlOm5vbnplcm87c3Ryb2tlOm5vbmUiIGQ9Im0xOTY1MS4zIDIyMjguNiA4MS4yLTM3NS41YzQuNy0yMS45LTEyLTQyLjUtMzQuMy00Mi41aC0xMDE2LjhjLTM3LjkgMC00OC45IDUxLjktMTQuMiA2Ny4xIDE2NC42IDcyLjMgNTY2LjYgMTk2LjEgNjUyLjkgMzM3LjcgNS44IDkuNSAxNS43IDE1LjcgMjYuOCAxNi43bDI2NyAyNC4xYzE3LjYgMS41IDMzLjYtMTAuMyAzNy40LTI3LjZtOTU1IDQxNS4yIDI1Mi42LTI4OS41YzE0LjctMTYuOSAxMC4xLTQzLTkuNS01My44bC04OTAuMS00OTEuNWMtMzMuMi0xOC4zLTY3LjkgMjEuOC00NC45IDUyIDEwOS4yIDE0Mi44IDQwMS4yIDQ0NS41IDQwOC40IDYxMS4yLjUgMTEuMSA2LjEgMjEuMyAxNS4zIDI3LjZsMjIyLjEgMTUwYzE0LjcgOS45IDM0LjQgNy40IDQ2LjEtNiIvPjxwYXRoIHRyYW5zZm9ybT0ibWF0cml4KC4xMzMzMyAwIDAgLS4xMzMzMyAwIDMyODIuMDUzKSIgc3R5bGU9ImZpbGw6IzFiMzM0ODtmaWxsLW9wYWNpdHk6MTtmaWxsLXJ1bGU6bm9uemVybztzdHJva2U6bm9uZSIgZD0iTTIyMzkxLjYgNTAzOHMzOS05NjAuNC0yMzM0LjktMTI0NGw2ODItMTIzNS42LTUyOS45LTIxNy41LTc1MS41IDE1ODYtNDYuMSAzMjguMSAyOTgwLjQgNzgzIi8+PHBhdGggdHJhbnNmb3JtPSJtYXRyaXgoLjEzMzMzIDAgMCAtLjEzMzMzIDAgMzI4Mi4wNTMpIiBzdHlsZT0iZmlsbDojMjM0NDY1O2ZpbGwtb3BhY2l0eToxO2ZpbGwtcnVsZTpub256ZXJvO3N0cm9rZTpub25lIiBkPSJNMjA5NzguOCA1MTY0LjggMTkzMTguMSA0Njg1Yy0xODUuOC01My42LTMwNS42LTIzMy43LTI4My4zLTQyNS44bDIzOC0yMDU0LjVzMjk1LjEtOTQuNiA0NTEuOSA0NC45bC0xNTYuOCAxODI4czI3MDguMS0zNDEuNiAyODMyLjMgOTg0LjZsLTE0MjEuNCAxMDIuNiIvPjxwYXRoIHRyYW5zZm9ybT0ibWF0cml4KC4xMzMzMyAwIDAgLS4xMzMzMyAwIDMyODIuMDUzKSIgc3R5bGU9ImZpbGw6I2U5ZDViYTtmaWxsLW9wYWNpdHk6MTtmaWxsLXJ1bGU6bm9uemVybztzdHJva2U6bm9uZSIgZD0iTTIwNzcyLjcgODgzNy44cy0xNDAuNC02MTYuNiAxNDkuNi04NDguNmMwIDAgODktMTUuMiAyMDAuMiAzNi43bDYyLjMtMjkzLjEgNDczLjEgMzYuNy0xMTYgOTUyLjMtMjI4LjkgMzIzLjZoLTM0OGwtMTkyLjMtMjA3LjYiLz48cGF0aCB0cmFuc2Zvcm09Im1hdHJpeCguMTMzMzMgMCAwIC0uMTMzMzMgMCAzMjgyLjA1MykiIHN0eWxlPSJmaWxsOiM3NzNkMTk7ZmlsbC1vcGFjaXR5OjE7ZmlsbC1ydWxlOm5vbnplcm87c3Ryb2tlOm5vbmUiIGQ9Ik0yMDc2My42IDg2OTcuNHMtMTQ2LjUgMTY0LjggMCAzMDIuMmMwIDAtMzMuNiAzMjAuNSA0OTcuNSAyMTkuOCAwIDAgMjYyLjUgMzYuNiAzNjAuMi0xNDYuNSAwIDAgMjgzLjktNDIxLjMgMC05NzkuOSAwIDAtNTE4LjktMTAwLjctNTcwLjggMzA4LjMgMCAwIDYuMSAyMjIuMy0xNDAuNCAyNTkuMiAwIDAtODIuNC0zMy4zLTE0Ni41IDM2LjkiLz48cGF0aCB0cmFuc2Zvcm09Im1hdHJpeCguMTMzMzMgMCAwIC0uMTMzMzMgMCAzMjgyLjA1MykiIHN0eWxlPSJmaWxsOiMyZjJkMmU7ZmlsbC1vcGFjaXR5OjE7ZmlsbC1ydWxlOm5vbnplcm87c3Ryb2tlOm5vbmUiIGQ9Ik0yMTc0Ni43IDM2MjMuM2MwLTczLjQtMTU0LjItMTcwLjktMzM4LjUtMTcwLjlzLTMyOC45IDk3LjUtMzI4LjkgMTcwLjkgMTQ0LjYgOTUgMzI4LjkgOTVjMTg0LjMgMCAzMzguNS0yMS42IDMzOC41LTk1Ii8+PHBhdGggdHJhbnNmb3JtPSJtYXRyaXgoLjEzMzMzIDAgMCAtLjEzMzMzIDAgMzI4Mi4wNTMpIiBzdHlsZT0iZmlsbDojNDJhMGQwO2ZpbGwtb3BhY2l0eToxO2ZpbGwtcnVsZTpub256ZXJvO3N0cm9rZTpub25lIiBkPSJNMjIxNDIuOSAzNzM2aC0xNDU5LjhjLTE0MS40IDAtMjU3LjIgMTE1LjctMjU3LjIgMjU3LjJzMTE1LjggMjU3LjIgMjU3LjIgMjU3LjJoMTQ1OS44YzE0MS41IDAgMjU3LjMtMTE1LjcgMjU3LjMtMjU3LjJzLTExNS44LTI1Ny4yLTI1Ny4zLTI1Ny4yIi8+PHBhdGggdHJhbnNmb3JtPSJtYXRyaXgoLjEzMzMzIDAgMCAtLjEzMzMzIDAgMzI4Mi4wNTMpIiBzdHlsZT0iZmlsbDojMmYyZDJlO2ZpbGwtb3BhY2l0eToxO2ZpbGwtcnVsZTpub256ZXJvO3N0cm9rZTpub25lIiBkPSJNMjIxNjUuNSAzNjIzLjNoLTE0NjYuNmMtMjcuNyAwLTUwLjQgMjIuNy01MC40IDUwLjR2MTEuOGMwIDI3LjggMjIuNyA1MC41IDUwLjQgNTAuNWgxNDY2LjZjMjcuNyAwIDUwLjQtMjIuNyA1MC40LTUwLjV2LTExLjhjMC0yNy43LTIyLjctNTAuNC01MC40LTUwLjRtLTc0OS4zLTEyMTUuNWMtNDUuOSAwLTgzLjUgMzcuNi04My41IDgzLjV2OTkyLjRjMCA0NS45IDM3LjYgODMuNSA4My41IDgzLjVzODMuNS0zNy42IDgzLjUtODMuNXYtOTkyLjRjMC00NS45LTM3LjYtODMuNS04My41LTgzLjUiLz48cGF0aCB0cmFuc2Zvcm09Im1hdHJpeCguMTMzMzMgMCAwIC0uMTMzMzMgMCAzMjgyLjA1MykiIHN0eWxlPSJmaWxsOiMyZjJkMmU7ZmlsbC1vcGFjaXR5OjE7ZmlsbC1ydWxlOm5vbnplcm87c3Ryb2tlOm5vbmUiIGQ9Im0yMjA2MC41IDIwMjguNC02NTMuNyAzNzcuNGMtMzcuNCAyMS42LTUwLjQgNjkuOC0yOC44IDEwNy4yIDIxLjYgMzcuNCA2OS45IDUwLjQgMTA3LjMgMjguOGw2NTMuNy0zNzcuNGMzNy40LTIxLjYgNTAuMy02OS45IDI4LjctMTA3LjMtMjEuNi0zNy40LTY5LjgtNTAuMy0xMDcuMi0yOC43Ii8+PHBhdGggdHJhbnNmb3JtPSJtYXRyaXgoLjEzMzMzIDAgMCAtLjEzMzMzIDAgMzI4Mi4wNTMpIiBzdHlsZT0iZmlsbDojMmYyZDJlO2ZpbGwtb3BhY2l0eToxO2ZpbGwtcnVsZTpub256ZXJvO3N0cm9rZTpub25lIiBkPSJtMjA3NzAuMSAyMDI4LjQgNjUzLjcgMzc3LjRjMzcuNCAyMS42IDUwLjQgNjkuOCAyOC44IDEwNy4yLTIxLjYgMzcuNC02OS45IDUwLjQtMTA3LjMgMjguOGwtNjUzLjctMzc3LjRjLTM3LjQtMjEuNi01MC4zLTY5LjktMjguNy0xMDcuMyAyMS42LTM3LjQgNjkuOC01MC4zIDEwNy4yLTI4LjdtMTY2MC41IDYuNGMwLTEyMy45LTEwMC40LTIyNC4yLTIyNC4yLTIyNC4yLTEyMy44IDAtMjI0LjEgMTAwLjMtMjI0LjEgMjI0LjIgMCAxMjMuOCAxMDAuMyAyMjQuMSAyMjQuMSAyMjQuMXMyMjQuMi0xMDAuMyAyMjQuMi0yMjQuMSIvPjxwYXRoIHRyYW5zZm9ybT0ibWF0cml4KC4xMzMzMyAwIDAgLS4xMzMzMyAwIDMyODIuMDUzKSIgc3R5bGU9ImZpbGw6IzU4NTk1YjtmaWxsLW9wYWNpdHk6MTtmaWxsLXJ1bGU6bm9uemVybztzdHJva2U6bm9uZSIgZD0iTTIyMzM4LjMgMjAyOS43YzAtNzAtNTYuOC0xMjYuOC0xMjYuOC0xMjYuOHMtMTI2LjggNTYuOC0xMjYuOCAxMjYuOCA1Ni44IDEyNi44IDEyNi44IDEyNi44IDEyNi44LTU2LjggMTI2LjgtMTI2LjgiLz48cGF0aCB0cmFuc2Zvcm09Im1hdHJpeCguMTMzMzMgMCAwIC0uMTMzMzMgMCAzMjgyLjA1MykiIHN0eWxlPSJmaWxsOiMyZjJkMmU7ZmlsbC1vcGFjaXR5OjE7ZmlsbC1ydWxlOm5vbnplcm87c3Ryb2tlOm5vbmUiIGQ9Ik0yMDkwOC4zIDIwMjguMWMwLTEyMy44LTEwMC40LTIyNC4yLTIyNC4yLTIyNC4yLTEyMy44IDAtMjI0LjIgMTAwLjQtMjI0LjIgMjI0LjIgMCAxMjMuOCAxMDAuNCAyMjQuMiAyMjQuMiAyMjQuMiAxMjMuOCAwIDIyNC4yLTEwMC40IDIyNC4yLTIyNC4yIi8+PHBhdGggdHJhbnNmb3JtPSJtYXRyaXgoLjEzMzMzIDAgMCAtLjEzMzMzIDAgMzI4Mi4wNTMpIiBzdHlsZT0iZmlsbDojNTg1OTViO2ZpbGwtb3BhY2l0eToxO2ZpbGwtcnVsZTpub256ZXJvO3N0cm9rZTpub25lIiBkPSJNMjA4MTAuOSAyMDI4LjFjMC03MC01Ni44LTEyNi44LTEyNi44LTEyNi44cy0xMjYuNyA1Ni44LTEyNi43IDEyNi44IDU2LjcgMTI2LjggMTI2LjcgMTI2LjggMTI2LjgtNTYuOCAxMjYuOC0xMjYuOCIvPjxwYXRoIHRyYW5zZm9ybT0ibWF0cml4KC4xMzMzMyAwIDAgLS4xMzMzMyAwIDMyODIuMDUzKSIgc3R5bGU9ImZpbGw6I2Y5YTcwZDtmaWxsLW9wYWNpdHk6MTtmaWxsLXJ1bGU6bm9uemVybztzdHJva2U6bm9uZSIgZD0ibTIxMDc2LjggNzcwNS44IDIxLjMgMTI1LjRzMzIzLjUgMTUwLjggNjY0LjggNzBsNTMuNC0xMjYuOXMxMDA3LTU5LjggNTc1LjMtMjczNi4zYzAgMC03ODUuNi00MjMuMS0xNTM2LjggMTEyLjIgMCAwLTE4OS45IDE5MjQuNy0yMjQuNSAyMzQzLjdsNDQ2LjUgMjExLjkiLz48cGF0aCB0cmFuc2Zvcm09Im1hdHJpeCguMTMzMzMgMCAwIC0uMTMzMzMgMCAzMjgyLjA1MykiIHN0eWxlPSJmaWxsOiNmOWE3MGQ7ZmlsbC1vcGFjaXR5OjE7ZmlsbC1ydWxlOm5vbnplcm87c3Ryb2tlOm5vbmUiIGQ9Ik0yMDYzMC4zIDc0OTMuOXMtODM1LjMtMTIxMi40LTY2NS44LTE1OTcuMWMwIDAgOTUuNC0xODIuNiAzMjEuNi03OC4zIDIyNi4xIDEwNC40IDg5OS4yIDExMjAuOCAzNDQuMiAxNjc1LjQiLz48cGF0aCB0cmFuc2Zvcm09Im1hdHJpeCguMTMzMzMgMCAwIC0uMTMzMzMgMCAzMjgyLjA1MykiIHN0eWxlPSJmaWxsOiM0MmEwZDA7ZmlsbC1vcGFjaXR5OjE7ZmlsbC1ydWxlOm5vbnplcm87c3Ryb2tlOm5vbmUiIGQ9Ik0yMjYyMi45IDU2OTEuMWgtMTE2MS40Yy0xMDUuNiAwLTE5MiA4Ni4zLTE5MiAxOTEuOXYxMTYxLjRjMCAxMDUuNiA4Ni40IDE5MS45IDE5MiAxOTEuOWgxMTYxLjRjMTA1LjYgMCAxOTEuOS04Ni4zIDE5MS45LTE5MS45VjU4ODNjMC0xMDUuNi04Ni4zLTE5MS45LTE5MS45LTE5MS45Ii8+PHBhdGggdHJhbnNmb3JtPSJtYXRyaXgoLjEzMzMzIDAgMCAtLjEzMzMzIDAgMzI4Mi4wNTMpIiBzdHlsZT0iZmlsbDojMzU4N2FhO2ZpbGwtb3BhY2l0eToxO2ZpbGwtcnVsZTpub256ZXJvO3N0cm9rZTpub25lIiBkPSJNMjI2ODYgNTY5MS4xaC0xMTYxLjRjLTEwNS42IDAtMTkxLjkgODYuMy0xOTEuOSAxOTEuOXYxMTYxLjRjMCAxMDUuNiA4Ni4zIDE5MS45IDE5MS45IDE5MS45SDIyNjg2YzEwNS42IDAgMTkyLTg2LjMgMTkyLTE5MS45VjU4ODNjMC0xMDUuNi04Ni40LTE5MS45LTE5Mi0xOTEuOSIvPjxwYXRoIHRyYW5zZm9ybT0ibWF0cml4KC4xMzMzMyAwIDAgLS4xMzMzMyAwIDMyODIuMDUzKSIgc3R5bGU9ImZpbGw6IzJmMmQyZTtmaWxsLW9wYWNpdHk6MTtmaWxsLXJ1bGU6bm9uemVybztzdHJva2U6bm9uZSIgZD0iTTIyNTA1LjEgNjQzMC41YzAtMTg3LjItMTUxLjctMzM5LTMzOC45LTMzOXMtMzM5IDE1MS44LTMzOSAzMzkgMTUxLjggMzM5IDMzOSAzMzkgMzM4LjktMTUxLjggMzM4LjktMzM5Ii8+PHBhdGggdHJhbnNmb3JtPSJtYXRyaXgoLjEzMzMzIDAgMCAtLjEzMzMzIDAgMzI4Mi4wNTMpIiBzdHlsZT0iZmlsbDojMmYyZDJlO2ZpbGwtb3BhY2l0eToxO2ZpbGwtcnVsZTpub256ZXJvO3N0cm9rZTpub25lIiBkPSJtMjE0MzcuMiAzNTc2LjktNDguNCA5Mi44IDI0LjItNDYuNC0yNC42IDQ2LjJjMS44LjkgMTgyLjIgMTAyLjQgMzYxLjEgNDkwIDE2Ni4yIDM2MC4zIDM2NC4zIDEwNDYuNyAzNjQuMyAyMjcxaDEwNC43YzAtNTUzLjgtMzkuOS0xMDQ3LjItMTE4LjYtMTQ2Ni42LTYzLjMtMzM3LjMtMTUxLjgtNjI4LjEtMjYzLTg2NC40LTE5My41LTQxMS4zLTM5MS4zLTUxOC4yLTM5OS43LTUyMi42Ii8+PHBhdGggdHJhbnNmb3JtPSJtYXRyaXgoLjEzMzMzIDAgMCAtLjEzMzMzIDAgMzI4Mi4wNTMpIiBzdHlsZT0iZmlsbDojZjlhNzBkO2ZpbGwtb3BhY2l0eToxO2ZpbGwtcnVsZTpub256ZXJvO3N0cm9rZTpub25lIiBkPSJtMjAwMTYuMyA1ODM2LTU4NC43IDExMTQuM3M5MS44IDE2Ny4zIDI1NC45IDEwMWw3MzkuNC03OTYuNy00MDkuNi00MTguNiIvPjxwYXRoIHRyYW5zZm9ybT0ibWF0cml4KC4xMzMzMyAwIDAgLS4xMzMzMyAwIDMyODIuMDUzKSIgc3R5bGU9ImZpbGw6I2ZkZTZiNTtmaWxsLW9wYWNpdHk6MTtmaWxsLXJ1bGU6bm9uemVybztzdHJva2U6bm9uZSIgZD0ibTE0MTY4LjcgNzY4OS44IDI0Mi42LTU4Mi40czMzMS4xLTMwMC44IDYwNi41LTUyMWMxNDYuNS0xMTcuMSAyNzcuMi0yMTEuNCAzMzQuMy0yMjUuNiAxNjQuMy00MS4xIDEwOTcuNiAzMjguNSAxMTk0LjYgMzc0LjQgOTcuMSA0NS44IDEzOC4yIDIuNyAzMDkuOSAwczQ0MC41IDMxOS45IDQ1NS41IDQwMi4xYzE0LjkgODIuMS01MDAuMyA3LjQtNTAwLjMgNy40czEwNC41IDE4Ni43IDQ0LjggMjM0LjhjLTU5LjggNDguMi0zMTMuNi0yNjQuNi00MjEuOS0zNTgtMTA4LjItOTMuMy05NDAuNy0xNzEuNy0xMDM0LjEtMTgyLjktMTYtMS45LTU3LjUgMjguOS0xMTUuMiA4MS4zLTI3Ni45IDI1MS42LTkyNy4yIDEwMDAuNy05MjcuMiAxMDAwLjdsLTE4OS41LTIzMC44Ii8+PHBhdGggdHJhbnNmb3JtPSJtYXRyaXgoLjEzMzMzIDAgMCAtLjEzMzMzIDAgMzI4Mi4wNTMpIiBzdHlsZT0iZmlsbDojYmIyNzIzO2ZpbGwtb3BhY2l0eToxO2ZpbGwtcnVsZTpub256ZXJvO3N0cm9rZTpub25lIiBkPSJtMTQxNjguNyA3Njg5LjggMjQyLjYtNTgyLjRzMzMxLjEtMzAwLjggNjA2LjUtNTIxYzc0LjcgMTQwLjMgMTgzLjUgMjU2LjQgMjY3LjYgMzMzLjUtMjc2LjkgMjUxLjYtOTI3LjIgMTAwMC43LTkyNy4yIDEwMDAuN2wtMTg5LjUtMjMwLjgiLz48cGF0aCB0cmFuc2Zvcm09Im1hdHJpeCguMTMzMzMgMCAwIC0uMTMzMzMgMCAzMjgyLjA1MykiIHN0eWxlPSJmaWxsOiMxYTE4MTc7ZmlsbC1vcGFjaXR5OjE7ZmlsbC1ydWxlOm5vbnplcm87c3Ryb2tlOm5vbmUiIGQ9Ik0xNjExNC45IDIwMDAuNXMtMzEuNi0zMDAuNyAzMi4zLTMxMy45YzYzLjktMTMuMSAxMDc5LjIgNjEuNCAxMTMyLjUgMTMzLjkgNTMuNCA3Mi40LTY1LjggMTEyLTY1LjggMTEybC02NzMuMiAyOTIuMi00MjUuOC0yMjQuMm0tNzQ5LjggMzI5LjVzLTE1My43LTE3NS4zLTExOS4zLTIxMmMzNC40LTM2LjcgNzA2LjYtNDQxLjYgNzcyLjUtNDE5LjcgNjUuOCAyMS44IDguNCA5OS44IDguNCA5OS44bC0yOTMuNyA0ODMuNS0zNjcuOSA0OC40Ii8+PHBhdGggdHJhbnNmb3JtPSJtYXRyaXgoLjEzMzMzIDAgMCAtLjEzMzMzIDAgMzI4Mi4wNTMpIiBzdHlsZT0iZmlsbDojMWQzODUxO2ZpbGwtb3BhY2l0eToxO2ZpbGwtcnVsZTpub256ZXJvO3N0cm9rZTpub25lIiBkPSJNMTQ2ODguMSA1NDg3LjFzMTU3MS4xLTY3OS45IDE1MjEuMS0xMTkzLjhjLTQ5LjUtNTA4LjgtMzg3LjYtMjEyMC0zODcuNi0yMTIwcy0zMTAuNC03Mi4zLTQ5MC40IDE3NC41YzAgMCAyMDkuOCAxNTUyLjIgMTc1LjIgMTY1NS0zNC42IDEwMi43LTE2NDYuNSA5MjYtMTY0Ni41IDkyNmwtNDMuOSA0NzcuNCA4NzIuMSA4MC45Ii8+PHBhdGggdHJhbnNmb3JtPSJtYXRyaXgoLjEzMzMzIDAgMCAtLjEzMzMzIDAgMzI4Mi4wNTMpIiBzdHlsZT0iZmlsbDojMmYyZDJlO2ZpbGwtb3BhY2l0eToxO2ZpbGwtcnVsZTpub256ZXJvO3N0cm9rZTpub25lIiBkPSJNMTMyNzEuNSAzNzYxLjNoMTAzOS44djE0Mi42aC0xMDM4LjRjLTI5LjEuOC01ODQuNCAyNC41LTU4NC40IDY3OS45IDAgMzQzLjQgMTA2LjYgNDc3IDIxOS40IDYxOC40IDEyNC43IDE1Ni40IDI1My43IDMxOCAyNTMuNyA3MjEuMkgxMzAxOWMwLTM1My4zLTEwOC4xLTQ4OC44LTIyMi42LTYzMi4yLTEyMy4xLTE1NC40LTI1MC41LTMxNC4xLTI1MC41LTcwNy40IDAtNDE2LjIgMTk3LjMtNjE4LjQgMzYyLjktNzE0LjcgMTc3LjctMTAzLjUgMzU0LjctMTA3LjYgMzYyLjEtMTA3LjhoLjYiLz48cGF0aCB0cmFuc2Zvcm09Im1hdHJpeCguMTMzMzMgMCAwIC0uMTMzMzMgMCAzMjgyLjA1MykiIHN0eWxlPSJmaWxsOiMyZjJkMmU7ZmlsbC1vcGFjaXR5OjE7ZmlsbC1ydWxlOm5vbnplcm87c3Ryb2tlOm5vbmUiIGQ9Ik0xMzkzNC40IDM4NzUuNWMwLTgyLjkgMTc0LjItMTkzIDM4Mi40LTE5MyAyMDguMSAwIDM3MS4zIDExMC4xIDM3MS4zIDE5M3MtMTYzLjIgMTA3LjMtMzcxLjMgMTA3LjNjLTIwOC4yIDAtMzgyLjQtMjQuNC0zODIuNC0xMDcuMyIvPjxwYXRoIHRyYW5zZm9ybT0ibWF0cml4KC4xMzMzMyAwIDAgLS4xMzMzMyAwIDMyODIuMDUzKSIgc3R5bGU9ImZpbGw6IzQyYTBkMDtmaWxsLW9wYWNpdHk6MTtmaWxsLXJ1bGU6bm9uemVybztzdHJva2U6bm9uZSIgZD0iTTEzNDg3IDQwMDIuOGgxNjQ4LjZjMTU5LjcgMCAyOTAuNCAxMzAuNyAyOTAuNCAyOTAuNSAwIDE1OS43LTEzMC43IDI5MC41LTI5MC40IDI5MC41SDEzNDg3Yy0xNTkuOCAwLTI5MC41LTEzMC44LTI5MC41LTI5MC41IDAtMTU5LjggMTMwLjctMjkwLjUgMjkwLjUtMjkwLjUiLz48cGF0aCB0cmFuc2Zvcm09Im1hdHJpeCguMTMzMzMgMCAwIC0uMTMzMzMgMCAzMjgyLjA1MykiIHN0eWxlPSJmaWxsOiMyZjJkMmU7ZmlsbC1vcGFjaXR5OjE7ZmlsbC1ydWxlOm5vbnplcm87c3Ryb2tlOm5vbmUiIGQ9Ik0xMzQ2MS41IDM4NzUuNWgxNjU2LjJjMzEuMyAwIDU3IDI1LjcgNTcgNTd2MTMuM2MwIDMxLjQtMjUuNyA1Ny01NyA1N2gtMTY1Ni4yYy0zMS4zIDAtNTYuOS0yNS42LTU2LjktNTd2LTEzLjNjMC0zMS4zIDI1LjYtNTcgNTYuOS01N204NDYuMi0xMzcyLjdjNTEuOSAwIDk0LjMgNDIuNSA5NC4zIDk0LjR2MTEyMC42YzAgNTEuOS00Mi40IDk0LjQtOTQuMyA5NC40cy05NC4zLTQyLjUtOTQuMy05NC40VjI1OTcuMmMwLTUxLjkgNDIuNC05NC40IDk0LjMtOTQuNCIvPjxwYXRoIHRyYW5zZm9ybT0ibWF0cml4KC4xMzMzMyAwIDAgLS4xMzMzMyAwIDMyODIuMDUzKSIgc3R5bGU9ImZpbGw6IzJmMmQyZTtmaWxsLW9wYWNpdHk6MTtmaWxsLXJ1bGU6bm9uemVybztzdHJva2U6bm9uZSIgZD0ibTEzNTgwLjEgMjA3NC40IDczOC4yIDQyNi4yYzQyLjMgMjQuNCA1Ni45IDc4LjkgMzIuNSAxMjEuMS0yNC40IDQyLjItNzguOSA1Ni44LTEyMS4xIDMyLjVsLTczOC4zLTQyNi4zYy00Mi4yLTI0LjMtNTYuOC03OC44LTMyLjQtMTIxLjEgMjQuNC00Mi4yIDc4LjktNTYuOCAxMjEuMS0zMi40Ii8+PHBhdGggdHJhbnNmb3JtPSJtYXRyaXgoLjEzMzMzIDAgMCAtLjEzMzMzIDAgMzI4Mi4wNTMpIiBzdHlsZT0iZmlsbDojMmYyZDJlO2ZpbGwtb3BhY2l0eToxO2ZpbGwtcnVsZTpub256ZXJvO3N0cm9rZTpub25lIiBkPSJtMTUwMzcuMyAyMDc0LjQtNzM4LjIgNDI2LjJjLTQyLjMgMjQuNC01Ni45IDc4LjktMzIuNSAxMjEuMSAyNC40IDQyLjIgNzguOSA1Ni44IDEyMS4xIDMyLjVsNzM4LjMtNDI2LjNjNDIuMi0yNC4zIDU2LjgtNzguOCAzMi40LTEyMS4xLTI0LjMtNDIuMi03OC45LTU2LjgtMTIxLjEtMzIuNG0tMTg3NS4yIDcuMmMwLTEzOS44IDExMy40LTI1My4yIDI1My4yLTI1My4yIDEzOS44IDAgMjUzLjEgMTEzLjQgMjUzLjEgMjUzLjIgMCAxMzkuOC0xMTMuMyAyNTMuMS0yNTMuMSAyNTMuMXMtMjUzLjItMTEzLjMtMjUzLjItMjUzLjEiLz48cGF0aCB0cmFuc2Zvcm09Im1hdHJpeCguMTMzMzMgMCAwIC0uMTMzMzMgMCAzMjgyLjA1MykiIHN0eWxlPSJmaWxsOiM1ODU5NWI7ZmlsbC1vcGFjaXR5OjE7ZmlsbC1ydWxlOm5vbnplcm87c3Ryb2tlOm5vbmUiIGQ9Ik0xMzI3Mi4xIDIwODEuNmMwLTc5LjEgNjQuMS0xNDMuMiAxNDMuMi0xNDMuMiA3OSAwIDE0My4xIDY0LjEgMTQzLjEgMTQzLjIgMCA3OS02NC4xIDE0My4xLTE0My4xIDE0My4xLTc5LjEgMC0xNDMuMi02NC4xLTE0My4yLTE0My4xIi8+PHBhdGggdHJhbnNmb3JtPSJtYXRyaXgoLjEzMzMzIDAgMCAtLjEzMzMzIDAgMzI4Mi4wNTMpIiBzdHlsZT0iZmlsbDojMmYyZDJlO2ZpbGwtb3BhY2l0eToxO2ZpbGwtcnVsZTpub256ZXJvO3N0cm9rZTpub25lIiBkPSJNMTQ4ODguOCAyMDgxLjZjMC0xMzkuOCAxMTMuMy0yNTMuMiAyNTMuMi0yNTMuMiAxMzkuOCAwIDI1My4xIDExMy40IDI1My4xIDI1My4yIDAgMTM5LjgtMTEzLjMgMjUzLjEtMjUzLjEgMjUzLjEtMTM5LjkgMC0yNTMuMi0xMTMuMy0yNTMuMi0yNTMuMSIvPjxwYXRoIHRyYW5zZm9ybT0ibWF0cml4KC4xMzMzMyAwIDAgLS4xMzMzMyAwIDMyODIuMDUzKSIgc3R5bGU9ImZpbGw6IzU4NTk1YjtmaWxsLW9wYWNpdHk6MTtmaWxsLXJ1bGU6bm9uemVybztzdHJva2U6bm9uZSIgZD0iTTE0OTk4LjggMjA4MS42YzAtNzkuMSA2NC4xLTE0My4yIDE0My4yLTE0My4yIDc5IDAgMTQzLjEgNjQuMSAxNDMuMSAxNDMuMiAwIDc5LTY0LjEgMTQzLjEtMTQzLjEgMTQzLjEtNzkuMSAwLTE0My4yLTY0LjEtMTQzLjItMTQzLjEiLz48cGF0aCB0cmFuc2Zvcm09Im1hdHJpeCguMTMzMzMgMCAwIC0uMTMzMzMgMCAzMjgyLjA1MykiIHN0eWxlPSJmaWxsOiMzNTg3YWE7ZmlsbC1vcGFjaXR5OjE7ZmlsbC1ydWxlOm5vbnplcm87c3Ryb2tlOm5vbmUiIGQ9Ik0xMjU0Ny43IDY5NzAuOWM2OS0yMDYuNSAyMzYuOS04MjMgNy4zLTEzODQuNC0xNC42LTM1LjggMTEuOC03NSA1MC40LTc1aDYyNC41YzE5IDAgMzYuNyA5LjkgNDYuNSAyNi4yIDU1LjQgOTIuNCAyMDQuMyA0NTQuMy05LjEgMTQ2MS44LTUuMyAyNS4yLTI3LjUgNDMuMi01My4zIDQzLjJoLTYxNC43Yy0zNy4yIDAtNjMuNC0zNi40LTUxLjYtNzEuOCIvPjxwYXRoIHRyYW5zZm9ybT0ibWF0cml4KC4xMzMzMyAwIDAgLS4xMzMzMyAwIDMyODIuMDUzKSIgc3R5bGU9ImZpbGw6IzQyYTBkMDtmaWxsLW9wYWNpdHk6MTtmaWxsLXJ1bGU6bm9uemVybztzdHJva2U6bm9uZSIgZD0iTTEyNjc4LjMgNjk1OS4yYzcwLjYtMjE1LjUgMjI2LjUtODEyLjIgOC43LTEzNTkuOC0xNi44LTQyLjEgMTMuOC04Ny45IDU5LjEtODcuOWg2MDUuMmMyMi43IDAgNDMuOCAxMiA1NS4xIDMxLjcgNTcuNSAxMDAuNSAxOTYuMyA0NjUuOS0xMC43IDE0NDguOS02LjMgMjkuNS0zMi4zIDUwLjYtNjIuNSA1MC42SDEyNzM5Yy00My40IDAtNzQuMi00Mi4yLTYwLjctODMuNSIvPjxwYXRoIHRyYW5zZm9ybT0ibWF0cml4KC4xMzMzMyAwIDAgLS4xMzMzMyAwIDMyODIuMDUzKSIgc3R5bGU9ImZpbGw6IzIzNDQ2NTtmaWxsLW9wYWNpdHk6MTtmaWxsLXJ1bGU6bm9uemVybztzdHJva2U6bm9uZSIgZD0iTTEzMjI5LjkgNTUxMS41cy0zMTguMS05ODEuOCAxMDU5LjctMTA3Mi43YzAgMCAxMjA4LjUtMTI3LjkgMTIyNS0zMDEuMyAxNi42LTE3My40IDUzNS4zLTIxMjMuOCA1MzUuMy0yMTIzLjhzMTI0LjUtNDAuMiAzMTYuMSA2Ny45YzgzLjEgNDYuOSAyMTcuMSAxNDguNSAyMTcuMSAxNDguNXMtMzQxLjkgMjIyMi00OTQuNyAyMzUzLjdjLTE1Mi43IDEzMS42LTE3MDguOSA4NTguMS0xNzA4LjkgODU4LjFsLTExNDkuNiA2OS42Ii8+PHBhdGggdHJhbnNmb3JtPSJtYXRyaXgoLjEzMzMzIDAgMCAtLjEzMzMzIDAgMzI4Mi4wNTMpIiBzdHlsZT0iZmlsbDojMWExODE3O2ZpbGwtb3BhY2l0eToxO2ZpbGwtcnVsZTpub256ZXJvO3N0cm9rZTpub25lIiBkPSJNMTQ1NzYuNSA5MDY2LjFzNDAxLjkgMjYzLjkgNjcgMzM5LjFjLTIzOC40IDUzLjUtMjUxLjEtNTQuNC0zNTEuNiAwLTEwMC40IDU0LjQtMjEzLjQgMTEzLTM1NS44IDAtMTQyLjMtMTEzLTE5Mi41LTczLjUtMjE3LjYtMTM3LjItMjUuMS02My43LTY3LTIzNS4zIDAtNDMyLjEgMCAwLTUzLjItMjUzLjcgOTcuNS0zMjkuMWw0MjUuNyAyNjYuNCAzMzQuOCAyOTIuOSIvPjxwYXRoIHRyYW5zZm9ybT0ibWF0cml4KC4xMzMzMyAwIDAgLS4xMzMzMyAwIDMyODIuMDUzKSIgc3R5bGU9ImZpbGw6I2ZkZTZiNTtmaWxsLW9wYWNpdHk6MTtmaWxsLXJ1bGU6bm9uemVybztzdHJva2U6bm9uZSIgZD0iTTE0NjM5LjggOTExMy4xczEwOS43LTc1My45LTExMy4yLTc5Ni4yYzAgMC0yOTkuMiA1LjItMzEwLjgtNzUuNC0xMS42LTgwLjYtODcuNS0yNTEuMy04Ny41LTI1MS4zcy0yNjUuNSA0Mi42LTM3NC42IDE0N2wyMy40IDE3OS43czg3LjMgOTgxLjIgODYyLjcgNzk2LjIiLz48cGF0aCB0cmFuc2Zvcm09Im1hdHJpeCguMTMzMzMgMCAwIC0uMTMzMzMgMCAzMjgyLjA1MykiIHN0eWxlPSJmaWxsOiMxYTE4MTc7ZmlsbC1vcGFjaXR5OjE7ZmlsbC1ydWxlOm5vbnplcm87c3Ryb2tlOm5vbmUiIGQ9Ik0xNDM3MC4xIDkxODkuOHMtMzA2LjEtNTMxLjctNTU0LjEtNjgzbDU2LjIgNTk3LjcgMjIyLjkgMTUxLjcgMjc1LTY2LjQiLz48cGF0aCB0cmFuc2Zvcm09Im1hdHJpeCguMTMzMzMgMCAwIC0uMTMzMzMgMCAzMjgyLjA1MykiIHN0eWxlPSJmaWxsOiNmZGU2YjU7ZmlsbC1vcGFjaXR5OjE7ZmlsbC1ydWxlOm5vbnplcm87c3Ryb2tlOm5vbmUiIGQ9Ik0xNDAwNy43IDg4MTYuNWMzOS43LTY4LjggMTE5LjEtOTcuMyAxNzcuNC02My42IDU4LjMgMzMuNiA3My40IDExNi43IDMzLjYgMTg1LjUtMzkuNyA2OC44LTExOS4xIDk3LjMtMTc3LjQgNjMuNi01OC4zLTMzLjYtNzMuNC0xMTYuNy0zMy42LTE4NS41Ii8+PHBhdGggdHJhbnNmb3JtPSJtYXRyaXgoLjEzMzMzIDAgMCAtLjEzMzMzIDAgMzI4Mi4wNTMpIiBzdHlsZT0iZmlsbDojYmIyNzIzO2ZpbGwtb3BhY2l0eToxO2ZpbGwtcnVsZTpub256ZXJvO3N0cm9rZTpub25lIiBkPSJNMTQxNTAuMiA4MDQxLjlzLTIwNy45LjUtMzk2LjUgOTUuM2MwIDAtMzQ0LjYtMTA5LjMtNDQwLjYtMjUzLjQtOTYuMS0xNDQtMzIyLjUtNTQzLjMtODMuMi0yMzcyLjMgMCAwIDg3Ni43LTM4NC41IDE0NTguMi0yNC40IDAgMC0xMjMgMjEwNi42LTE5OC43IDIyNTYuNy00OC40IDk2LjEtMTM4LjIgMjI4LTMzOS4yIDI5OC4xIi8+PHBhdGggdHJhbnNmb3JtPSJtYXRyaXgoLjEzMzMzIDAgMCAtLjEzMzMzIDAgMzI4Mi4wNTMpIiBzdHlsZT0iZmlsbDojZmRlNmI1O2ZpbGwtb3BhY2l0eToxO2ZpbGwtcnVsZTpub256ZXJvO3N0cm9rZTpub25lIiBkPSJNMTMzMTYuMSA2NDI1LjZjMS43LTcgMy41LTE0IDUuMy0yMS4xIDAgMCA1OS45LTM5Ni42IDE1Ni01MDIuOSA5Ni4xLTEwNi4zIDc0NC4yLTU0MS45IDg1NC03MDguMyAxMDkuNy0xNjYuNSAyMTEuNS0zODEuNyAzMjkuMy0zNjQuOCAxOTguMyAyOC4zIDM4OS42IDE2Ni40IDI5NCAzNDAtOTUuNyAxNzMuNS0zNTAuNiA5Mi00NjAuNCAxOTguMy0xMDkuOCAxMDYuMy02MzAuNCA2OTcuNy02NjUuOCA4MzkuNC0xMS4yIDQ0LjUtMjIgMTg1LjMtMzEuNSAzNTcuNi0yMC44IDM3Ni42LTM1LjkgOTAzLjItMzUuOSA5MDMuMnMtMzMgMzUzLjktNDM5LjcgMzM2LjRjMCAwLTI4My45LTI3Ni4yLTUuMy0xMzc3LjgiLz48cGF0aCB0cmFuc2Zvcm09Im1hdHJpeCguMTMzMzMgMCAwIC0uMTMzMzMgMCAzMjgyLjA1MykiIHN0eWxlPSJmaWxsOiNiYjI3MjM7ZmlsbC1vcGFjaXR5OjE7ZmlsbC1ydWxlOm5vbnplcm87c3Ryb2tlOm5vbmUiIGQ9Ik0xMzMwNy41IDY0MzEuNWMxOTkuMSAxMDYuMSAzODUuNCAxMzcuOCA1MDYuOSAxNDUuOC0yMS45IDM5Ni45LTM3LjggOTUyLTM3LjggOTUycy0zNC45IDM3My4xLTQ2My41IDM1NC42YzAgMC0yOTkuMy0yOTEuMi01LjYtMTQ1Mi40Ii8+PHBhdGggdHJhbnNmb3JtPSJtYXRyaXgoLjEzMzMzIDAgMCAtLjEzMzMzIDAgMzI4Mi4wNTMpIiBzdHlsZT0iZmlsbDojZDhkN2Q2O2ZpbGwtb3BhY2l0eToxO2ZpbGwtcnVsZTpub256ZXJvO3N0cm9rZTpub25lIiBkPSJNMTUyMDEgNjA1Ni45aDExNDMuM2MyMi4yIDAgNDAuNCAxOC4yIDQwLjQgNDAuMyAwIDIyLjItMTguMiA0MC40LTQwLjQgNDAuNEgxNTIwMWMtMjIuMiAwLTQwLjMtMTguMi00MC4zLTQwLjQgMC0yMi4xIDE4LjEtNDAuMyA0MC4zLTQwLjNtMTE3Mi40IDE0Mi45IDI1MC4zIDEzMzIuOGM0LjcgMjQuOSAyNi40IDQyLjkgNTEuNiA0Mi45aDg2NC43YzMyLjkgMCA1Ny43LTI5LjggNTEuNy02Mi4xbC0yNDcuMS0xMzMyLjljLTQuNi0yNC45LTI2LjMtNDIuOS01MS42LTQyLjloLTg2OGMtMzIuOSAwLTU3LjcgMjkuOS01MS42IDYyLjIiLz48cGF0aCB0cmFuc2Zvcm09Im1hdHJpeCguMTMzMzMgMCAwIC0uMTMzMzMgMCAzMjgyLjA1MykiIHN0eWxlPSJmaWxsOiNlYmViZWE7ZmlsbC1vcGFjaXR5OjE7ZmlsbC1ydWxlOm5vbnplcm87c3Ryb2tlOm5vbmUiIGQ9Im0xNjM5Ni40IDYxOTkuOCAyNTAuMyAxMzMyLjhjNC42IDI0LjkgMjYuMyA0Mi45IDUxLjYgNDIuOWg4NjQuN2MzMi45IDAgNTcuNy0yOS44IDUxLjctNjIuMWwtMjQ3LjEtMTMzMi45Yy00LjYtMjQuOS0yNi4zLTQyLjktNTEuNy00Mi45SDE2NDQ4Yy0zMi45IDAtNTcuNyAyOS45LTUxLjYgNjIuMm0tMTkuMy0xNDIuOWg5NDUuN2MyMC4zIDAgMzYuOCAxNi42IDM2LjggMzYuOHY3LjFjMCAyMC4yLTE2LjUgMzYuOC0zNi44IDM2LjhoLTk0NS43Yy0yMC4zIDAtMzYuOC0xNi42LTM2LjgtMzYuOHYtNy4xYzAtMjAuMiAxNi41LTM2LjggMzYuOC0zNi44Ii8+PHBhdGggdHJhbnNmb3JtPSJtYXRyaXgoLjEzMzMzIDAgMCAtLjEzMzMzIDAgMzI4Mi4wNTMpIiBzdHlsZT0iZmlsbDojYjViNWI0O2ZpbGwtb3BhY2l0eToxO2ZpbGwtcnVsZTpub256ZXJvO3N0cm9rZTpub25lIiBkPSJNMTYxNzcuMSA2MDc5LjZoMTAxLjFjMTAuMyAwIDE4LjggOC40IDE4LjggMTguOCAwIDEwLjMtOC41IDE4LjgtMTguOCAxOC44aC0xMDEuMWMtMTAuMyAwLTE4LjgtOC41LTE4LjgtMTguOCAwLTEwLjQgOC41LTE4LjggMTguOC0xOC44bS0xNzIuMiAwaDEwMS4xYzEwLjQgMCAxOC44IDguNCAxOC44IDE4LjggMCAxMC4zLTguNCAxOC44LTE4LjggMTguOGgtMTAxLjFjLTEwLjMgMC0xOC43LTguNS0xOC43LTE4LjggMC0xMC40IDguNC0xOC44IDE4LjctMTguOCIvPjxwYXRoIHRyYW5zZm9ybT0ibWF0cml4KC4xMzMzMyAwIDAgLS4xMzMzMyAwIDMyODIuMDUzKSIgc3R5bGU9ImZpbGw6IzQwNjZiOTtmaWxsLW9wYWNpdHk6MTtmaWxsLXJ1bGU6bm9uemVybztzdHJva2U6bm9uZSIgZD0iTTI0MjUzLjYgMTM4MDguNmMtMzE2LjUgMjEzLjctNjQ2LjcgNDY3LjctOTg5LjEgNzYxLjctODEyLjQgNjk3LjYtMTUyMS4zIDE0NzMuOS0yMDA0LjIgMjAzMC42IDY0MC4xIDY2OC42IDEyMDkgMTIyMy40IDE3MjcgMTY3Ny45bDE1NS41IDE1MTguOC0xNDU2IDE0OS4yYy01NDMuNC00NzEuNC0xMTM1LjYtMTAzOS44LTE4MDEuNS0xNzI4LjNMMTg0MzUgMTY2NjMuNGMtMTU0LjQtMTY5LTMwMS43LTMzMC45LTQ0MC4yLTQ4My4xLTk0NS4zLTEwMzguMy0xNjAzLjctMTc1Mi41LTIxNDYuNC0yMjM2LjRsMTI2My40LTEyOS40LTE3Ni0xNzE4Yzc1MS4yIDYwNy45IDE1MTkuNCAxNDUxLjYgMjYyMS4xIDI2NjEuNSA4NS40IDkzLjkgMTcxLjYgMTg4LjQgMjU5LjIgMjg0LjcgNTE4LjMtNTg4LjkgMTIzOC42LTEzNTkuNSAyMDcxLjktMjA3NS4yIDMyMS43LTI3Ni40IDY0MC4xLTUyNi43IDk1Mi43LTc0OS4xbC0yMi45IDE1NjkuMyAxNDM1LjggMjAuOSIvPjxwYXRoIHRyYW5zZm9ybT0ibWF0cml4KC4xMzMzMyAwIDAgLS4xMzMzMyAwIDMyODIuMDUzKSIgc3R5bGU9ImZpbGw6IzNiYWFhNTtmaWxsLW9wYWNpdHk6MTtmaWxsLXJ1bGU6bm9uemVybztzdHJva2U6bm9uZSIgZD0ibTI5NzU3LjUgMTk2NTcuMS0xNDUxLjMtMjU4LjFjLTUzMS4yIDQwOC42LTExMzkuMyA2NDguNi0xNzAxLjIgNjQ4LjYtMTA5OS4zIDAtMjE1NC41LTQ4NC44LTM2MTcuNy0xNzY4LjhsMTU1LjUgMTUxOC44LTE0NTYgMTQ5LjJjNDY4LjkgNDA2LjYgOTAxLjUgNzQxLjEgMTMxMy41IDEwMTcuNyAxMjE1LjIgODE1LjcgMjM2MC42IDExOTUuOCAzNjA0LjcgMTE5NS44IDk4OS45IDAgMjAwNC42LTM2MC43IDI4ODctMTAxMC40bDI2NS41LTE0OTIuOCIvPjxwYXRoIHRyYW5zZm9ybT0ibWF0cml4KC4xMzMzMyAwIDAgLS4xMzMzMyAwIDMyODIuMDUzKSIgc3R5bGU9ImZpbGw6I2Y1N2MyYTtmaWxsLW9wYWNpdHk6MTtmaWxsLXJ1bGU6bm9uemVybztzdHJva2U6bm9uZSIgZD0iTTMxODc5LjUgMTY1NTUuM2MwLTc1NS4zLTE0OS44LTE0OTIuNi00NDUuMi0yMTkxLjctMTM5LjItMzI5LjUtMzA3LjUtNjQzLjItNTAzLjgtOTM4LjdsLTEzNjUuNi0xNTktMTk0LjEgMTY2Ni4yYzI1Mi4zIDQ4OS44IDM5NiAxMDQyLjggMzk2IDE2MjMuMiAwIDExNzUuMy02MzguNCAyMjExLjQtMTQ2MC42IDI4NDMuN2wxNDUxLjMgMjU4LjEtMjY1LjUgMTQ5Mi44YzI1Ny40LTE4OS4zIDUwMy41LTQwMy40IDczNC42LTY0MC4zIDUwNC43LTUxNy41IDkwNC41LTExMDkuOCAxMTg5LTE3NjAuMSAzMDcuNy03MDQuMiA0NjMuOS0xNDQyLjUgNDYzLjktMjE5NC4yIi8+PHBhdGggdHJhbnNmb3JtPSJtYXRyaXgoLjEzMzMzIDAgMCAtLjEzMzMzIDAgMzI4Mi4wNTMpIiBzdHlsZT0iZmlsbDojZDdlMWM4O2ZpbGwtb3BhY2l0eToxO2ZpbGwtcnVsZTpub256ZXJvO3N0cm9rZTpub25lIiBkPSJNMzA5MzAuNSAxMzQyNC45Yy0yMDIuNS0zMDUuNi00MzQuNy01OTItNjk1LTg1Ny4xLTUxMi45LTUyMi4xLTExMDcuMy05MzMuNS0xNzY2LjgtMTIyMi43LTY4OS41LTMwMi4zLTE0MTYuMS00NTUuNy0yMTU5LjctNDU1LjctNzUzLjIgMC0xNTYxLjIgMjI0LjQtMjQwMi4yIDY2Ni43LTIyNy42IDExOS44LTQ2MCAyNTYuOC02OTUuOCA0MTAuNi0xMjIuNCA3OS4yLTI0NS45IDE2My4zLTM3MC4zIDI1MS43bC0yMi45IDE1NjkuMyAxNDM1LjggMjAuOWguNGMyMDYuNy0xMzkuMSA0MDcuMy0yNjEuMSA2MDEuMS0zNjQuNiA1NDQuMy0yOTEuOCAxMDM0LjQtNDQxLjkgMTQ1My45LTQ0MS45IDEzMDkuNiAwIDI0NzcuMyA3OTQuMyAzMDYxLjggMTkzMGwxOTQuMS0xNjY2LjIgMTM2NS42IDE1OW0tMTM4MTguNyAzODkuNi0xNzYtMTcxOGMtOTEtNzMuNi0xODEuOC0xNDQtMjczLjEtMjExLjEtOTQ5LjgtNjk4LTE4NzcuMi05OTYtMzEwMS4xLTk5Ni0xMjQwLjYgMC0yNTc4LjUgNTI4LTM1NzguODkgMTQxMi0yOTIuMjkgMjU4LjYtNTUzIDU0Mi42LTc4MC4xNyA4NDkuN2wxNzY2LjM2LTEzNi40IDkyLjIgMTE5NC41YzEwNi45LTEyNC4yIDIxNS44LTIzMiAzMjAuOC0zMjQuOCA3MzUuOS02NTAuNiAxNjA4LjQtODgyLjMgMjE3OS43LTg4Mi4zIDg5OC45IDAgMTQ1OCAyMDIuOCAyMjg2LjggOTQxLjhsMTI2My40LTEyOS40Ii8+PHBhdGggdHJhbnNmb3JtPSJtYXRyaXgoLjEzMzMzIDAgMCAtLjEzMzMzIDAgMzI4Mi4wNTMpIiBzdHlsZT0iZmlsbDojZjU3YzJhO2ZpbGwtb3BhY2l0eToxO2ZpbGwtcnVsZTpub256ZXJvO3N0cm9rZTpub25lIiBkPSJNMTAyMzMuMiAxNjU1NS4zYzAtMTA5NC4yIDM5OS40LTE4NTAuMiA4MjcuOS0yMzQ2LjFsLTkyLjItMTE5NC41LTE3NjYuMzYgMTM2LjRjLTIxNi4yOCAyOTEuOC00MDEuODQgNjA0LjYtNTU2LjI3IDkzNi41LTM0OC45MiA3NTEuMi01MjUuNzcgMTU4MS41LTUyNS43NyAyNDY3LjcgMCA4ODUuMiAxNjkuMjMgMTcwOC43IDUwMi45IDI0NDcuNyAzMDcuOTggNjgyLjQgNzQ5LjI1IDEyODAgMTMxMS4xOCAxNzc2LjIgODYuMjIgNzYuMiAxNzUuMTIgMTQ5LjYgMjY2LjMyIDIyMC4ybDIyLTE2NjQuNSAxMzE0LjcgMTcuNWMtNzMwLjctNTQ4LjItMTMwNC40LTE0NDguNC0xMzA0LjQtMjc5Ny4xIi8+PHBhdGggdHJhbnNmb3JtPSJtYXRyaXgoLjEzMzMzIDAgMCAtLjEzMzMzIDAgMzI4Mi4wNTMpIiBzdHlsZT0iZmlsbDojM2JhYWE1O2ZpbGwtb3BhY2l0eToxO2ZpbGwtcnVsZTpub256ZXJvO3N0cm9rZTpub25lIiBkPSJtMTU5ODEuMiAyMDUyMC40IDIxLjgtMTQ5NC41Yy05MDguOSA2NzAuNC0xNzQ0LjQgMTAyMS43LTI0NDEuNCAxMDIxLjctNjA0LjggMC0xMzc2LTIwOS4zLTIwMjQtNjk1LjJsLTEzMTQuNy0xNy41LTIyIDE2NjQuNWM5NTcuNSA3NDEuMiAyMTYzLjkgMTE2MC45IDMzNjAuNyAxMTYwLjkgMTIzNi45IDAgMjU1OS43LTU0My45IDM5MzcuMy0xNjE3LjZsLTE1MTcuNy0yMi4zIi8+PHBhdGggdHJhbnNmb3JtPSJtYXRyaXgoLjEzMzMzIDAgMCAtLjEzMzMzIDAgMzI4Mi4wNTMpIiBzdHlsZT0iZmlsbDojNThjNDkwO2ZpbGwtb3BhY2l0eToxO2ZpbGwtcnVsZTpub256ZXJvO3N0cm9rZTpub25lIiBkPSJNMTk4ODUuMyAxODIxOC41IDE4NDM1IDE2NjYzLjRjLTQ0NC42IDUyNC45LTExMTUuNCAxMjc1LjItMTg5Ny4zIDE5MzguNC0xODAuOCAxNTMuMS0zNTkuMiAyOTQuNy01MzQuNyA0MjQuMWwtMjEuOCAxNDk0LjUgMTUxNy43IDIyLjNjMTM0LjYtMTA0LjggMjY5LjYtMjE0LjYgNDA1LjEtMzI5LjYgODA4LjctNjg1LjYgMTQ5NS0xNDMwLjkgMTk4MS4zLTE5OTQuNm0yOTMyLjUtNDQzMC44IDIyLjktMTU2OS4zYy0zMTIuNiAyMjIuNC02MzEgNDcyLjctOTUyLjcgNzQ5LjEtODMzLjMgNzE1LjctMTU1My42IDE0ODYuMy0yMDcxLjkgMjA3NS4ybDE0NDQuMiAxNTU4LjJjNDgyLjktNTU2LjcgMTE5MS44LTEzMzMgMjAwNC4yLTIwMzAuNiAzNDIuNC0yOTQgNjcyLjYtNTQ4IDk4OS4xLTc2MS43bC0xNDM1LjgtMjAuOSIvPjxwYXRoIHRyYW5zZm9ybT0ibWF0cml4KC4xMzMzMyAwIDAgLS4xMzMzMyAwIDMyODIuMDUzKSIgc3R5bGU9ImZpbGw6I2ZmZjtmaWxsLW9wYWNpdHk6MTtmaWxsLXJ1bGU6bm9uemVybztzdHJva2U6bm9uZSIgZD0iTTExNTI3LjMgMjA3NTcuOGMtNTkuNi0zMC45LTkzLjYtNzMuNy0xMDItMTI2LTguNC01Mi41IDkuMS0xMDkuMSA0OS43LTE3MC44IDg1LjEtMTI4LjMgMTc2LjQtMTYxLjYgMjg1LjUtMTA1LjcgNDYuMSAyMy40IDk2LjggNjEuNCAxNTQuOSAxMTMuMiAxNy41LTM2LjggMzQuOC03My43IDUxLjgtMTEwLjYtNDQuNS00NS4xLTk4LjMtODMuMS0xNjIuMi0xMTUuOS05MS43LTQ3LjItMTczLjktNjAuOC0yNTQuNC0zOS4xLTgwLjMgMjEuNi0xNTQuMiA3Ni44LTIyMS40IDE2OC43LTQyLjIgNTcuOC02Ny41IDExNi4zLTczLjUgMTc2LjYtNiA2MC4xIDggMTE4IDQzLjQgMTcyLjYgMzUuMyA1NC40IDkwIDEwMi4yIDE2My4zIDE0MC40IDc0LjcgMzguOSAxNTkuOSA2MS45IDI1Mi43IDY3LjEgMS00Mi44IDIuMy04NS42IDQtMTI4LjMtMzQuMy0yLTY4LTYuMS0xMDEuMi0xMi0zMy4xLTYtNjMuNC0xNi4xLTkwLjYtMzAuMm01OTAuOS0uMWMyOC44LTcxLjUgNjUuMy0xMjAuMiAxMDkuNC0xNDYuOSA0NC4yLTI2LjcgOTUuNi0zMS4yIDE1Ny0xNC41IDEyMi4yIDMyLjcgMTY4LjIgMTE5LjQgMTI3LjUgMjY5LjUtNDEgMTQ5LjUtMTM2LjcgMjEwLjMtMjc2LjMgMTcxLjctNjkuNi0xOS41LTExNC4xLTU0LjMtMTMzLjMtMTAxLjctMTkuNC00Ny40LTEzLjItMTA2LjcgMTUuNy0xNzguMXptNTcxLjggMTQxLjNjMjUuMi0xMTEuNSAxMC0yMDIuMS0zNy42LTI3My00Ny44LTcxLjEtMTI1LTExNy44LTIzMi41LTE0Ni43LTEwNy42LTI5LjEtMTk3LjItMjcuMy0yNzYuOCA5LjEtNzkuMyAzNi4zLTE0My42IDEwNC45LTE5MS44IDIwOS4xLTQ4LjEgMTA0LTU2IDE5NS43LTE1LjQgMjc1LjMgNDAuMiA3OS4zIDEyNiAxNDEuOSAyNTYuNyAxNzkgMTMwLjYgMzYuOCAyNDMuNCAyOS44IDMyOS45LTE1LjQgODYuNy00NS40IDE0Mi4xLTEyNS44IDE2Ny41LTIzNy40bTY3NC43IDQ2LjFjLTYuMyAxNDcuOC05Ny44IDIyNi44LTI2NS44IDIyMC4xLTMzLjEtMS40LTY2LjEtMy4zLTk5LjEtNS41IDI0LTE0OC41IDQ0LTI5Ny4xIDYwLjEtNDQ1LjggMjMuNiAxLjUgNDcuNCAyLjYgNzEuMSAzLjUgMTU4LjggNS41IDIzOS44IDc1LjYgMjMzLjcgMjI3Ljd6bTE4Ni4zLTYuMWMwLTExNC00MS4xLTE5Ny4yLTExNC44LTI1My42LTc0LjEtNTYuNy0xNzYuNy04My4zLTMxMC41LTg4LjctNzEuNC0zLTE0Mi4zLTguMi0yMTIuNi0xNS44LTMxLjggMjI3LTcyLjkgNDUzLjYtMTIzLjMgNjc5LjMgOTMuMiAxMS4yIDE4Ny4zIDE5LjIgMjgyLjEgMjMuOCAxNDggNy4xIDI2OC4yLTI0LjkgMzUyLjktODcuOSA4NC45LTYzLjIgMTI2LjEtMTUwLjMgMTI2LjItMjU3LjFtNjAzLjUtNDYxLjNjLTE0OS45IDQxLjQtMzAwLjEgNzEuOS00NDkuMyA5MiAxOS4yIDIyOC44IDI5LjIgNDU5LjQgMzAgNjkxLjIgMTc3LjgtMjEgMzU2LjQtNTQuMSA1MzQuNi05OS45LTUuMS00MC0xMC41LTgwLTE2LjItMTE5LjgtMTA5LjQgMjguNS0yMTkgNTIuMS0zMjguNSA3MS0zLjItNTAuOC02LjgtMTAxLjQtMTAuOS0xNTIgOTguMi0xNy4zIDE5Ni41LTM4LjYgMjk0LjctNjQtNi4xLTM5LjctMTIuNS03OS40LTE5LjItMTE4LjktOTUuMyAyNS0xOTAuNyA0Ni0yODYgNjMuMS01LjYtNTkuMi0xMS44LTExOC4zLTE4LjYtMTc3LjMgOTcuOC0xNy45IDE5NS43LTQwLjIgMjkzLjUtNjYuOS03LjgtMzkuNi0xNS44LTc5LjEtMjQuMS0xMTguNW0zMTA2LTk3Mi4yIDMzLjgtMzMuOGMzMS41LTMxLjcgNjEuNC00OS4xIDg5LjUtNTIuNCAyOC4yLTMuMiA1NC4zIDcuMSA3OC4xIDMwLjkgMjQuMiAyNC4xIDM1LjQgNDguNCAzMy44IDczLjEtMS43IDI0LjYtMTYuNSA1MS00NC41IDc5LjFsLTQ2LjcgNDYuOHptMzA4LjctMTU1LjVjLTUyLjItNTIuMS0xMDguNC03NS42LTE2OC42LTcwLjYtNjAuMiA1LjEtMTIwLjQgMzcuNy0xODAuNCA5Ny45bC00NCA0NC4xLTE3Mi42LTE3Mi4xLTEwMi42IDEwMi44IDQ4NS4yIDQ4NC4xIDE1NC42LTE1NWM1OC43LTU4LjkgOTAuNy0xMTYuMyA5NS45LTE3Mi4yIDUuMi01NS45LTE3LjMtMTA4LjktNjcuNS0xNTltLTI0Mi41LTQyNC42IDQ4NS4yIDQ4NCAxMDIuNy0xMDIuOS00MDAuMy0zOTkuMyAxOTYuMy0xOTYuOC04NC45LTg0LjctMjk5IDI5OS43bTgyMS41LTQyMGM3Mi4yIDEzNi45IDExMy4yIDIxNC4yIDEyMi44IDIzMiA5LjYgMTcuOCAxNy42IDMxLjUgMjMuNyA0MS4yLTM1LjYtMjAuOS0xMjYuNC02OS44LTI3Mi42LTE0Ni44em0tMTQyLjItMjYxLjEgODAuNSAxNTAuNC0xNzYuNSAxNzYuOS0xNTAuNi04MC0xMTAuNiAxMTAuOCA2NTguMSAzMTQuOCAxMjUuNC0xMjUuOC0zMTUuNy02NTcuOS0xMTAuNiAxMTAuOG02MDAuOS02MDIuMy0xMzAuNCAxMzAuNyAxNTYuNSA1NzcuMy0zIDIuOWMtNjAuNi02OC44LTEwNC44LTExNy0xMzIuNC0xNDQuNmwtMjI4LjQtMjI3LjgtOTEuNyA5MS45IDQ4NS4yIDQ4NCAxMjkuNS0xMjkuNy0xNTMuMi01NzMuMyAyLjMtMi4zYzU5LjggNjYuMiAxMDIuNyAxMTIuMyAxMjguOCAxMzguNGwyMjkuNyAyMjkuMSA5Mi4zLTkyLjYtNDg1LjItNDg0bTEyNy43LTIwODMuNCAzMi45IDMzLjVjMzIuMSAzMi43IDUwLjQgNjIuMyA1NC44IDg4LjYgNC40IDI2LjQtNS4xIDUxLTI4LjUgNzQtMjMuMiAyMi44LTQ3LjUgMzEtNzMgMjQuNy0yNS40LTYuMy01NC42LTI2LjItODcuNC01OS42bC0zMC45LTMxLjV6bTg0LjMtODIuOCAxODcuNi0xODQuMi0xMDEuOC0xMDMuNy00ODkgNDgwLjIgMTM5LjkgMTQyLjVjNjUuMyA2Ni40IDEyNS43IDEwMy43IDE4MS4yIDExMS44IDU1LjUgOC4xIDEwNy45LTEyIDE1Ny4yLTYwLjQgMjguNy0yOC4yIDQ2LjUtNjEuMyA1My40LTk5LjEgNi45LTM3LjggMi40LTc3LjUtMTMuMy0xMTguOSAxODIuMS0zNC40IDMwMC4yLTU2LjIgMzU0LjItNjUuNGwtMTEyLjktMTE1LjEtMzAyLjMgNjcuNS01NC4yLTU1LjJtODA2LjQgNDQ1LjktMjc2LjUtMjgxLjYtNDg5IDQ4MC4yIDI3Ni41IDI4MS42IDg1LTgzLjQtMTc0LjgtMTc4IDEwNy40LTEwNS40IDE2Mi42IDE2NS42IDg0LjktODMuNC0xNjIuNS0xNjUuNiAxMjYuMS0xMjMuOCAxNzQuNyAxNzcuOSA4NS42LTg0LjFtMTAwLjIgMTAyLjEtNDg5IDQ4MC4xIDEwMS44IDEwMy43IDQwMy40LTM5Ni4xIDE5NC43IDE5OC40IDg1LjctODQuMS0yOTYuNi0zMDJtNjU2LjUgNjY4LjYtMjc2LjUtMjgxLjctNDg5IDQ4MC4yIDI3Ni41IDI4MS42IDg1LTgzLjQtMTc0LjctMTc3LjkgMTA3LjMtMTA1LjUgMTYyLjYgMTY1LjYgODUtODMuNC0xNjIuNi0xNjUuNiAxMjYuMS0xMjMuOCAxNzQuNyAxNzcuOSA4NS42LTg0bTEzMS43IDU0MC44Yy0xMzcuNyA3MC44LTIxNS40IDExMC45LTIzMy4zIDEyMC40LTE3LjkgOS40LTMxLjcgMTcuMi00MS41IDIzLjMgMjEuMy0zNS40IDcxLjItMTI1LjggMTQ5LjYtMjcxLjF6bTI2Mi40LTEzOS41LTE1MS4yIDc4LjktMTc1LTE3OC4zIDgxLjYtMTQ5LjgtMTA5LjctMTExLjctMzIxLjYgNjU0LjggMTI0LjUgMTI2LjcgNjYxLjEtMzA4LjktMTA5LjctMTExLjdtMzE3LjggNTk1LjNjNDQuMi00My40IDYzLjQtOTMuNCA1Ny42LTE1MC4yLTUuOC01Ni43LTM2LjUtMTEzLjQtOTIuMS0xNzAtNTEuMy01Mi4yLTEwNi40LTg4LjctMTY1LjQtMTA5LjZsLTk2LjQgOTQuNmM0Ny4yIDE4LjYgODQuOSAzNi4zIDExMy40IDUzLjIgMjguNSAxNyA1MiAzNC45IDcwLjYgNTMuOSAyMi40IDIyLjcgMzUuMSA0NC40IDM4LjQgNjUuMSAzLjIgMjAuNy0zLjcgMzkuNS0yMC45IDU2LjQtOS42IDkuNC0yMC44IDE1LjEtMzMuNSAxNy4xLTEyLjcgMS45LTI3LjYgMS4xLTQ0LjctMi40LTE3LjEtMy42LTQ4LjktMTMuOS05NS40LTMwLjktNDMuNC0xNi4xLTc4LjgtMjUuMy0xMDYuNC0yNy41LTI3LjctMi4yLTU0LjQuNi04MC4zIDguNi0yNiA3LjktNTAuNCAyMy4xLTczLjQgNDUuNy00My4yIDQyLjUtNjIuOSA5MC41LTU4LjggMTQ0LjIgNCA1My42IDMxLjQgMTA2LjMgODIuMiAxNTggMjUgMjUuNCA1MS44IDQ2LjcgODAuNSA2My45IDI4LjcgMTcuMSA2MC45IDMyLjkgOTYuNSA0Ny40bDQ3LjgtMTEyLjZjLTM2LjMtMTUuNi02NS0yOS44LTg2LTQyLjctMjAuOS0xMi45LTM5LjUtMjcuNi01NS43LTQ0LjEtMTkuMy0xOS42LTI5LjUtMzkuMi0zMC43LTU4LjYtMS4xLTE5LjUgNS43LTM2LjQgMjAuNC01MC45IDkuMS05IDE5LjItMTQuNyAzMC4xLTE3LjEgMTEtMi40IDI0LjItMi4yIDM5LjYuOSAxNS41IDMgNDguNCAxMy43IDk4LjkgMzIgNjYuNyAyNC4zIDExOS40IDM0LjEgMTU4IDI5LjUgMzguNi00LjcgNzMuOC0yMi42IDEwNS43LTUzLjltNDk5LjQgMjM2LjktMjc2LjYtMjgxLjYtNDg5IDQ4MC4xIDI3Ni42IDI4MS43IDg0LjktODMuNS0xNzQuNy0xNzcuOSAxMDcuNC0xMDUuNCAxNjIuNiAxNjUuNSA4NC45LTgzLjQtMTYyLjYtMTY1LjYgMTI2LjEtMTIzLjggMTc0LjggMTc4IDg1LjYtODQuMU0yNDE5NiAxMjI2NmMyNCAxOTEuMSA1NS4zIDM3OS44IDkzLjcgNTY1LjctMS4zLjktMi43IDEuNy00LjEgMi41LTUwLjQtOTcuMy04NC41LTE2MS45LTEwMy4yLTE5My4zLTU0LjMtOTEuNC0xMDguNS0xODIuOC0xNjIuNy0yNzQuMi00Ny4xIDI4LjItOTQgNTcuMy0xNDAuNCA4Ny4zIDEyMi45IDE5Mi41IDI0Ni4xIDM4NC45IDM2OS42IDU3Ny4xIDYwLjktMzkuMyAxMjIuNy03NyAxODUuMS0xMTIuOS0zNS43LTE4MS02NC41LTM2NC42LTg2LjMtNTUwLjIgMS0uNiAyLTEuMSAzLjEtMS42IDE0MiAxMjMgMjc3LjkgMjUwLjkgNDA3LjYgMzgzLjEgNjQuNS0zMCAxMjkuNi01OC40IDE5NS4xLTg1LjEtODUuOC0yMTEuNy0xNzEuMy00MjMuNi0yNTYuNC02MzUuNi01Mi4xIDIxLjItMTAzLjkgNDMuMy0xNTUuNSA2Ni4zIDQzLjcgOTguOSA4Ny41IDE5Ny44IDEzMS4zIDI5Ni43IDYuMiAxNCAxMy43IDMwIDIyLjIgNDguMSA4LjcgMTggMzIuNCA2NS42IDcxLjIgMTQyLjctMS40LjctMi45IDEuMy00LjMgMi0xMzIuNS0xMzYuOC0yNzEuNy0yNjktNDE3LjMtMzk2LjItNDkuOSAyNS05OS41IDUwLjktMTQ4LjcgNzcuNm05NDguOC0zNC43Yy0yMy40LTcyLjktMjQuOS0xMzMuMi0zLjEtMTgwLjUgMjEuNy00Ny4zIDY2LjYtODEuMiAxMzMuOC05OS44IDEzNS41LTM2LjggMjIwLjYgMjQuMyAyNTMuOCAxNzQuNCAzMy41IDE1MS0xMC42IDIzOC45LTEzMSAyNzEuOC02MC43IDE2LjctMTExLjYgMTEuOC0xNTQuMi0xNS43LTQyLjQtMjcuNS03NS45LTc3LjMtOTkuMy0xNTAuMnptNTU0LjktMTQxLjZjLTIwLjgtMTExLjQtNjguOS0xOTEuNS0xNDcuOS0yMzcuMS03OC43LTQ1LjYtMTgzLjEtNTMuNi0zMDguMi0xOS4yLTEyNS4yIDM0LjUtMjExLjcgOTUtMjU2LjkgMTc0LjgtNDUuNSA4MC00Ni43IDE3NC03LjcgMjgxLjEgMzkgMTA3LjMgOTguNyAxNzcuOCAxNzYgMjE0LjkgNzcuNSAzNy4yIDE2Ny44IDM5LjIgMjc1LjIgOS42IDEwNy40LTI5LjUgMTgzLTc3LjUgMjI5LjUtMTQ5LjMgNDYuMi03MS43IDYwLjgtMTYyLjkgNDAtMjc0LjhtODQ4LjQtNDI0LjFjLTc1LjEuMS0xNTAuMiAxLjktMjI1LjIgNS41LTExMy43IDE3OC40LTIxNC4yIDM2MC43LTMwMS42IDU0NS40bC00LjUuNmMtNC42LTkxLjctOC45LTE1Ny0xMy41LTE5NS44LTEyLjYtMTA2LjgtMjUuMS0yMTMuNS0zNy42LTMyMC4zLTUyLjYgNi4zLTEwNS4xIDEzLjUtMTU3LjUgMjEuNSAzMy44IDIyNiA2OCA0NTEuOCAxMDIuNSA2NzcuNyA2My43LTkuOCAxMjcuNS0xOC4xIDE5MS41LTI1IDg1LjctMTgxLjMgMTg0LjUtMzYwLjEgMjk2LjEtNTM1IDEuMyAwIDIuNi0uMSAzLjgtLjEtMi44IDg5LjItMy40IDE1Mi4yLTIuMiAxODkuMSAzLjQgMTA4LjEgNyAyMTYuMSAxMC42IDMyNC4yIDQ1LjgtMS42IDkxLjYtMi40IDEzNy40LTIuNS0uMy0yMjguNC0uMi00NTYuOS4yLTY4NS4zbTIxMC4zIDQuMWMtMTAuMSAyMjguMi0yMCA0NTYuNC0yOS40IDY4NC43IDUwLjggMi4xIDEwMS42IDUgMTUyLjMgOC45IDE3LjctMjI3LjggMzUuNy00NTUuNSA1NC4xLTY4My4yLTU5LTQuNS0xMTcuOS04LTE3Ny0xMC40bTcwNS41IDc5LjljLTU4LjItMTAuOS0xMTYuNi0yMC43LTE3NS4xLTI5LjUtMjguNiAxODYtNTcgMzcyLTg1LjEgNTU4LTY2LjMtMTAtMTMyLjktMTguMy0xOTkuNS0yNS4yLTQuMiA0MC4xLTguNCA4MC4yLTEyLjUgMTIwLjMgMTgwLjIgMTguNSAzNTkuNCA0OC42IDUzNi40IDkwLjIgOS4zLTM5LjMgMTguNi03OC41IDI3LjgtMTE3LjctNjUuNC0xNS40LTEzMS4yLTI5LjMtMTk3LjItNDEuNiAzNC44LTE4NC45IDY5LjktMzY5LjcgMTA1LjItNTU0LjVtMzkzLjYgNDQ3LjZjMjEuOS03My4zIDU0LjUtMTIzLjkgOTktMTUwLjggNDQuNC0yNi44IDEwMC40LTI5LjYgMTY2LjItNyAxMzIuNiA0NS45IDE2OC44IDE0NC42IDExMS41IDI4Ny4zLTU3LjYgMTQzLjUtMTQ0LjEgMTkxLTI2MS45IDE1MC4zLTU5LjUtMjAuNS05OC41LTUzLjEtMTE3LjktOTkuOC0xOS4zLTQ2LjYtMTguNy0xMDYuNiAzLjEtMTgwem01MzguNiAxOTYuN2M0NS45LTEwMy42IDUxLTE5NyAxMS4xLTI3OS41LTM5LjYtODIuMy0xMjEuOC0xNDcuOS0yNDQuNC0xOTAuMS0xMjIuNy00Mi4xLTIyNy41LTQwLjgtMzA5LjItLjMtODIuMSA0MC42LTEzNS42IDExNy42LTE2My45IDIyOC0yOC40IDExMC42LTE5LjMgMjAyLjUgMjIuOSAyNzYuNSA0Mi40IDc0LjMgMTE1IDEyNi43IDIyMC4yIDE2Mi44IDEwNS4xIDM2LjIgMTk1IDM5LjQgMjc0LjMgNi41IDc5LTMyLjkgMTQyLjktOTkuOCAxODktMjAzLjltMjgxLjggMTc3LjVjMTUuOSA4LjQgMzEuOCAxNi45IDQ3LjcgMjUuNSA0Ni42IDI1LjQgNzYuOSA1MS41IDkxIDc3LjMgMTQuMiAyNS45IDEyLjYgNTMtNC4xIDgxLjItMTYuNSAyOC0zOS4xIDQxLjUtNjcuNiA0MC45LTI4LjUtLjUtNjUuMi0xMy42LTExMC43LTM4LjMtMTQuMy03LjctMjguNy0xNS40LTQzLTIzIDI4LjktNTQuNSA1Ny44LTEwOS4xIDg2LjctMTYzLjZ6bTU1LjQtMTA0LjNjNDEuMi03Ny40IDgyLjMtMTU0LjggMTIzLjYtMjMyLjItNTMuNS0yOC4yLTEwNy40LTU1LjQtMTYxLjctODEuNi05OS45IDIwNS41LTE5OS42IDQxMS0yOTguOSA2MTYuOCA2NC4yIDMwLjkgMTI3LjggNjMuNSAxOTAuNyA5Ny44IDg4IDQ4IDE2MC4yIDcxLjkgMjE5LjkgNjguOCA1OS41LTMuMiAxMDguNC0zMi44IDE0NS44LTkwLjggMjEuOC0zNCAzMC42LTcxIDI1LjQtMTExLjMtNS4xLTQwLjMtMjMuNS04MC43LTU1LjYtMTIwLjUgMTg0LjEtNjkuNyAzMTAuOS0xMDQuOCAzNjguNy0xMjAuNS01Ni42LTM3LjgtMTEzLjktNzQuMy0xNzEuNy0xMDkuNS0xMDQuNSAzOS0yMDYuNCA4MS4yLTMwNS42IDEyNi41LTI2LjgtMTQuOC01My42LTI5LjMtODAuNi00My41bS0zNjY3IDgxODNjLTU5IDEzNC4yLTE2Mi45IDE3MS4zLTMwNi41IDk4LTI4LjItMTQuNi01Ni40LTI5LjUtODQuNC00NC43IDcxLjYtMTMwLjQgMTQzLTI2MC45IDIxNC4yLTM5MS41IDIwLjIgMTEgNDAuNCAyMS43IDYwLjcgMzIuMyAxMzYuMSA3MC4yIDE3Ni41IDE2Ny43IDExNiAzMDUuOXptMTU5LjkgNzAuOGM0MS4zLTEwNS4xIDM4LjktMTk4LjMtMS41LTI4MC42LTQwLjctODIuNS0xMTcuMy0xNDkuMy0yMzEuNy0yMDkuMi02MS4xLTMyLjEtMTIxLjUtNjYtMTgxLjEtMTAxLjgtMTE3LjkgMTk1LjctMjM2LjEgMzkxLjItMzU0LjcgNTg2LjQgNzguNyA0Ny4zIDE1OC41IDkxLjkgMjM5LjMgMTMzLjcgMTI2LjIgNjUuMiAyMzkuNiA4My4xIDMzMi45IDU4LjUgOTMuNi0yNC42IDE1OC4xLTg4LjUgMTk2LjgtMTg3bTY2Ni41LTE2MS4yYy0xMzQuMy0yOS42LTI2Ny4yLTY3LTM5OC4xLTExMi4xLTc0LjYgMjE2LTE0OS42IDQzMS43LTIyNSA2NDcuNCAxNTUuNyA1My43IDMxMy44IDk4LjIgNDczLjYgMTMzLjYgOC43LTM4LjggMTcuNC03Ny41IDI2LjEtMTE2LjItOTguMS0yMS43LTE5NS42LTQ3LTI5Mi4zLTc1LjggMTQuNS00OCAyOS05NiA0My40LTE0NC4xIDg2LjggMjUuOSAxNzQuMiA0OC44IDI2Mi4xIDY4LjcgOC45LTM4LjcgMTcuOC03Ny40IDI2LjYtMTE2LjEtODUuNC0xOS4zLTE3MC4yLTQxLjUtMjU0LjQtNjYuNiAxNy01Ni40IDMzLjktMTEyLjggNTAuOC0xNjkuMiA4Ni40IDI1LjcgMTczLjUgNDguMiAyNjEuMiA2Ny42IDguNy0zOS4xIDE3LjMtNzguMSAyNi0xMTcuMm0yNDcuMSA0MTJjMTguMSAyLjUgMzYuMyA0LjggNTQuNCA3IDUwLjkgNi4xIDg4LjEgMTguNiAxMTIgMzguNSAyMy44IDE5LjkgMzQuNiA0Ni42IDMxLjcgODAuMi0yLjkgMzMuOS0xNiA1OC4xLTM5LjcgNzIuMy0yMy43IDE0LjItNTkuNSAxOS0xMDcuMSAxMy41LTI2LjQtMy4xLTUyLjgtNi40LTc5LjEtOS45IDkuMy02Ny4yIDE4LjYtMTM0LjQgMjcuOC0yMDEuNnptMzcwLjIgMTQxLjNjMy03My43LTIxLjQtMTMwLjktNzAuOC0xNzIuOS00OS43LTQyLjEtMTIwLjQtNjYuOC0yMTQuMy03Ny43LTIzLTIuNi00Ni01LjUtNjguOS04LjYgMTEuMS04MC41IDIyLTE2MSAzMi45LTI0MS41LTUwLTYuOC0xMDAtMTQuNi0xNDkuNy0yMy40LTQwLjIgMjI0LjktODAuOCA0NDkuNy0xMjEuOCA2NzQuNCA4OS4yIDE1LjkgMTc4LjkgMjkgMjY4LjggMzkuMiAxMDIuNSAxMS42IDE4Mi40LS45IDIzNy41LTMzLjQgNTUuMS0zMi43IDgzLjMtODUuMiA4Ni4zLTE1Ni4xbTE1NC40LTQ2OC4zYy0uOCAyMjguNC0xLjkgNDU2LjktMy40IDY4NS4zIDYwIC4yIDEyMC4xLS45IDE4MC4xLTMuMi02LjYtMTg4LjQtMTMuNS0zNzYuNy0yMC43LTU2NSA5OS44LTMuOSAxOTkuNS0xMS44IDI5OC44LTIzLjgtNC43LTM5LjctOS40LTc5LjQtMTQuMi0xMTkuMWEzNjA5LjgxIDM2MDkuODEgMCAwIDEtNDQwLjYgMjUuOG03NTMuOCAyNzNjLTE0LjEtNzUuMi04LjctMTM0LjkgMTQuOC0xNzkuMiAyMy43LTQ0LjQgNjUuNC03MyAxMjYuMi04Ny44IDEyMS4yLTMwIDIwMy40IDI0LjMgMjQ3LjkgMTcyLjIgNDQuNSAxNDcuNC0xIDI0My4zLTEzOC4zIDI3Ny4zLTY4LjQgMTYuNy0xMjQuNiA4LjYtMTY2LjctMjIuNS00Mi4zLTMxLjEtNjkuOC04NC43LTgzLjktMTYwem01NTYuOC0xNDljLTM3LjEtMTA3LjMtOTUuNy0xNzguOC0xNzItMjE4LjQtNzYuNS0zOS41LTE2NS43LTQ0LjItMjcyLjYtMTguMS0xMDYuOSAyNi0xODMuMiA3MS4yLTIzMi41IDE0MS41LTQ5LjEgNzAuMi02Ny45IDE2MS01MS44IDI3NCAxNiAxMTIuOCA2MSAxOTQuNyAxMzkgMjQyLjYgNzcuNyA0Ny42IDE4My42IDU4LjcgMzEyIDI3LjUgMTI4LjMtMzEuNCAyMTcuNy05MC4zIDI2NC44LTE2OSA0Ny40LTc4LjkgNTAuMi0xNzIuNyAxMy4xLTI4MC4xbTQwOC43LTEwMi4xYzkxIDYxLjIgMTg1LjIgMTE5LjYgMjgyLjQgMTc1IDU5LjMtMzAuOSAxMTgtNjMuMiAxNzYuMS05Ny4xLTE1NC03MS44LTMwMS4yLTE1MS4zLTQ0MS4yLTIzNy43LTM5LjItNzkuOC03OC41LTE1OS41LTExNy45LTIzOS4zLTQ2LjMgMjMtOTMgNDQuOS0xNDAuMSA2NS44IDM1LjMgNzkuOSA3MC42IDE1OS44IDEwNS44IDIzOS43LTIyLjUgMTY0LjQtNTQuNyAzMjkuOC05Ni43IDQ5NS40IDYyLjItMjIuOCAxMjQuMS00NyAxODUuNC03Mi43IDE5LjUtMTEwLjEgMzQuOC0yMTkuOSA0Ni4yLTMyOS4xbTE4NzMuMS0xODQ5LjVjLTY1LjktMzktMTA2LjktODIuOC0xMjQuMy0xMzAuNC0xNy40LTQ3LjgtMTAuOC05OSAxOC44LTE1NS40IDU4LjktMTEyLjggMTU0LjItMTM4LjUgMjk0LjMtNzMuNyAxMzkuOCA2NC43IDE4MS40IDE2Mi4yIDExNS40IDI4OC44LTMzLjIgNjMuMS03Ni43IDEwMC43LTEyOC4xIDExMi40LTUxLjYgMTEuNy0xMTAuMi0yLjctMTc2LjEtNDEuN3ptMjYwLjEtNTIxLjFjLTEwNC44LTQzLjgtMTk3LjItNDcuOC0yNzcuNi0xNi43LTgwLjUgMzEuMy0xNDMuNyA5NS43LTE5NS44IDE5NS4yLTUyLjIgOTkuNC02OS45IDE4OC45LTUwLjUgMjczLjkgMTkuNCA4NC44IDc0LjggMTU5LjcgMTcwLjQgMjIyIDk1LjUgNjIuMiAxODcuMyA4MS40IDI3NS41IDUyLjkgODcuOS0yOC40IDE2Ni45LTEwMi4zIDIyOS0yMjAuMyA2MS44LTExOCA3Ny0yMjMuOCA0OS41LTMxMS4yLTI3LjUtODcuNy05NS43LTE1Mi0yMDAuNS0xOTUuOG0xMzMuNi0zMDQuNmM1LjctMTcuNSAxMS4zLTM1LjEgMTYuOC01Mi42IDE1LjQtNDkuMiAzNC41LTgzLjcgNTguNi0xMDMuNiAyMy45LTE5LjkgNTIuMi0yNS42IDg0LjctMTYuNiAzMi44IDkuMSA1NC4xIDI2LjUgNjMuNyA1Mi41IDkuNSAyNS45IDcuNyA2Mi4xLTYuNSAxMDgtNy44IDI1LjUtMTUuOSA1MC45LTI0LjIgNzYuMi02NC40LTIxLjMtMTI4LjctNDIuNi0xOTMuMS02My45em0yMDcuNi0zMzkuMmMtNzEuOS0xNi45LTEzMi43LTMuNi0xODMuMiAzNy40LTUwLjggNDEuMi04OC4yIDEwNi42LTExNi4zIDE5Ny43LTYuOSAyMi4zLTEzLjkgNDQuNS0yMS4yIDY2LjctNzcuMi0yNS40LTE1NC4zLTUwLjgtMjMxLjUtNzYuMi0xNiA0OC43LTMyLjkgOTcuMS01MC44IDE0NS4zIDIxNC4xIDc5LjcgNDI4IDE1OS45IDY0MS44IDI0MC40IDMxLjctODUuMiA2MC44LTE3MS4yIDg3LjMtMjU3LjggMzAuMi05OC43IDMyLjgtMTc5LjUgMTEtMjM5LjYtMjEuOC02MC4zLTY4LjEtOTcuOC0xMzcuMS0xMTMuOW0tMzcyLjctNjUwLjljLTEyLjEgMTM3LjUtMzEuNCAyNzQuNC01OCA0MTAuMSAyMjQuMSA0NC4yIDQ0OC4yIDg4LjcgNjcyLjIgMTMzLjYgMzEuMy0xNTkuNSA1NC4xLTMyMC4zIDY4LjQtNDgxLjctMzkuNi0zLjctNzkuMS03LjMtMTE4LjYtMTEtOC44IDk5LjQtMjAuOSAxOTguNi0zNi4zIDI5Ny4zLTQ5LjUtOC05OS4xLTE1LjgtMTQ4LjYtMjMuNyAxMy45LTg4LjggMjQuOS0xNzcuOSAzMy4yLTI2Ny4ybC0xMTguNS0xMS40Yy04LjEgODYuOS0xOC44IDE3My42LTMyLjMgMjU5LjktNTguMi05LjItMTE2LjQtMTguNC0xNzQuNi0yNy41IDEzLjktODguOSAyNC44LTE3OC4yIDMyLjctMjY3LjctMzkuOS0zLjYtNzkuNy03LjItMTE5LjYtMTAuN20zOTYuMS0yOTdjLjItMTggLjItMzYgLjItNTQtLjEtNTIuOCA2LjYtOTEuOSAyMS4yLTExNy42IDE0LjYtMjUuNyAzOC4yLTM5LjMgNzEtNDAuNSAzMi40LTEuMSA1Ni4xIDExLjQgNzAuNiAzNy43IDE0LjUgMjYuNCAyMi40IDY3LjkgMjIuNCAxMjQuMSAwIDE3LjctLjEgMzUuMy0uMyA1Mi45LTYxLjctLjktMTIzLjQtMS44LTE4NS4xLTIuNnptLTExOC4yLTEuNmMtODcuNi0xLjItMTc1LjMtMi4zLTI2Mi45LTMuMy0uNiA1MC44LTIuMSAxMDEuNi00LjcgMTUyLjMgMjI4LjIgMTEuNiA0NTYuMyAyMy42IDY4NC41IDM1LjkgNC4xLTgxLjkgNi0xNjMuOSA1LjctMjQ1LjktLjQtMTE0LjgtMjEuNi0xOTkuNC01OC41LTI1MS44LTM3LjEtNTIuNy05MC44LTc1LjUtMTU5LjYtNzAuNC00MC4yIDMtNzQuOSAxOC42LTEwNC41IDQ2LjEtMjkuNyAyNy41LTUyIDY0LjYtNjcuOSAxMTEuMS0xNTktMTA5LjktMjY1LjItMTcwLjItMzEzLTE5OSA1LjUgNTYuMiA5LjcgMTEyLjYgMTIuNyAxNjguOSA5MC41IDUyLjYgMTgwLjEgMTA5LjEgMjY4LjMgMTY5LjUuMyAyOC45LjMgNTcuNy0uMSA4Ni42bS02OS40LTkyMi40YzE1NS41IDIwLjkgMjQzLjUgMzYuOSAyNjMuOCAzOS45IDIwLjMgMy4zIDM2LjMgNS41IDQ3LjkgNi40LTM3LjEgMTkuMy0xMjcuNiA3Mi44LTI3NC42IDE1Mi40LTEwLjctNjYuNC0yMy4xLTEzMi43LTM3LjEtMTk4Ljd6bS0yOTguNC0yOC4zYzU2LjkgNC42IDExNCAxMCAxNzEgMTYuMSAxOS45IDg5LjUgMzYuNyAxNzkuNSA1MC40IDI2OS44LTUxIDI2LjEtMTAyLjIgNTEuNS0xNTMuNyA3Ni4yIDcuNiA1NC40IDE0IDEwOSAxOS4yIDE2My42IDIyMC4yLTEwNi4yIDQzNi4zLTIyNi42IDY0Ny0zNjEtMTEuOC03Mi40LTI1LjItMTQ0LjUtNDAuNC0yMTYuNS0yNDUuNC01MS43LTQ5MC45LTg3LjktNzM1LTEwOC44IDE1IDUzLjMgMjguOCAxMDYuOSA0MS41IDE2MC42bS0xNTkuNS01MTQuOWMxOC43IDQ4LjQgMzYuNCA5NyA1My4xIDE0NS44IDE3OC4xLTYwLjYgMzU2LjMtMTIxIDUzNC42LTE4MS4yIDI0LjQgNzEuNiA0NyAxNDMuNiA2Ny43IDIxNS45IDM4LjgtMTAuOSA3Ny42LTIxLjkgMTE2LjQtMzIuOC01OS4xLTIwNi43LTEzMy00MTAuMy0yMjEuNi02MDkuMi0zNi45IDE2LjItNzMuOCAzMi41LTExMC43IDQ4LjggMzEgNjkuNiA2MC4yIDEzOS45IDg3LjYgMjEwLjctMTc1LjggNjcuMS0zNTEuNSAxMzQuNC01MjcuMSAyMDJtLTMzMS4zLTY2My40Yzc2LjMgMTIyLjUgMTQ1LjIgMjQ4IDIwNi45IDM3NiAyMDYtOTguNyA0MTIuMi0xOTcuMSA2MTguNS0yOTUuMS03Mi4yLTE1MC4zLTE1My0yOTcuNi0yNDIuNS00NDEuMy0zMy44IDIwLjgtNjcuNiA0MS42LTEwMS4zIDYyLjQgNTUgODguNSAxMDYuOCAxNzguNCAxNTUuMSAyNjkuNS00NC40IDIzLjMtODguOCA0Ni43LTEzMy4yIDcwLjEtNDMuNS04Mi04OS44LTE2Mi45LTEzOC45LTI0Mi43LTMzLjkgMjAuNy02Ny44IDQxLjQtMTAxLjYgNjIuMiA0Ny44IDc3LjUgOTIuOSAxNTYuMiAxMzUuMiAyMzYtNTIuMSAyNy40LTEwNC4yIDU0LjktMTU2LjMgODIuNS00My42LTgyLjEtOTAuMy0xNjMuMS0xMzkuOS0yNDIuOWwtMTAyIDYzLjNtLTE3MTQ2LTI3ODUuMmMtNTcuOSAxMi43LTExNS41IDI2LjctMTcyLjkgNDEuOSA0OC4yIDE4MS44IDk2LjQgMzYzLjcgMTQ0LjYgNTQ1LjUtNjMuNSAxNi45LTEyNi43IDM1LjUtMTg5LjQgNTUuOSAxMi40IDM4LjMgMjQuOSA3Ni43IDM3LjMgMTE1IDE2OC43LTU0LjggMzQwLjUtOTYuMyA1MTMuOS0xMjQuNmwtMTkuNS0xMTkuNGMtNjQuNSAxMC41LTEyOC44IDIyLjgtMTkyLjggMzYuOS00MC40LTE4My43LTgwLjgtMzY3LjUtMTIxLjItNTUxLjJtODI5LjEtOTYuNWMtMTYwIDIuNS0zMTkuOCAxNC4xLTQ3OC44IDM1bDg5LjQgNjc5LjVjMTMyLjgtMTcuNCAyNjYuMy0yNy4yIDM5OS44LTI5LjJsLTEuOC0xMTkuMWMtODcuMyAxLjQtMTc0LjUgNS45LTI2MS42IDEzLjYtNC40LTUwLTguOC0xMDAtMTMuMi0xNDkuOSA4NC4zLTcuNSAxNjguOS0xMi4xIDI1My41LTEzLjgtLjgtMzkuNy0xLjYtNzkuNC0yLjQtMTE5LTg3LjMgMS43LTE3NC42IDYuNS0yNjEuNiAxNC4ybC0xNS42LTE3Ni4xYzk3LjktOC42IDE5Ni0xMy43IDI5NC4xLTE1LjJsLTEuOC0xMjBtNjM2LjYgMjMxLjRjOS02MS4xLTkuOS0xMTMuNC01OC43LTE1NS41LTQ4LjctNDItMTIyLjMtNjguMy0yMTguOS03NS4zLTg5LTYuMy0xNjguNyA0LjctMjM2LjkgMzEuMi0uNyA0NS0xLjMgOTAtMiAxMzUgNTQuMy0xOS44IDEwMS0zMi42IDEzOS4xLTM5LjIgMzguMi02LjYgNzMuMS04LjYgMTA0LjUtNi4zIDM3LjcgMi44IDY2IDExLjUgODQuOSAyNS42IDE4LjggMTQuMSAyNi44IDMzLjEgMjQuMyA1Ny4xLTEuMyAxMy4zLTYuOSAyNC43LTE2LjYgMzQuMy05LjYgOS42LTIzLjIgMTguNC00MC42IDI2LjUtMTcuNCA4LjItNTIuNSAyMC41LTEwNC4zIDM4LjUtNDguNSAxNi42LTg0LjQgMzQtMTA4LjQgNTEuMy0yMy45IDE3LjItNDIuOSAzNy45LTU3LjIgNjEuNi0xNC4yIDIzLjgtMjEuMyA1MS44LTIxLjkgODQtLjkgNjAuNyAyMCAxMDguNSA2MSAxNDQuNiA0MS4xIDM2LjEgOTcuMyA1Ni4xIDE3MC41IDYyLjIgMzYgMy4xIDcwLjYgMi4zIDEwNC4zLTIuM3M2OS40LTEyIDEwNy42LTIxLjljLTEwLjUtMzkuNi0yMS42LTc5LjItMzMuMS0xMTguNy00MC41IDkuOS03My4zIDE2LjgtOTguOSAyMC4xLTI1LjYgMy4zLTUwLjQgMy45LTc0LjYgMS45LTI4LjctMi40LTUwLjMtMTAuMy02NC45LTI0LjEtMTQuNi0xMy44LTIxLjUtMzAuOS0yMC4zLTUxLjQuNy0xMi45IDQuNS0yMy44IDExLjUtMzIuOSA3LTkuMiAxNy44LTE3LjcgMzIuNS0yNS43IDE0LjYtNy44IDQ5LTIxLjYgMTA0LjMtMzkuNSA3My4yLTIzLjcgMTI1LjktNDcuNyAxNTYuNi03NC42IDMwLjctMjYuOSA0OS43LTYyLjIgNTYuMi0xMDYuNW00OTIuNS05M2MtNTcuNC0xNS4yLTExNS4xLTI5LjItMTcyLjktNDEuOS00MC40IDE4My43LTgwLjggMzY3LjUtMTIxLjIgNTUxLjItNjQtMTQuMS0xMjguNC0yNi40LTE5Mi45LTM2LjlsLTE5LjUgMTE5LjRjMTczLjUgMjguMyAzNDUuMyA2OS44IDUxMy45IDEyNC42IDEyLjUtMzguMyAyNC45LTc2LjcgMzcuNC0xMTUtNjIuOC0yMC40LTEyNi0zOS0xODkuNS01NS45IDQ4LjItMTgxLjggOTYuNC0zNjMuNyAxNDQuNy01NDUuNW0tNTA5NC4wOCAzNTM4LjUgMTYzLjk4IDcwLjhjLTEzLjY1IDMxLjYtMjYuNzggNjMuNC0zOS40IDk1LjMtMTUuOTYgNDAuNC0zNC4xNyA2Ny44LTU1LjY2IDgyLjEtMjEuNDYgMTQuNC00Ny4wMyAxNi42LTc2LjgzIDYuMS01My41My0xOC42LTY1Ljg4LTcyLTMxLjYzLTE1OC45IDEyLjY5LTMxLjkgMjUuODctNjMuNyAzOS41NC05NS40em0tMTA1Ljg3LTQ1LjdhMzcxMy40OSAzNzEzLjQ5IDAgMCAwLTM4LjM4IDkyLjRjLTE3LjI3IDQzLjMtMzQuNjYgNzIuNy01My4zNiA4OC4yLTE4LjY0IDE1LjUtNDEuMTMgMTguNi02Ny42NCA5LjItMjQuNzEtOC44LTM4LjU4LTI2LjEtNDEuMTYtNTIuMi0yLjU3LTI2IDUuMTgtNjMuMiAyNC4zMi0xMTAuOCAxMS43NC0yOS4yIDIzLjg1LTU4LjIgMzYuMzUtODcuMiA0Ni42MiAyMC4yIDkzLjI1IDQwLjMgMTM5Ljg3IDYwLjR6bS0xNzEuMzctMjc2LjVjLTQwLjE2IDgxLjktNzcuMjUgMTY1LTExMS4yOSAyNDguOS00Ni40NSAxMTQuOC02MS45OSAyMDQuNS01Mi44NSAyNjUuMyA5LjI1IDYwLjkgNDMuODUgOTkuNSAxMDEuNTIgMTE2LjkgMzkuMjEgMTEuOCA3NC42NSAxMC41IDEwNi40Mi0zLjIgMzEuODEtMTMuNyA1NS44OC0zNyA3Mi44Ny03MC40bDQuNDQgMS41Yy03LjExIDUwLjktLjU2IDkwLjkgMTguMzcgMTE5LjYgMTguOTYgMjguOCA0OS44MyA0OS4xIDkyLjA2IDYxLjcgNTkuOTkgMTcuNyAxMTMuNDkgNy45IDE2MS4zNy0yNi45IDQ4LTM0LjkgODQuODYtODkuNCAxMTQuMjQtMTY1IDMyLjQ2LTgzLjQgNjguNTYtMTY1LjggMTA4LjMtMjQ2LjlsLTYxNS40NS0zMDEuNW0tMzg3LjQ2IDE0NTkuMSA0NDIuNTYgMjguMmM1MC41MyAzLjIgOTUuNTYtNi40IDEzNS4zNi0yNy43IDM5LjgxLTIxLjIgNzEuNy01Mi45IDk2LjYtOTQuOSAyNC45Mi00Mi4xIDQxLjM3LTkyLjMgNTAuNjctMTUxLjcgMTQuMDYtODkuNiA2LjM4LTE2Mi42LTI2LjQtMjIyLjgtMzIuNjktNjAuMS04NS44Mi0xMDEtMTYxLjk1LTEyMC4ybC00MjguMzItMTA3LjRjLTE0Ljc5IDU5LTI4LjE4IDExOC4zLTQwLjE1IDE3Ny44bDQxMS4zIDgyLjhjNTEuNzggMTAuNCA4Ny40IDI5LjYgMTA3LjMzIDU2LjggMTkuOTcgMjcuMiAyNS4yMyA2Ni4zIDE3LjE2IDExOC4xLTcuNzYgNTAuMS0yNC42NCA4NC45LTUyLjEyIDEwNC45LTI3LjQyIDE5LjktNjcuNDMgMjcuNC0xMjAuMjUgMjEuNi0xMzguNjgtMTUuNC0yNzcuMzctMzAuOC00MTYuMDUtNDYuMS02LjY2IDYwLjEtMTEuOTEgMTIwLjMtMTUuNzQgMTgwLjZtNjc3LjY1IDIxNi4zYy0yMjguNDQtMi4xLTQ1Ni44Ny00LjMtNjg1LjMxLTYuNC0uNTYgNjAuNi4yOSAxMjEuMiAyLjU2IDE4MS43IDIyOC4yOS04LjUgNDU2LjU3LTE3LjEgNjg0Ljg2LTI1LjctMS44Ny00OS44LTIuNTgtOTkuNy0yLjExLTE0OS42bTEzLjcxIDMyN2MtMjI3LjQ1IDIxLjMtNDU0LjkxIDQyLjUtNjgyLjM2IDYzLjggNS42NCA2MC40IDEyLjcgMTIwLjcgMjEuMTkgMTgwLjggMTg2LjYtMjYuMyAzNzMuMTktNTIuNiA1NTkuNzktNzlhMzMwNi45OSAzMzA2Ljk5IDAgMCAwIDU0LjkgMjkzLjFjMzguOTUtOS4xIDc3Ljg5LTE4LjMgMTE2Ljg0LTI3LjRhMzE5MC4xNyAzMTkwLjE3IDAgMCAxLTcwLjM2LTQzMS4zbS03Mi4yOSAxMDk4LjZjLTEzNC4yNSA1OC45LTIzNi4xNCAxNC44LTI5MC42Ny0xMzYuOC0xMC42My0yOS44LTIwLjg3LTU5LjgtMzAuNzEtODkuOSAxNDEuMzctNDYuMyAyODIuNzQtOTIuNSA0MjQuMTItMTM4LjggNi45OSAyMS4zIDE0LjIxIDQyLjcgMjEuNjUgNjMuOSA1MC4yNiAxNDEuOSAxMy44NCAyNDEuMS0xMjQuMzkgMzAxLjZ6bTcwLjIyIDE2MS44YzEwMS4zNC00OS44IDE2Mi4yNC0xMjAuNyAxODguMzItMjA4LjYgMjYuMTQtODguMiAxNS43OC0xODguNC0yNS41NC0zMDcuOC0yMi4wNC02My45LTQxLjk4LTEyOC4yLTU5Ljg0LTE5M2wtNjYwLjY5IDE4Mi4xYzI0LjA1IDg3LjMgNTEuMjEgMTczLjkgODEuNDkgMjU5LjcgNDcuMzcgMTM0IDExOC45MSAyMjUuNCAyMDQuNDcgMjcxLjQgODUuOSA0Ni4yIDE3Ni44NiA0Mi45IDI3MS43OS0zLjgiLz48cGF0aCB0cmFuc2Zvcm09Im1hdHJpeCguMTMzMzMgMCAwIC0uMTMzMzMgMCAzMjgyLjA1MykiIHN0eWxlPSJmaWxsOiM0OTRhNGI7ZmlsbC1vcGFjaXR5OjE7ZmlsbC1ydWxlOm5vbnplcm87c3Ryb2tlOm5vbmUiIGQ9Ik0xMjg1Ny41IDE2NTI0LjdjMCAzNjQuMi0xNjAuOCA1NDYuMy00ODIuNSA1NDYuM2gtMTkxLjN2LTExMDQuMWgxNTQuMmMzNDYuNCAwIDUxOS42IDE4NiA1MTkuNiA1NTcuOHptMzczLjQgOS4zYzAtMjc5LjEtNzkuNC00OTIuOC0yMzguMy02NDEuMy0xNTguOS0xNDguNC0zODguMy0yMjIuNy02ODguMy0yMjIuN2gtNDgwLjF2MTY5NS42aDUzMi4zYzI3Ni44IDAgNDkxLjctNzMuMSA2NDQuOC0yMTkuMiAxNTMuMS0xNDYuMiAyMjkuNi0zNTAuMyAyMjkuNi02MTIuNG0xMzI3LjktODY0aC05NzYuNXYxNjk1LjZoOTc2LjVWMTcwNzFoLTYxN3YtMzcyLjNoNTc0LjF2LTI5NC42aC01NzQuMXYtNDM3LjJoNjE3VjE1NjcwbTEzMjAuOSAxNjk1LjZoMzYzbC01NzYuNC0xNjk1LjZoLTM5MS45bC01NzUuMyAxNjk1LjZoMzYzbDMxOC45LTEwMDljMTcuOC01OS42IDM2LjItMTI4LjkgNTUuMS0yMDguMiAxOS03OS4yIDMwLjgtMTM0LjMgMzUuNC0xNjUuMiA4LjUgNzEuMSAzNy41IDE5NS42IDg3IDM3My40bDMyMS4yIDEwMDltODUxNC41LTg0NS41YzAtMTg5LjQgMzUuOS0zMzIuMSAxMDcuOS00MjcuOSA3MS45LTk1LjkgMTc5LjMtMTQzLjggMzIyLjQtMTQzLjggMjg2LjggMCA0MzAuMiAxOTAuNSA0MzAuMiA1NzEuNyAwIDM4MS45LTE0Mi42IDU3Mi45LTQyNy45IDU3Mi45LTE0My4xIDAtMjUwLjktNDguMS0zMjMuNi0xNDQuNC03Mi43LTk2LjItMTA5LTIzOS4xLTEwOS00MjguNXptMTIzNy40IDBjMC0yODAuNi02OS42LTQ5Ni40LTIwOC43LTY0Ny4xLTEzOS4yLTE1MC44LTMzOC43LTIyNi4yLTU5OC40LTIyNi4yLTI1OS44IDAtNDU5LjMgNzUuNC01OTguNSAyMjYuMi0xMzkuMSAxNTAuNy0yMDguNyAzNjcuMi0yMDguNyA2NDkuNHM2OS44IDQ5Ny43IDIwOS4zIDY0Ni42YzEzOS42IDE0OC44IDMzOS42IDIyMy4yIDYwMC4yIDIyMy4yIDI2MC41IDAgNDU5LjgtNzUgNTk3LjgtMjI1IDEzOC0xNTAgMjA3LTM2NS43IDIwNy02NDcuMW03MTAuOSA0Ny42aDExOC4zYzExMC42IDAgMTkzLjMgMjEuOCAyNDguMiA2NS41IDU0LjkgNDMuNyA4Mi4zIDEwNy4zIDgyLjMgMTkwLjggMCA4NC4yLTIzIDE0Ni41LTY5IDE4Ni43LTQ2IDQwLjItMTE4LjEgNjAuMy0yMTYuMiA2MC4zaC0xNjMuNnptODExLjggMjY5YzAtMTgyLjUtNTctMzIyLTE3MS00MTguNi0xMTQuMS05Ni43LTI3Ni4yLTE0NS00ODYuNS0xNDVoLTE1NC4zVjE1NjcwSDI1OTgzdjE2OTUuNmg1NDEuNmMyMDUuNyAwIDM2Mi00NC4zIDQ2OS4xLTEzMi44IDEwNy4xLTg4LjYgMTYwLjYtMjIwLjYgMTYwLjYtMzk2LjFtMTMyMS02OTUuOGMwLTE1My4xLTU1LjEtMjczLjctMTY1LjMtMzYxLjktMTEwLjItODguMS0yNjMuNS0xMzIuMi00NTkuOC0xMzIuMi0xODEgMC0zNDEgMzQuMS00ODAuMiAxMDIuMXYzMzRjMTE0LjUtNTEgMjExLjMtODcgMjkwLjYtMTA3LjkgNzkuMi0yMC44IDE1MS43LTMxLjMgMjE3LjQtMzEuMyA3OC45IDAgMTM5LjQgMTUuMSAxODEuNSA0NS4yIDQyLjEgMzAuMiA2My4yIDc1IDYzLjIgMTM0LjYgMCAzMy4yLTkuMyA2Mi44LTI3LjggODguNy0xOC42IDI1LjktNDUuOCA1MC44LTgxLjggNzQuOC0zNS45IDI0LTEwOS4yIDYyLjItMjE5LjggMTE0LjgtMTAzLjYgNDguNy0xODEuMyA5NS41LTIzMy4xIDE0MC4zLTUxLjggNDQuOS05My4xIDk3LjEtMTI0IDE1Ni42LTMxIDU5LjUtNDYuNCAxMjkuMS00Ni40IDIwOC44IDAgMTQ5LjkgNTAuOCAyNjcuOSAxNTIuNSAzNTMuNyAxMDEuNiA4NS44IDI0Mi4xIDEyOC43IDQyMS41IDEyOC43IDg4LjIgMCAxNzIuMi0xMC40IDI1Mi4zLTMxLjMgODAtMjAuOSAxNjMuNy01MC4zIDI1MS04OC4ybC0xMTUuOS0yNzkuNGMtOTAuNSAzNy4xLTE2NS4zIDYzLTIyNC40IDc3LjctNTkuMiAxNC42LTExNy40IDIyLTE3NC42IDIyLTY4IDAtMTIwLjItMTUuOS0xNTYuNS00Ny42LTM2LjQtMzEuNy01NC41LTczLTU0LjUtMTI0IDAtMzEuOCA3LjMtNTkuNCAyMi04M3MzOC4xLTQ2LjQgNzAuMS02OC40YzMyLjEtMjIgMTA4LjEtNjEuNyAyMjcuOS0xMTguOSAxNTguNS03NS43IDI2Ny4yLTE1MS43IDMyNS45LTIyNy45IDU4LjgtNzYuMSA4OC4yLTE2OS41IDg4LjItMjgwIi8+PC9zdmc+;" vertex="1" parent="1">
          <mxGeometry x="41" y="40" width="1200" height="738" as="geometry" />
        </mxCell>
        <mxCell id="uYhiXO7AZnuXkb5iHW7L-2" value="" style="shape=image;verticalLabelPosition=bottom;labelBackgroundColor=default;verticalAlign=top;aspect=fixed;imageAspect=0;editableCssRules=.*;image=data:image/svg+xml,PHN2ZyB4bWxucz0iaHR0cDovL3d3dy53My5vcmcvMjAwMC9zdmciIHZpZXdCb3g9IjAuMDAwNDkxMDM1MTcwODUzMTM4IC0wLjAwMTEyNTA5NzI3NDc4MDI3MzQgNTQ1LjczMTQ0NTMxMjUgMTkzLjMxMTEyNjcwODk4NDM4IiB3aWR0aD0iOTIzLjA3NTk4NDg1MjI0MzciIGhlaWdodD0iNTMzLjMzNjQ0MTg3MTIxNzMiPjxnIGZpbGw9Im5vbmUiIGZpbGwtcnVsZT0iZXZlbm9kZCI+PHBhdGggZD0iTTMxNi42NTYgNjQuOTU1Yy0xNS4yODkgMC0yNC43ODYgMTIuMTQ2LTI0Ljc4NiAzMS43czkuNDk3IDMxLjcgMjQuNzg2IDMxLjdjNS43NDQgMCAxMS4wODEtMS42MjkgMTUuNDMyLTQuNzEybC4yMTEtLjE0OXYtMjEuOTY4aC0yMnYtNy44aDMxdjMyLjczNWMtNi41NjMgNi4zNDQtMTUuMDc5IDkuNjk0LTI0LjY0MyA5LjY5NC0yMC41MjQgMC0zMy43ODYtMTUuNTA1LTMzLjc4Ni0zOS41IDAtMjMuOTk1IDEzLjI2Mi0zOS41IDMzLjc4Ni0zOS41IDkuOTkyIDAgMTguNDI3IDMuNjQ4IDI0LjQzIDEwLjU1NmwtNS45OTYgNC45ODJjLTQuNTI2LTUuMTM0LTEwLjcyNi03LjczOC0xOC40MzQtNy43Mzh6bTE3My4wOTMgNjkuOTVoLTYuOTQ4bC0yLjMzNC02LjQ0OC0uNTUzLjQ5N2MtLjA3Ny4wNjktNy44MjkgNi45NTEtMTcuNTg4IDYuOTUxLTkuODUgMC0xNy02LjU1NC0xNy0xNS41ODMgMC0xMy4wNzIgMTEuMjg0LTE1LjgxNiAyMC43NS0xNS44MTYgNy4zNzMgMCAxMy45NzggMS42NiAxNC4wNDQgMS42NzdsLjYyMy4xNTl2LTEuNTg2YzAtNy4xMTUtNC40NDItMTAuNzIzLTEzLjIwNS0xMC43MjMtNS4zMDggMC0xMC45MTcgMS4zMTEtMTYuMjQ5IDMuNzkybC0zLjYwMy02LjIxMmM0LjcwNi0zLjA2MiAxMS44NTItNi41OCAxOS44NTItNi41OCAxMy45MDggMCAyMi4yMTEgNy41NTYgMjIuMjExIDIwLjIxMXptLTE5LjE5NS0yMy40NzNjLTEwLjYxNyAwLTE2LjIyOCAzLjA3NC0xNi4yMjggOC44OSAwIDQuMDYxIDMuMDY1IDYuNTgzIDggNi41ODMgOC4xMyAwIDE1LjI2Ny0zLjMzMiAxOC4yMDItNS4zMDJsLjIyMS0uMTQ4di05LjE4bC0uNDE2LS4wNzFjLS4wNDUtLjAwOC00LjU5LS43NzItOS43NzktLjc3MnptLTMwLjIzIDE1LjY3M3Y3LjhoLTI5Ljk5OHYtNzRoOXY2Ni4yem04MC40ODMgOS4wNWMtNS44NDUgMC0xMi4yNTMtLjgwNC0xOS4wNDktMi4zOTFWNjAuOTA1aDl2MjguMDYzbC43NzMtLjUwMmMuMDUtLjAzMiA1LjA3LTMuMjQgMTEuOTg4LTMuMjQgMS4zOCAwIDIuNzYxLjEyOSA0LjA5NS4zODEgMTEuMzQ1IDIuMzI0IDE4LjExOCAxMS40NzggMTguMTE4IDI0LjQ4NyAwIDE1LjM0NC0xMC4yNDkgMjYuMDYxLTI0LjkyNSAyNi4wNjF6bTEuMDAxLTQyLjEyMmMtMy41NzkgMC03LjMyMyAxLjIyNS0xMC44MjYgMy41NDFsLS4yMjQuMTQ5djI5LjgzNGwuNDI3LjA2M2MzLjM4LjQ5NSA2LjYxNi43NDcgOS42MjIuNzQ3IDkuMzc2IDAgMTUuOTI1LTcuNTE1IDE1LjkyNS0xOC4yNzMgMC0xMC4yMDctNS40NC0xNi4wNjEtMTQuOTI0LTE2LjA2MXptLTEyMy40OS04LjEyOHY3LjhoLTE1djIyLjljMCAyLjgwNSAxLjA5MSA1LjQ0MiAzLjA3NSA3LjQyNGExMC40MjQgMTAuNDI0IDAgMDA3LjQyNCAzLjA3Nmg0LjV2Ny44aC00LjVjLTEwLjc1MiAwLTE5LjUtOC43NDgtMTkuNS0xOS41di01NC41aDl2MjV6bS00NS4wMS0yMGg5djloLTl6bTAgMjBoOXY0OWgtOXoiIGZpbGw9IiM4QzkyOUQiLz48cGF0aCBkPSJNMTA0LjkyNyAxOTMuMzFsMzguNjQtMTE4LjkyMWgtNzcuMjh6IiBmaWxsPSIjRTI0MzI5Ii8+PHBhdGggZD0iTTEwNC45MjcgMTkzLjMxTDY2LjI4NyA3NC4zODlIMTIuMTM0eiIgZmlsbD0iI0ZDNkQyNiIvPjxwYXRoIGQ9Ik0xMi4xMzQgNzQuMzg5TC4zOTIgMTEwLjUyOGE4IDggMCAwMDIuOTA2IDguOTQ0bDEwMS42MyA3My44Mzh6IiBmaWxsPSIjRkNBMzI2Ii8+PHBhdGggZD0iTTEyLjEzNCA3NC4zOWg1NC4xNTNMNDMuMDE0IDIuNzYzYy0xLjE5Ny0zLjY4Ni02LjQxLTMuNjg1LTcuNjA4IDB6IiBmaWxsPSIjRTI0MzI5Ii8+PHBhdGggZD0iTTEwNC45MjcgMTkzLjMxbDM4LjY0LTExOC45MjFoNTQuMTUzeiIgZmlsbD0iI0ZDNkQyNiIvPjxwYXRoIGQ9Ik0xOTcuNzIgNzQuMzg5bDExLjc0MiAzNi4xMzlhOCA4IDAgMDEtMi45MDYgOC45NDRMMTA0LjkyNyAxOTMuMzF6IiBmaWxsPSIjRkNBMzI2Ii8+PHBhdGggZD0iTTE5Ny43MiA3NC4zOWgtNTQuMTUzTDE2Ni44NCAyLjc2M2MxLjE5Ny0zLjY4NiA2LjQxMS0zLjY4NSA3LjYwOCAweiIgZmlsbD0iI0UyNDMyOSIvPjwvZz48L3N2Zz4=;" vertex="1" parent="1">
          <mxGeometry x="310" y="40" width="103.9" height="60" as="geometry" />
        </mxCell>
        <mxCell id="uYhiXO7AZnuXkb5iHW7L-3" value="" style="shape=image;verticalLabelPosition=bottom;labelBackgroundColor=default;verticalAlign=top;aspect=fixed;imageAspect=0;editableCssRules=.*;image=data:image/svg+xml,PHN2ZyB4bWxucz0iaHR0cDovL3d3dy53My5vcmcvMjAwMC9zdmciIHhtbDpzcGFjZT0icHJlc2VydmUiIHN0eWxlPSJlbmFibGUtYmFja2dyb3VuZDpuZXcgMCAwIDI1MDAgMTA0NC4yIiB2aWV3Qm94PSIwLjA0OTk5OTIzNzA2MDU0Njg3NSAwIDI0OTkuOTQ5OTUxMTcxODc1IDEwNDQuMDUwMDQ4ODI4MTI1IiB5PSIwIiB4PSIwIiBpZD0iQ2FtYWRhXzEiIHZlcnNpb249IjEuMSIgd2lkdGg9IjI0OTkuOTQ5OTUxMTcxODc1IiBoZWlnaHQ9IjEwNDQuMDUwMDQ4ODI4MTI1Ij48c3R5bGU+LnN0MHtmaWxsOiM0MTMwMDB9PC9zdHlsZT48cGF0aCBkPSJNMTQ5OC4yIDM1NS40Yy01NC44IDAtOTUuNiAyNi45LTk1LjYgOTEuNyAwIDQ4LjggMjYuOSA4Mi43IDkyLjcgODIuNyA1NS44IDAgOTMuNi0zMi45IDkzLjYtODQuNyAwLTU4LjgtMzMuOS04OS43LTkwLjctODkuN3ptLTEwOS42IDQ1Ny40Yy0xMyAxNS45LTI1LjkgMzIuOC0yNS45IDUyLjggMCAzOS44IDUwLjggNTEuOCAxMjAuNSA1MS44IDU3LjggMCAxMzYuNS00IDEzNi41LTU3LjggMC0zMS45LTM3LjktMzMuOS04NS43LTM2LjlsLTE0NS40LTkuOXptMjk0LjktNDU0LjRjMTcuOSAyMi45IDM2LjkgNTQuOCAzNi45IDEwMC42IDAgMTEwLjYtODYuNyAxNzUuMy0yMTIuMiAxNzUuMy0zMS45IDAtNjAuOC00LTc4LjctOC45bC0zMi45IDUyLjggOTcuNiA2YzE3Mi40IDExIDI3NCAxNiAyNzQgMTQ4LjQgMCAxMTQuNi0xMDAuNiAxNzkuMy0yNzQgMTc5LjMtMTgwLjMgMC0yNDkuMS00NS44LTI0OS4xLTEyNC41IDAtNDQuOSAxOS45LTY4LjcgNTQuOC0xMDEuNi0zMi45LTEzLjktNDMuOC0zOC44LTQzLjgtNjUuNyAwLTIxLjkgMTAuOS00MS45IDI4LjktNjAuOCAxNy45LTE4LjkgMzcuOC0zNy45IDYxLjgtNTkuOC00OC44LTIzLjktODUuNy03NS43LTg1LjctMTQ5LjUgMC0xMTQuNiA3NS43LTE5My4yIDIyOC4xLTE5My4yIDQyLjkgMCA2OC44IDMuOSA5MS43IDEwaDE5NC4zdjg0LjdsLTkxLjcgNi45TTE5NTAuNiAxNzcuNGMtNTYuOCAwLTg5LjctMzIuOS04OS43LTg5LjcgMC01Ni43IDMyLjktODcuNyA4OS43LTg3LjcgNTcuOCAwIDkwLjcgMzAuOSA5MC43IDg3LjctLjEgNTYuOC0zMi45IDg5LjctOTAuNyA4OS43ek0xODIyIDc3Ni4xdi03OC43bDUwLjgtN2MxNC0yIDE1LjktNSAxNS45LTIwVjM3Ny42YzAtMTAuOS0zLTE3LjktMTMtMjAuOWwtNTMuOC0xOC45IDExLTgwLjdoMjA2LjN2NDEzLjVjMCAxNiAxIDE3LjkgMTUuOSAyMGw1MC44IDd2NzguN2wtMjgzLjktLjJNMjUwMCA3MzcuNWMtNDIuOSAyMC45LTEwNS42IDM5LjgtMTYyLjQgMzkuOC0xMTguNiAwLTE2My40LTQ3LjgtMTYzLjQtMTYwLjR2LTI2MWMwLTYgMC0xMC04LTEwaC02OS43di04OC43Yzg3LjctMTAgMTIyLjYtNTMuOCAxMzMuNS0xNjIuNGg5NC43djE0MS41YzAgNi45IDAgMTAgOCAxMGgxNDAuNXY5OS42aC0xNDguNVY1ODRjMCA1OC44IDE0IDgxLjcgNjcuNyA4MS43IDI3LjkgMCA1Ni44LTcgODAuNy0xNS45bDI2LjkgODcuNyIgY2xhc3M9InN0MCIvPjxwYXRoIHN0eWxlPSJmaWxsOiNmMDUxMzMiIGQ9Ik0xMDIzLjcgNDc2IDU2OC4xIDIwLjVjLTI2LjItMjYuMi02OC44LTI2LjItOTUgMGwtOTQuNiA5NC42IDEyMCAxMjBjMjcuOS05LjQgNTkuOS0zLjEgODIuMSAxOS4xIDIyLjMgMjIuNCAyOC42IDU0LjYgMTkgODIuNmwxMTUuNyAxMTUuN2MyOC05LjYgNjAuMy0zLjQgODIuNiAxOSAzMS4yIDMxLjIgMzEuMiA4MS44IDAgMTEzLjEtMzEuMiAzMS4yLTgxLjggMzEuMi0xMTMuMSAwLTIzLjUtMjMuNS0yOS4zLTU4LTE3LjQtODdMNTU5LjUgMzg5Ljd2MjgzLjhjNy42IDMuOCAxNC44IDguOCAyMS4xIDE1LjEgMzEuMiAzMS4yIDMxLjIgODEuOCAwIDExMy4xLTMxLjIgMzEuMi04MS45IDMxLjItMTEzLjEgMC0zMS4yLTMxLjMtMzEuMi04MS45IDAtMTEzLjEgNy43LTcuNyAxNi42LTEzLjUgMjYuMi0xNy40VjM4NC43Yy05LjUtMy45LTE4LjUtOS43LTI2LjItMTcuNC0yMy43LTIzLjYtMjkuNC01OC40LTE3LjItODcuNEwzMzIgMTYxLjYgMTkuNyA0NzMuOWMtMjYuMiAyNi4zLTI2LjIgNjguOCAwIDk1bDQ1NS42IDQ1NS41YzI2LjIgMjYuMiA2OC44IDI2LjIgOTUgMEwxMDIzLjggNTcxYzI2LjItMjYuMSAyNi4yLTY4LjctLjEtOTUiLz48L3N2Zz4=;" vertex="1" parent="1">
          <mxGeometry x="440" y="50" width="95.81" height="40" as="geometry" />
        </mxCell>
        <mxCell id="uYhiXO7AZnuXkb5iHW7L-5" value="" style="shape=image;verticalLabelPosition=bottom;labelBackgroundColor=default;verticalAlign=top;aspect=fixed;imageAspect=0;editableCssRules=.*;image=data:image/svg+xml,PHN2ZyB4bWxuczp4bGluaz0iaHR0cDovL3d3dy53My5vcmcvMTk5OS94bGluayIgeG1sbnM9Imh0dHA6Ly93d3cudzMub3JnLzIwMDAvc3ZnIiBoZWlnaHQ9IjQwLjk4MDkyMDc5MTYyNTk4IiB3aWR0aD0iMTIyLjE3MzgyMDQ5NTYwNTQ3IiB2aWV3Qm94PSItMi4xNzk1Mjc5OTc5NzA1ODEgNy4yMzE0MDkwNzI4NzU5NzcgMTIyLjE3MzgyMDQ5NTYwNTQ3IDQwLjk4MDkyMDc5MTYyNTk4Ij48ZGVmcz48Y2xpcFBhdGggaWQ9IkEiPjxwYXRoIGQ9Ik03NiAydjQ2SDU0djIzSDM1LjU4bC0uMjA2IDJjLTEuMTUgMTIuNTMgMS4wMzYgMjQuMDg4IDYuMDYzIDMzLjk3bDEuNjg4IDMuMDNjMSAxLjgxNyAyLjIgMy41MjMgMy40MzggNS4xODhzMS42ODYgMi41ODMgMi40NyAzLjY4OEM2Mi4zMiAxMzMuOCA4Mi4xMyAxNDEgMTA1IDE0MWM1MC42NDggMCA5My42MzMtMjIuNDM4IDExMi42NTYtNzIuODQ0QzIzMS4xNTMgNjkuNTQgMjQ0LjEgNjYuMDggMjUwIDU0LjU2M2MtOS40LTUuNDI0LTIxLjQ3OC0zLjY4NS0yOC40MzctLjE4N0wyNDAgMmwtNzIgNDZoLTIzVjJ6Ii8+PC9jbGlwUGF0aD48L2RlZnM+PGcgdHJhbnNmb3JtPSJtYXRyaXgoLjE4NDY1OSAwIDAgLjE4NDY1OSAzLjA3MDQ3MiAzMS42OTgxMzEpIj48cGF0aCBzdHJva2UtbGluZWNhcD0icm91bmQiIHN0cm9rZT0iIzM5NGQ1NCIgc3Ryb2tlLWxpbmVqb2luPSJyb3VuZCIgc3Ryb2tlLXdpZHRoPSIxMC41IiBmaWxsPSJub25lIiBkPSJNNDY3LjgyIDI4LjI0bC0uMDQyLTI1LjU1OC0uMTI3LTQ1LjY1N000OTMuNTA1LTIzLjNMNDY3Ljc3OCAyLjY4bDI1Ljg1NCAyNS42NDJtLTE3Mi4zNDctMjUuM2MuMTI0LTUuNDgtMS40Ny0xMS4wOC00LjY5Ny0xNS42MTQtNC42NS02LjUzLTEyLjE4LTExLTIwLjQzOC0xMS4wODYtLjU1IDAtMS4wOTYgMC0xLjY1LjA0Mi0zLjI2NS4yMDItNi40MjcuNjU1LTkuMjI1IDEuODItMTguNCA3LjY1Ni0yMS42NiAzMy4yMDgtNi4xMzYgNDQuNzcgMTMuNDQ1IDEwIDMzLjAwMiA1LjkyNCAzOS43NzUtOS4zNSAxLjQzLTMuMjI4IDIuMzctNy4yOTcgMi4zNy0xMC41OHYtNDYuMjA3TTQ0NS40MzYtMjAuNjNjLTMuOC0yLjQ2Mi04LjI1NS0zLjM1LTEyLjY1Mi0zLjM0My0uNDc3IDAtLjk2Ny4wMjQtMS4zOTYuMDQyLTEyLjcxMy41NDctMjQuNSA5LjUzLTI0LjUgMjYuOTU0IDAgMjAuNiAyMi4wODggMzEuNzE4IDM4LjYgMjIuMDAzbTc0LjEzNS0yLjI0M2wzOS4wNTYtMzMuNDdzLS45NS0xLjc5Ny0xLjU2Ni0yLjYyM2MtNS4yNTctNy4wNTYtMTMuMy0xMC41OC0yMS43NS0xMC41OC0yMC45IDAtMzYuNTgyIDI3LjAzNy0xNS43NCA0Ni42NzMgMS40NDMgMS4zNiAzLjQyNSAyLjQyNSA1LjYyOCAzLjM0MyA3LjY0NyAzLjE4OCAxOC4xMTcgMi45MjcgMjMuNzgtMS4yN20tMTg1LTQ4LjY2M2MtLjU5My4wMS0xLjE4Mi4wNzQtMS43NzcuMDg1LTE1Ljg1NS4zLTI3LjI4NiAxNi43Ni0yMy44MjMgMzIuMDMyIDMuMzc1IDE0Ljg4MyAxOS42MzQgMjMuNjk2IDMzLjY4MiAxOC44MyAxNi4zNi00LjMgMjMuMDMtMjQuOSAxNC4wNDgtMzguODAyLTQuOTEzLTcuNi0xMy4yNC0xMi4zMTMtMjIuMTMtMTIuMTQ0em0yNDAuNzI2LjUwOGMtNi40Mi4wMTctMTIuNjczIDIuMjY2LTE3LjMwNyA2LjYtNy4zMDggNi4wMy04Ljg5NCAxMy42NDctOC44IDIzLjI3M2wuMjEyIDIxLjg3NyIvPjxwYXRoIGZpbGw9IiMzOTRkNTQiIGQ9Ik0xNDcuNDg4LTM5LjI2OGgyMi44NjZ2MjMuMzc1aDExLjU2MmM1LjM0IDAgMTAuODMtLjk1IDE1Ljg4Ny0yLjY2NCAyLjQ4NC0uODQyIDUuMjczLTIuMDE1IDcuNzI0LTMuNS0zLjIyOC00LjIxNC00Ljg3Ni05LjUzNi01LjM2LTE0Ljc4LS42Ni03LjEzNC43OC0xNi40MiA1LjYtMjIuMDA0bDIuNDA0LTIuNzggMi44NjQgMi4zMDJjNy4yIDUuNzk0IDEzLjI3NiAxMy45IDE0LjM0NSAyMy4xMTggOC42ODMtMi41NTQgMTguODc4LTEuOTUgMjYuNTMgMi40NjdsMy4xNCAxLjgxMi0xLjY1MyAzLjIyNkMyNDYuOTMzLTE2LjA1MyAyMzMuNC0xMi4xNCAyMjAuMTctMTIuODMzYy0xOS43OTYgNDkuMzEtNjIuODk3IDcyLjY1My0xMTUuMTU2IDcyLjY1My0yNyAwLTUxLjc3LTEwLjA5My02NS44NzYtMzQuMDQ3LS44MjctMS40ODgtMS41MzUtMy4wNDQtMi4yODYtNC41NzJDMzIuMDg0IDEwLjY1NyAzMC41LS44OTQgMzEuNTc0LTEyLjQzNmwuMzIyLTMuNDU3SDUxLjQ1di0yMy4zNzVoMjIuODY2di0yMi44NjZoNDUuNzMyVi04NWgyNy40NHY0NS43MzIiLz48ZyBjbGlwLXBhdGg9InVybCgjQSkiIHRyYW5zZm9ybT0idHJhbnNsYXRlKDAgLTg1KSI+PGcgaWQ9IkIiPjxnIHRyYW5zZm9ybT0idHJhbnNsYXRlKDAgLTIyLjg2NikiIGlkPSJDIj48cGF0aCBmaWxsPSIjMDBhY2QzIiBkPSJNMTIzLjg2IDMuOGgxOS44MTh2MTkuODE3SDEyMy44NnoiLz48cGF0aCBmaWxsPSIjMjBjMmVmIiBkPSJNMTIzLjg2IDI2LjY3NmgxOS44MTh2MTkuODE4SDEyMy44NnoiLz48cGF0aCBzdHJva2U9IiMzOTRkNTQiIHN0cm9rZS13aWR0aD0iMS41NiIgZD0iTTEyNi4yOTIgMjEuOTc3VjUuNDZtMi45NzIgMTYuNTE2VjUuNDZtMy4wMDIgMTYuNTE2VjUuNDZtMy4wMDMgMTYuNTE2VjUuNDZtMy4wMDMgMTYuNTE2VjUuNDZtMi45NyAxNi41MTZWNS40NiIgaWQ9IkQiLz48dXNlIHk9IjIyLjg2NiIgeGxpbms6aHJlZj0iI0QiLz48L2c+PHVzZSB0cmFuc2Zvcm09Im1hdHJpeCgxIDAgMCAtMSAyMi44NjYgNC41NzI2NTEpIiB4bGluazpocmVmPSIjQyIvPjwvZz48dXNlIHk9IjQ1LjczMiIgeD0iLTkxLjQ2NCIgeGxpbms6aHJlZj0iI0IiLz48dXNlIHk9IjQ1LjczMiIgeD0iLTQ1LjczMiIgeGxpbms6aHJlZj0iI0IiLz48dXNlIHk9IjQ1LjczMiIgeGxpbms6aHJlZj0iI0IiLz48cGF0aCBmaWxsPSIjMTdiNWViIiBkPSJNMjIxLjU3IDU0LjM4YzEuNTMzLTExLjkxNS03LjM4NC0yMS4yNzUtMTIuOTE0LTI1LjcxOC02LjM3MyA3LjM2OC03LjM2MyAyNi42NzggMi42MzUgMzQuODA3LTUuNTggNC45NTYtMTcuMzM3IDkuNDQ4LTI5LjM3NiA5LjQ0OEgzNEMzMi44MyA4NS40ODQgMzQgMTQ2IDM0IDE0NmgyMTdsLS45ODctOTEuNDI0Yy05LjQtNS40MjQtMjEuNDg0LTMuNjk0LTI4LjQ0My0uMTk3Ii8+PHBhdGggZmlsbC1vcGFjaXR5PSIuMTciIGQ9Ik0zNCA4OXY1N2gyMTdWODkiLz48cGF0aCBmaWxsPSIjZDRlZGYxIiBkPSJNMTExLjIzNyAxNDAuOWMtMTMuNTQtNi40MjUtMjAuOTcyLTE1LjE2LTI1LjEwNy0yNC42OTRMNDUgMTE4bDIxIDI4IDQ1LjIzNy01LjEiLz48cGF0aCBmaWxsLW9wYWNpdHk9Ii4wODUiIGQ9Ik0yMjIuNSA1My45Mzh2LjAzYy0yMC44NiAyNi45LTUwLjc4MyA1MC4zOC04Mi45MDYgNjIuNzItMjguNjU1IDExLjAwOC01My42MzggMTEuMDYtNzAuODc1IDIuMjItMS44NTYtMS4wNDgtMy42NzYtMi4yMTItNS41LTMuMzEyLTEyLjYzNy04LjgzMi0xOS43NTQtMjMuNDQtMTkuMTU2LTQyLjY4N0gzNFYxNDZoMjE3VjUwaC0yNXoiLz48L2c+PHBhdGggc3Ryb2tlLWxpbmVjYXA9InJvdW5kIiBzdHJva2U9IiMzOTRkNTQiIHN0cm9rZS13aWR0aD0iMy40IiBmaWxsPSJub25lIiBkPSJNNDUuNjI1IDMyLjAzYzE0LjE2NS43NzUgMjkuMjgyLjkxNCA0Mi40Ny0zLjIyIi8+PHBhdGggZmlsbD0iI2Q0ZWRmMSIgZD0iTTEwMi4xNyAyMS45NmE1LjQ3IDUuNDcgMCAwIDEtNS40NjcgNS40NjcgNS40NyA1LjQ3IDAgMCAxLTUuNDY4LTUuNDY3IDUuNDcgNS40NyAwIDAgMSA1LjQ2OC01LjQ2OCA1LjQ3IDUuNDcgMCAwIDEgNS40NjcgNS40Njh6Ii8+PHBhdGggZmlsbD0iIzM5NGQ1NCIgZD0iTTk4LjEyIDE4LjMwOGExLjYgMS42IDAgMCAwIC43OTggMi45ODFjLjYwNSAwIDEuMTMtLjMzNiAxLjQwMi0uODMyLjE5Mi40NjIuMjk4Ljk3LjI5OCAxLjUwMiAwIDIuMTYyLTEuNzUzIDMuOTE1LTMuOTE2IDMuOTE1cy0zLjkxNi0xLjc1My0zLjkxNi0zLjkxNWEzLjkyIDMuOTIgMCAwIDEgMy45MTYtMy45MTcgMy45MSAzLjkxIDAgMCAxIDEuNDE4LjI2NXpNMCA1LjE2MmgyNTQuMzI3Yy01LjUzOC0xLjQwNS0xNy41Mi0zLjMwMi0xNS41NDUtMTAuNTYtMTAuMDcgMTEuNjUyLTM0LjM1MyA4LjE3NC00MC40OCAyLjQzLTYuODI1IDkuODk4LTQ2LjU1NSA2LjEzNi00OS4zMjYtMS41NzUtOC41NTYgMTAuMDQtMzUuMDY3IDEwLjA0LTQzLjYyMyAwLTIuNzcyIDcuNy00Mi41IDExLjQ3My00OS4zMjcgMS41NzUtNi4xMjggNS43NDYtMzAuNCA5LjIyMy00MC40OC0yLjQzQzE3LjUyMiAxLjg2IDUuNTQgMy43NTggMCA1LjE2MiIvPjwvZz48L3N2Zz4=;" vertex="1" parent="1">
          <mxGeometry x="690" y="47.02" width="136.78" height="45.97" as="geometry" />
        </mxCell>
        <mxCell id="uYhiXO7AZnuXkb5iHW7L-6" value="" style="shape=image;verticalLabelPosition=bottom;labelBackgroundColor=default;verticalAlign=top;aspect=fixed;imageAspect=0;editableCssRules=.*;image=data:image/svg+xml,PHN2ZyB4bWxuczp4bGluaz0iaHR0cDovL3d3dy53My5vcmcvMTk5OS94bGluayIgeG1sbnM9Imh0dHA6Ly93d3cudzMub3JnLzIwMDAvc3ZnIiB4bWw6c3BhY2U9InByZXNlcnZlIiBzdHlsZT0iZW5hYmxlLWJhY2tncm91bmQ6bmV3IDAgMCA4MDAgNjAwOyIgdmlld0JveD0iMjA1LjM5OTk5Mzg5NjQ4NDM4IDU3Ljc5OTM2OTgxMjAxMTcyIDM4OC45MDM5NjExODE2NDA2IDQ4My41MDA2MTAzNTE1NjI1IiB5PSIwcHgiIHg9IjBweCIgaWQ9ImthdG1hbl8xIiB2ZXJzaW9uPSIxLjAiIHdpZHRoPSIzODguOTAzOTYxMTgxNjQwNiIgaGVpZ2h0PSI0ODMuNTAwNjEwMzUxNTYyNSI+JiN4YTs8c3R5bGUgdHlwZT0idGV4dC9jc3MiPiYjeGE7CS5zdDB7ZmlsbDojRkZGRkZGO30mI3hhOwkuc3Qxe2ZpbGw6IzZBNjY2Nzt9JiN4YTsJLnN0MntjbGlwLXBhdGg6dXJsKCNTVkdJRF8wMDAwMDEzODU2MTUzODE1Nzk4MzgzMTMzMDAwMDAxMjY2NzU1ODU3NzgzNzIzMzg1M18pO30mI3hhOwkuc3Qze2ZpbGw6dXJsKCNwYXRoNDZfMDAwMDAxNTA4MjE4Mjg5NTQ3NzE4NTAxMjAwMDAwMDkxNTcxMjMwMTQ2Njc4MTA3MTZfKTt9JiN4YTsJLnN0NHtjbGlwLXBhdGg6dXJsKCNTVkdJRF8wMDAwMDAwODEwOTQ0NjczNTIyNjIyODcxMDAwMDAxNzA2NzkzNDM0OTI5MzYwNjI3NV8pO30mI3hhOwkuc3Q1e2ZpbGw6dXJsKCNwYXRoNjRfMDAwMDAxNzE3MTE1NjE0MzcwNjE2MjAzNDAwMDAwMDkyODA1MDA1ODI5MTcxODQxODVfKTt9JiN4YTsJLnN0NntjbGlwLXBhdGg6dXJsKCNTVkdJRF8wMDAwMDA0MDU1ODQxNjQ4NTY3NDA5NDc2MDAwMDAwMDQwOTQ4NzI0MzU5MTcxODUzN18pO30mI3hhOwkuc3Q3e2ZpbGw6dXJsKCNwYXRoODJfMDAwMDAxODEwNjE1MDc1MzQ4MTc3NDI2NTAwMDAwMDY2MjI1OTk2OTQxNzA5Mjk1NjVfKTt9JiN4YTsJLnN0OHtjbGlwLXBhdGg6dXJsKCNTVkdJRF8wMDAwMDA1NTY5MTY0MzgwMTEzOTQxMzE2MDAwMDAwMjgyMTQ2NTIwMjIyNTU4MTY5OV8pO30mI3hhOwkuc3Q5e2ZpbGw6dXJsKCNwYXRoMTAwXzAwMDAwMTQyMTUwNzc3MzM0ODI5OTk0ODAwMDAwMDA2NDA5NTQwNTczOTkzOTI1NzYyXyk7fSYjeGE7CS5zdDEwe2NsaXAtcGF0aDp1cmwoI1NWR0lEXzAwMDAwMTc5NjExMTAxOTcwNzMxNDk0NTgwMDAwMDA2MjQwNjQ5OTYxMTQzNTQ1MjcwXyk7fSYjeGE7CS5zdDExe2ZpbGw6dXJsKCNwYXRoMTE4XzAwMDAwMDUzNTM4MjU1NTM2ODc1MDE1NzgwMDAwMDEwOTg0ODcxMzU0ODc0MDY4OTEzXyk7fSYjeGE7CS5zdDEye2NsaXAtcGF0aDp1cmwoI1NWR0lEXzAwMDAwMDYwNzQ3MDgxOTUxOTkxNTE3NzEwMDAwMDEyMjI0NTc0NTg1MjU2ODk3OTY4Xyk7fSYjeGE7CS5zdDEze2ZpbGw6dXJsKCNwYXRoMTQyXzAwMDAwMTE2OTIzMTk2MTYyMzcwMDQ2NDIwMDAwMDE2NjM3MDcxNTM3MjE1NjU3OTE5Xyk7fSYjeGE7CS5zdDE0e2NsaXAtcGF0aDp1cmwoI1NWR0lEXzAwMDAwMDU5MzA1MTQzNTQxMzU3NzE4NjUwMDAwMDAwMDQ2NTY3MDEzODExNjcyNzQxXyk7fSYjeGE7CS5zdDE1e2ZpbGw6dXJsKCNwYXRoMTYwXzAwMDAwMTU4MDE0MDQ3MDU4NTQyMDU2OTIwMDAwMDA2MTQ2NTE2MTIxMTIyMjg1OTkyXyk7fSYjeGE7CS5zdDE2e2NsaXAtcGF0aDp1cmwoI1NWR0lEXzAwMDAwMDIxMTA0NDUzMDI3NjE0MzEyNjYwMDAwMDA0OTQ2MTg3MDkyMTAyMzU0MzUzXyk7fSYjeGE7CS5zdDE3e2ZpbGw6dXJsKCNwYXRoMTc4XzAwMDAwMTU1ODM0NDQ0NTg0MDkwMDE3OTAwMDAwMDA1MjI2ODY4NzE3NzIwNjYzNDM0Xyk7fSYjeGE7PC9zdHlsZT4mI3hhOzxwYXRoIGQ9Ik0yMzQuNiwyNTAuOWMwLTkxLjMsNzQtMTY1LjMsMTY1LjMtMTY1LjNzMTY1LjMsNzQsMTY1LjMsMTY1LjNjMCw5MS4zLTc0LDE2NS4zLTE2NS4zLDE2NS4zJiMxMDsmIzk7QzMwOC42LDQxNi4yLDIzNC42LDM0Mi4yLDIzNC42LDI1MC45QzIzNC42LDI1MC45LDIzNC42LDI1MC45LDIzNC42LDI1MC45IiBjbGFzcz0ic3QwIiBpZD0icGF0aDE0Ii8+JiN4YTs8cGF0aCBkPSJNMjA1LjQsNDc5LjJjMC0yLDEuNi0zLjYsMy42LTMuN2MyLDAsMy43LDEuNiwzLjcsMy43djI1LjNoMzcuMXYtMjUuM2MwLTIsMS41LTMuNywzLjUtMy43JiMxMDsmIzk7YzIsMCwzLjcsMS41LDMuNywzLjVjMCwwLjEsMCwwLjEsMCwwLjJWNTM3YzAsMi0xLjUsMy43LTMuNSwzLjdjLTIsMC0zLjctMS41LTMuNy0zLjVjMC0wLjEsMC0wLjEsMC0wLjJ2LTI1LjdoLTM3LjFWNTM3JiMxMDsmIzk7YzAsMi0xLjYsMy43LTMuNywzLjdjLTIsMC0zLjYtMS43LTMuNi0zLjdWNDc5LjIiIGNsYXNzPSJzdDEiIGlkPSJwYXRoMTYiLz4mI3hhOzxwYXRoIGQ9Ik0zMTMuNyw1MTYuNkwyOTksNDgzLjhsLTE0LjgsMzIuOUgzMTMuN3ogTTI2OC4zLDUzNS40bDI2LjEtNTdjMC43LTIsMi41LTMuMyw0LjYtMy4yaDAuNCYjMTA7JiM5O2MyLDAsMy45LDEuMyw0LjUsMy4ybDI2LjEsNTYuOWMwLjMsMC42LDAuNCwxLjIsMC41LDEuOGMwLDEuOS0xLjYsMy41LTMuNSwzLjVjMCwwLDAsMCwwLDBjLTEuNi0wLjEtMy0xLjEtMy42LTIuN2wtNi43LTE0LjhoLTM1LjImIzEwOyYjOTtsLTYuNywxNWMtMC41LDEuNS0xLjksMi41LTMuNSwyLjVjLTEuOCwwLTMuMy0xLjUtMy4zLTMuM2MwLDAsMCwwLDAsMEMyNjcuOCw1MzYuNywyNjgsNTM2LDI2OC4zLDUzNS40IiBjbGFzcz0ic3QxIiBpZD0icGF0aDE4Ii8+JiN4YTs8cGF0aCBkPSJNMzY4LjMsNTA4LjdjOS42LDAsMTYuNS01LDE2LjUtMTMuMnYtMC4yYzAtNy45LTYuMS0xMi43LTE2LjQtMTIuN2gtMTkuOHYyNi4xSDM2OC4zeiYjMTA7JiM5OyBNMzQxLjQsNDc5LjZjMC0yLDEuNi0zLjYsMy42LTMuN2gyNGM3LjksMCwxNC4yLDIuNCwxOC4zLDYuNGMzLjMsMy40LDUuMSw4LDUsMTIuN3YwLjJjMCwxMC42LTcuMiwxNi43LTE3LjIsMTguNmwxNiwyMC42JiMxMDsmIzk7YzAuNywwLjcsMS4yLDEuNywxLjIsMi43Yy0wLjEsMi0xLjcsMy41LTMuNywzLjZjLTEuNCwwLTIuNi0wLjgtMy40LTEuOWwtMTguMS0yMy41aC0xOC40VjUzN2MwLDItMS42LDMuNy0zLjYsMy43JiMxMDsmIzk7Yy0yLDAtMy43LTEuNi0zLjctMy42YzAsMCwwLTAuMSwwLTAuMUwzNDEuNCw0NzkuNiIgY2xhc3M9InN0MSIgaWQ9InBhdGgyMCIvPiYjeGE7PHBhdGggZD0iTTQzMy42LDUzMy43YzkuNywwLDE1LjgtNC4zLDE1LjgtMTEuNVY1MjJjMC03LTUuOS0xMS0xNy4xLTExSDQxMnYyMi43TDQzMy42LDUzMy43eiBNNDMxLDUwNC42JiMxMDsmIzk7YzguNywwLDE0LjgtMy45LDE0LjgtMTEuNXYtMC4yYzAtNi4zLTUtMTAuNS0xNC4yLTEwLjVINDEydjIyLjFMNDMxLDUwNC42eiBNNDA0LjksNDc5LjZjMC0yLDEuNi0zLjYsMy42LTMuN2gyMy44JiMxMDsmIzk7YzcuMywwLDEzLjEsMi4xLDE2LjgsNS43YzIuNywyLjcsNC4yLDYuNCw0LjEsMTAuM3YwLjJjMCw4LjQtNS4xLDEyLjctMTAuMiwxNC45YzcuNiwyLjMsMTMuOCw2LjcsMTMuOCwxNS41djAuMiYjMTA7JiM5O2MwLDExLTkuMywxNy41LTIzLjMsMTcuNWgtMjVjLTIsMC0zLjYtMS43LTMuNi0zLjdWNDc5LjYiIGNsYXNzPSJzdDEiIGlkPSJwYXRoMjIiLz4mI3hhOzxwYXRoIGQ9Ik01MjMuNCw1MDguM3YtMC4yYzAtMTQuNi0xMC42LTI2LjUtMjUuMy0yNi41Yy0xNC43LDAtMjUuMSwxMS43LTI1LjEsMjYuM3YwLjImIzEwOyYjOTtjMCwxNC42LDEwLjYsMjYuNSwyNS4zLDI2LjVDNTEzLDUzNC42LDUyMy40LDUyMi45LDUyMy40LDUwOC4zTDUyMy40LDUwOC4zeiBNNDY1LjQsNTA4LjN2LTAuMmMwLTE3LjcsMTMuMy0zMy4yLDMyLjktMzMuMiYjMTA7JiM5O2MxOS41LDAsMzIuNywxNS4zLDMyLjcsMzN2MC4yYzAsMTcuNy0xMy4zLDMzLjItMzIuOSwzMy4yUzQ2NS40LDUyNiw0NjUuNCw1MDguMyIgY2xhc3M9InN0MSIgaWQ9InBhdGgyNCIvPiYjeGE7PHBhdGggZD0iTTU3MC40LDUwOC43YzkuNiwwLDE2LjUtNSwxNi41LTEzLjJ2LTAuMmMwLTcuOS02LjEtMTIuNy0xNi40LTEyLjdoLTE5Ljh2MjYuMUg1NzAuNHomIzEwOyYjOTsgTTU0My40LDQ3OS42YzAtMiwxLjYtMy42LDMuNi0zLjdoMjRjNy45LDAsMTQuMiwyLjQsMTguMyw2LjRjMy4zLDMuNCw1LjEsOCw1LDEyLjd2MC4yYzAsMTAuNi03LjIsMTYuNy0xNy4yLDE4LjZsMTYsMjAuNiYjMTA7JiM5O2MwLjcsMC43LDEuMiwxLjcsMS4yLDIuN2MtMC4xLDItMS43LDMuNS0zLjcsMy42Yy0xLjQsMC0yLjYtMC44LTMuNC0xLjlsLTE4LjEtMjMuNWgtMTguNFY1MzdjMCwyLTEuNiwzLjYtMy42LDMuNiYjMTA7JiM5O2MtMiwwLTMuNi0xLjYtMy42LTMuNmMwLDAsMCwwLDAsMEw1NDMuNCw0NzkuNiIgY2xhc3M9InN0MSIgaWQ9InBhdGgyNiIvPiYjeGE7PGc+JiN4YTsJPGRlZnM+JiN4YTsJCTxwb2x5Z29uIHBvaW50cz0iMzkzLjksMzg4IDMxNy43LDM1NC41IDMxMy40LDQwMi40IDM5Ny4zLDQyOS4xIiBpZD0iU1ZHSURfMV8iLz4mI3hhOwk8L2RlZnM+JiN4YTsJPGNsaXBQYXRoIGlkPSJTVkdJRF8wMDAwMDE3NjcyNDY2ODk1MjU3ODE0MjY5MDAwMDAxMDMxODU0MTk0NTIwNjM5ODExMl8iPiYjeGE7CQk8dXNlIHN0eWxlPSJvdmVyZmxvdzp2aXNpYmxlOyIgeGxpbms6aHJlZj0iI1NWR0lEXzFfIi8+JiN4YTsJPC9jbGlwUGF0aD4mI3hhOwk8ZyBzdHlsZT0iY2xpcC1wYXRoOnVybCgjU1ZHSURfMDAwMDAxNzY3MjQ2Njg5NTI1NzgxNDI2OTAwMDAwMTAzMTg1NDE5NDUyMDYzOTgxMTJfKTsiIGlkPSJnMzAiPiYjeGE7CQk8ZyBpZD0iZzMyIj4mI3hhOwkJCSYjeGE7CQkJCTxsaW5lYXJHcmFkaWVudCBncmFkaWVudFRyYW5zZm9ybT0ibWF0cml4KDcuMzkwMiAwIDAgNy4zOTAyIC0xOTQ4LjAzMTQgMjY3Mi4yMTEyKSIgeTI9Ii0zMDguNTgiIHgyPSIzMTcuMzUyNiIgeTE9Ii0zMDguNTgiIHgxPSIzMDYuMDExMiIgZ3JhZGllbnRVbml0cz0idXNlclNwYWNlT25Vc2UiIGlkPSJwYXRoNDZfMDAwMDAwNTU2NzE4OTM2MzUyNTM1Nzc1NzAwMDAwMTMzMDQxOTA5MjY1NDIzODA0MjRfIj4mI3hhOwkJCQk8c3RvcCBzdHlsZT0ic3RvcC1jb2xvcjojNjRCMzM3IiBvZmZzZXQ9IjAiLz4mI3hhOwkJCQk8c3RvcCBzdHlsZT0ic3RvcC1jb2xvcjojNjRCMzM3IiBvZmZzZXQ9IjAuMjgyIi8+JiN4YTsJCQkJPHN0b3Agc3R5bGU9InN0b3AtY29sb3I6IzM3N0QzNCIgb2Zmc2V0PSIxIi8+JiN4YTsJCQk8L2xpbmVhckdyYWRpZW50PiYjeGE7CQkJPHBhdGggZD0iTTM5My45LDM4OGwtNzYuMi0zMy42JiMxMDsmIzk7JiM5OyYjOTsmIzk7bC00LjIsNDhsODMuOCwyNi42TDM5My45LDM4OCIgc3R5bGU9ImZpbGw6dXJsKCNwYXRoNDZfMDAwMDAwNTU2NzE4OTM2MzUyNTM1Nzc1NzAwMDAwMTMzMDQxOTA5MjY1NDIzODA0MjRfKTsiIGlkPSJwYXRoNDYiLz4mI3hhOwkJPC9nPiYjeGE7CTwvZz4mI3hhOzwvZz4mI3hhOzxnPiYjeGE7CTxkZWZzPiYjeGE7CQk8cGF0aCBkPSJNMzMyLjYsMjAyLjVoNDIuOFYyMzloLTEwLjJ2LTE1LjYmIzEwOyYjOTsmIzk7JiM5O2MwLjEtNi4yLTQuOS0xMS4zLTExLjEtMTEuNHMtMTEuMyw0LjktMTEuNCwxMS4xYzAsMC4xLDAsMC4xLDAsMC4yVjIzOWgtMTAuMkwzMzIuNiwyMDIuNXogTTMyNC4xLDI4Mi41bDYzLjUsMjhsLTQuNC01My42aDguMyYjMTA7JiM5OyYjOTsmIzk7VjIzOWgtNi4ydi0zNi41aDYuMlYxOTJsLTM0LjItMzMuNXYtMi40YzAtMS44LTEuNS0zLjItMy4zLTMuMmMtMS43LDAtMy4xLDEuNC0zLjIsMy4ydjIuNEwzMTYuNSwxOTJ2MTAuNWg2LjJWMjM5aC02LjJ2MTcuOWg5LjgmIzEwOyYjOTsmIzk7JiM5O0wzMjQuMSwyODIuNXoiIGlkPSJTVkdJRF8wMDAwMDE4MzIzNjIwNzkxMjUzODY1MTIxMDAwMDAwNTE2MTQ5NTU0OTA0NTYzODMxOV8iLz4mI3hhOwk8L2RlZnM+JiN4YTsJPGNsaXBQYXRoIGlkPSJTVkdJRF8wMDAwMDEzMDYyMjA0NDYxMjQ0MjgxMDE1MDAwMDAwNDU5NjUwMDEwNzExNjU2NzcyMF8iPiYjeGE7CQk8dXNlIHN0eWxlPSJvdmVyZmxvdzp2aXNpYmxlOyIgeGxpbms6aHJlZj0iI1NWR0lEXzAwMDAwMTgzMjM2MjA3OTEyNTM4NjUxMjEwMDAwMDA1MTYxNDk1NTQ5MDQ1NjM4MzE5XyIvPiYjeGE7CTwvY2xpcFBhdGg+JiN4YTsJPGcgc3R5bGU9ImNsaXAtcGF0aDp1cmwoI1NWR0lEXzAwMDAwMTMwNjIyMDQ0NjEyNDQyODEwMTUwMDAwMDA0NTk2NTAwMTA3MTE2NTY3NzIwXyk7IiBpZD0iZzQ4Ij4mI3hhOwkJPGcgaWQ9Imc1MCI+JiN4YTsJCQkmI3hhOwkJCQk8bGluZWFyR3JhZGllbnQgZ3JhZGllbnRUcmFuc2Zvcm09Im1hdHJpeCg2LjYwOTYgMCAwIDYuNjA5NiAtMTczMy4xOTUxIDIzODQuNzkzNSkiIHkyPSItMzI1Ljc1MDciIHgyPSIzMjEuNDUzNCIgeTE9Ii0zMjUuNzUwNyIgeDE9IjMxMC4xMTE4IiBncmFkaWVudFVuaXRzPSJ1c2VyU3BhY2VPblVzZSIgaWQ9InBhdGg2NF8wMDAwMDEzNzgyNTA4Njg2NjYxODI4NjIwMDAwMDAxMTkwNjA4ODkzMjM4MzU1NTk5MF8iPiYjeGE7CQkJCTxzdG9wIHN0eWxlPSJzdG9wLWNvbG9yOiM2NEIzMzciIG9mZnNldD0iMCIvPiYjeGE7CQkJCTxzdG9wIHN0eWxlPSJzdG9wLWNvbG9yOiM2NEIzMzciIG9mZnNldD0iMC4yODIiLz4mI3hhOwkJCQk8c3RvcCBzdHlsZT0ic3RvcC1jb2xvcjojMzc3RDM0IiBvZmZzZXQ9IjEiLz4mI3hhOwkJCTwvbGluZWFyR3JhZGllbnQ+JiN4YTsJCQk8cGF0aCBkPSJNMzMyLjYsMjAyLjVoNDIuOFYyMzkmIzEwOyYjOTsmIzk7JiM5OyYjOTtoLTEwLjJ2LTE1LjZjMC4xLTYuMi00LjktMTEuMy0xMS4xLTExLjRzLTExLjMsNC45LTExLjQsMTEuMWMwLDAuMSwwLDAuMSwwLDAuMlYyMzloLTEwLjJMMzMyLjYsMjAyLjV6IE0zMjQuMSwyODIuNWw2My41LDI4JiMxMDsmIzk7JiM5OyYjOTsmIzk7bC00LjQtNTMuNmg4LjNWMjM5aC02LjJ2LTM2LjVoNi4yVjE5MmwtMzQuMi0zMy41di0yLjRjMC0xLjgtMS41LTMuMi0zLjMtMy4yYy0xLjcsMC0zLjEsMS40LTMuMiwzLjJ2Mi40TDMxNi41LDE5MnYxMC41aDYuMiYjMTA7JiM5OyYjOTsmIzk7JiM5O1YyMzloLTYuMnYxNy45aDkuOEwzMjQuMSwyODIuNSIgc3R5bGU9ImZpbGw6dXJsKCNwYXRoNjRfMDAwMDAxMzc4MjUwODY4NjY2MTgyODYyMDAwMDAwMTE5MDYwODg5MzIzODM1NTU5OTBfKTsiIGlkPSJwYXRoNjQiLz4mI3hhOwkJPC9nPiYjeGE7CTwvZz4mI3hhOzwvZz4mI3hhOzxnPiYjeGE7CTxkZWZzPiYjeGE7CQk8cG9seWdvbiBwb2ludHM9IjMyMC4zLDMyNC41IDM5MS4zLDM1NS44IDM5MC4yLDM0Mi43ICYjMTA7JiM5OyYjOTsmIzk7MzIxLjQsMzEyLjQiIGlkPSJTVkdJRF8wMDAwMDE2NTIyMjI1MDc4NTE3OTM4OTMxMDAwMDAwNzA1NDE2NTE4MTUyOTUxNjczMV8iLz4mI3hhOwk8L2RlZnM+JiN4YTsJPGNsaXBQYXRoIGlkPSJTVkdJRF8wMDAwMDAzNDc4OTUyMjY5Mzk2MjE3ODI5MDAwMDAwMTU3MjUzMjU4NjYyODM4NTQ0Ml8iPiYjeGE7CQk8dXNlIHN0eWxlPSJvdmVyZmxvdzp2aXNpYmxlOyIgeGxpbms6aHJlZj0iI1NWR0lEXzAwMDAwMTY1MjIyMjUwNzg1MTc5Mzg5MzEwMDAwMDA3MDU0MTY1MTgxNTI5NTE2NzMxXyIvPiYjeGE7CTwvY2xpcFBhdGg+JiN4YTsJPGcgc3R5bGU9ImNsaXAtcGF0aDp1cmwoI1NWR0lEXzAwMDAwMDM0Nzg5NTIyNjkzOTYyMTc4MjkwMDAwMDAxNTcyNTMyNTg2NjI4Mzg1NDQyXyk7IiBpZD0iZzY2Ij4mI3hhOwkJPGcgaWQ9Imc2OCI+JiN4YTsJCQkmI3hhOwkJCQk8bGluZWFyR3JhZGllbnQgZ3JhZGllbnRUcmFuc2Zvcm09Im1hdHJpeCg2LjI1MzcgMCAwIDYuMjUzNyAtMTYzNS4wMzA2IDIyNjkuMjEzNikiIHkyPSItMzA5LjQzNDIiIHgyPSIzMjQuMDEzMiIgeTE9Ii0zMDkuNDM0MiIgeDE9IjMxMi42NzE3IiBncmFkaWVudFVuaXRzPSJ1c2VyU3BhY2VPblVzZSIgaWQ9InBhdGg4Ml8wMDAwMDA3NzI5NDQyNDE2NzU2NDI0ODA2MDAwMDAwMTgxMzE2MzM3MTkyNzc2NTQyOV8iPiYjeGE7CQkJCTxzdG9wIHN0eWxlPSJzdG9wLWNvbG9yOiM2NEIzMzciIG9mZnNldD0iMCIvPiYjeGE7CQkJCTxzdG9wIHN0eWxlPSJzdG9wLWNvbG9yOiM2NEIzMzciIG9mZnNldD0iMC4yODIiLz4mI3hhOwkJCQk8c3RvcCBzdHlsZT0ic3RvcC1jb2xvcjojMzc3RDM0IiBvZmZzZXQ9IjEiLz4mI3hhOwkJCTwvbGluZWFyR3JhZGllbnQ+JiN4YTsJCQk8cGF0aCBkPSJNMzIwLjMsMzI0LjVsNzAuOSwzMS4zJiMxMDsmIzk7JiM5OyYjOTsmIzk7bC0xLjEtMTNsLTY4LjgtMzAuM0wzMjAuMywzMjQuNSIgc3R5bGU9ImZpbGw6dXJsKCNwYXRoODJfMDAwMDAwNzcyOTQ0MjQxNjc1NjQyNDgwNjAwMDAwMDE4MTMxNjMzNzE5Mjc3NjU0MjlfKTsiIGlkPSJwYXRoODIiLz4mI3hhOwkJPC9nPiYjeGE7CTwvZz4mI3hhOzwvZz4mI3hhOzxnPiYjeGE7CTxkZWZzPiYjeGE7CQk8cG9seWdvbiBwb2ludHM9IjMxOC41LDM0NS41IDM5My4xLDM3OC40IDM5Mi4xLDM2NS40ICYjMTA7JiM5OyYjOTsmIzk7MzE5LjUsMzMzLjQiIGlkPSJTVkdJRF8wMDAwMDAxMTczMjkyOTAwNDE0Mjk5MjM0MDAwMDAxNjc0NzI2MTg3ODEzMjg4Nzk0OV8iLz4mI3hhOwk8L2RlZnM+JiN4YTsJPGNsaXBQYXRoIGlkPSJTVkdJRF8wMDAwMDE1NzI4NTE5MTk0MzgyMzM2NzkyMDAwMDAwNjI4MzE1NDU5NjU3OTUwOTkzNV8iPiYjeGE7CQk8dXNlIHN0eWxlPSJvdmVyZmxvdzp2aXNpYmxlOyIgeGxpbms6aHJlZj0iI1NWR0lEXzAwMDAwMDExNzMyOTI5MDA0MTQyOTkyMzQwMDAwMDE2NzQ3MjYxODc4MTMyODg3OTQ5XyIvPiYjeGE7CTwvY2xpcFBhdGg+JiN4YTsJPGcgc3R5bGU9ImNsaXAtcGF0aDp1cmwoI1NWR0lEXzAwMDAwMTU3Mjg1MTkxOTQzODIzMzY3OTIwMDAwMDA2MjgzMTU0NTk2NTc5NTA5OTM1Xyk7IiBpZD0iZzg0Ij4mI3hhOwkJPGcgaWQ9Imc4NiI+JiN4YTsJCQkmI3hhOwkJCQk8bGluZWFyR3JhZGllbnQgZ3JhZGllbnRUcmFuc2Zvcm09Im1hdHJpeCg2LjU4MSAwIDAgNi41ODEgLTE3MjUuMTYzMiAyMzg1LjczNTgpIiB5Mj0iLTMwOC40MzM2IiB4Mj0iMzIxLjg3NjMiIHkxPSItMzA4LjQzMzYiIHgxPSIzMTAuNTM1IiBncmFkaWVudFVuaXRzPSJ1c2VyU3BhY2VPblVzZSIgaWQ9InBhdGgxMDBfMDAwMDAwNjY0ODI4MTc3NTM0OTQyMjA5OTAwMDAwMTc5Mzg5MjE2ODcwMzM2NTIzOTRfIj4mI3hhOwkJCQk8c3RvcCBzdHlsZT0ic3RvcC1jb2xvcjojNjRCMzM3IiBvZmZzZXQ9IjAiLz4mI3hhOwkJCQk8c3RvcCBzdHlsZT0ic3RvcC1jb2xvcjojNjRCMzM3IiBvZmZzZXQ9IjAuMjgyIi8+JiN4YTsJCQkJPHN0b3Agc3R5bGU9InN0b3AtY29sb3I6IzM3N0QzNCIgb2Zmc2V0PSIxIi8+JiN4YTsJCQk8L2xpbmVhckdyYWRpZW50PiYjeGE7CQkJPHBhdGggZD0iTTMxOC41LDM0NS41bDc0LjYsMzIuOSYjMTA7JiM5OyYjOTsmIzk7JiM5O2wtMS4xLTEzbC03Mi41LTMyTDMxOC41LDM0NS41IiBzdHlsZT0iZmlsbDp1cmwoI3BhdGgxMDBfMDAwMDAwNjY0ODI4MTc3NTM0OTQyMjA5OTAwMDAwMTc5Mzg5MjE2ODcwMzM2NTIzOTRfKTsiIGlkPSJwYXRoMTAwIi8+JiN4YTsJCTwvZz4mI3hhOwk8L2c+JiN4YTs8L2c+JiN4YTs8Zz4mI3hhOwk8ZGVmcz4mI3hhOwkJPHBvbHlnb24gcG9pbnRzPSIzMjMuMywyOTEuNCAzMjIuMiwzMDMuNSAzODkuNCwzMzMuMSAmIzEwOyYjOTsmIzk7JiM5OzM4OC4zLDMyMC4xIiBpZD0iU1ZHSURfMDAwMDAwMzYyMzczNzE1MjY4NTU5MTgxNDAwMDAwMDUzNDUyNjQ3MTIwODc4OTA4NTNfIi8+JiN4YTsJPC9kZWZzPiYjeGE7CTxjbGlwUGF0aCBpZD0iU1ZHSURfMDAwMDAxNDQzMDA1NTA4MTM0MDM0OTgxOTAwMDAwMTA4NDQ3OTMwMzMwMzY4NTY3MTRfIj4mI3hhOwkJPHVzZSBzdHlsZT0ib3ZlcmZsb3c6dmlzaWJsZTsiIHhsaW5rOmhyZWY9IiNTVkdJRF8wMDAwMDAzNjIzNzM3MTUyNjg1NTkxODE0MDAwMDAwNTM0NTI2NDcxMjA4Nzg5MDg1M18iLz4mI3hhOwk8L2NsaXBQYXRoPiYjeGE7CTxnIHN0eWxlPSJjbGlwLXBhdGg6dXJsKCNTVkdJRF8wMDAwMDE0NDMwMDU1MDgxMzQwMzQ5ODE5MDAwMDAxMDg0NDc5MzAzMzAzNjg1NjcxNF8pOyIgaWQ9ImcxMDIiPiYjeGE7CQk8ZyBpZD0iZzEwNCI+JiN4YTsJCQkmI3hhOwkJCQk8bGluZWFyR3JhZGllbnQgZ3JhZGllbnRUcmFuc2Zvcm09Im1hdHJpeCg1LjkyNjQgMCAwIDUuOTI2NCAtMTU0NC44OTg0IDIxNTIuNjkwNCkiIHkyPSItMzEwLjU0NTQiIHgyPSIzMjYuMzg1OCIgeTE9Ii0zMTAuNTQ1NCIgeDE9IjMxNS4wNDQzIiBncmFkaWVudFVuaXRzPSJ1c2VyU3BhY2VPblVzZSIgaWQ9InBhdGgxMThfMDAwMDAwMDAxOTc4MzgyNzQwMDQyNzA3OTAwMDAwMTU5NjkyNzEyMjc3ODg3Mzk3NjdfIj4mI3hhOwkJCQk8c3RvcCBzdHlsZT0ic3RvcC1jb2xvcjojNjRCMzM3IiBvZmZzZXQ9IjAiLz4mI3hhOwkJCQk8c3RvcCBzdHlsZT0ic3RvcC1jb2xvcjojNjRCMzM3IiBvZmZzZXQ9IjAuMjgyIi8+JiN4YTsJCQkJPHN0b3Agc3R5bGU9InN0b3AtY29sb3I6IzM3N0QzNCIgb2Zmc2V0PSIxIi8+JiN4YTsJCQk8L2xpbmVhckdyYWRpZW50PiYjeGE7CQkJPHBhdGggZD0iTTMyMy4zLDI5MS40bC0xLjEsMTIuMSYjMTA7JiM5OyYjOTsmIzk7JiM5O2w2Ny4yLDI5LjZsLTEuMS0xM0wzMjMuMywyOTEuNCIgc3R5bGU9ImZpbGw6dXJsKCNwYXRoMTE4XzAwMDAwMDAwMTk3ODM4Mjc0MDA0MjcwNzkwMDAwMDE1OTY5MjcxMjI3Nzg4NzM5NzY3Xyk7IiBpZD0icGF0aDExOCIvPiYjeGE7CQk8L2c+JiN4YTsJPC9nPiYjeGE7PC9nPiYjeGE7PHBhdGggZD0iTTUzNy45LDE3NS4zbDM0LjMtMTFjLTAuMS0wLjItMC4yLTAuNS0wLjQtMC43Yy01LjgtMTEuMy0xMi43LTIyLTIwLjYtMzJMNTE5LDE0OC4yJiMxMDsmIzk7YzcuMSw4LjIsMTMuMywxNy4xLDE4LjYsMjYuNUM1MzcuNywxNzQuOSw1MzcuOCwxNzUuMSw1MzcuOSwxNzUuMyIgY2xhc3M9InN0MSIgaWQ9InBhdGgxMjAiLz4mI3hhOzxwYXRoIGQ9Ik01NTYuOCwyNDAuMmwzNS44LDIuNmMtMC40LTkuNS0xLjUtMTktMy4zLTI4LjRsLTM2LjEsMS4yQzU1NS4xLDIyMy43LDU1Ni4zLDIzMS45LDU1Ni44LDI0MC4yIiBjbGFzcz0ic3QxIiBpZD0icGF0aDEyMiIvPiYjeGE7PHBhdGggZD0iTTQwMi40LDQwOC4zYy04Ni44LDAtMTU3LjUtNzAuNi0xNTcuNS0xNTcuNWMwLTg2LjgsNzAuNi0xNTcuNSwxNTcuNS0xNTcuNSYjMTA7JiM5O2MzMCwwLDU5LjQsOC42LDg0LjcsMjQuOGwyNS0yNmMtMzIuMi0yMi40LTcwLjUtMzQuNC0xMDkuNy0zNC4zYy0xMDYuNCwwLTE5Myw4Ni42LTE5MywxOTNjMCwxMDYuNCw4Ni42LDE5MywxOTMsMTkzJiMxMDsmIzk7YzkwLjksMCwxNjcuMy02My4yLDE4Ny42LTE0OGwtMzMuOC0xMS43QzU0MC45LDM1NS4xLDQ3Ny44LDQwOC4zLDQwMi40LDQwOC4zIiBjbGFzcz0ic3QxIiBpZD0icGF0aDEyNCIvPiYjeGE7PGc+JiN4YTsJPGRlZnM+JiN4YTsJCTxwYXRoIGQ9Ik01NDcuOSwxMjcuMmMtOS44LTExLjctMjAuOC0yMi4xLTMzLTMxLjImIzEwOyYjOTsmIzk7JiM5O2MtMS44LTEuMy0zLjUtMi42LTUuMy0zLjhsLTI1LDI2bC05MS40LDk1LjFMNTE5LDE0OC4ybDMyLjMtMTYuN0M1NTAuMSwxMzAuMSw1NDkuMSwxMjguNiw1NDcuOSwxMjcuMnoiIGlkPSJTVkdJRF8wMDAwMDE4MzI0MTgyNDI3MDU4MTQzMTc5MDAwMDAwMzUxMjg1OTEyNTU0MTc0OTM4OF8iLz4mI3hhOwk8L2RlZnM+JiN4YTsJPGNsaXBQYXRoIGlkPSJTVkdJRF8wMDAwMDE1MjIzNjg2MzA4NDUxODE1MTg2MDAwMDAxMTA0MzUzODUyOTcyNDY5NTIwOF8iPiYjeGE7CQk8dXNlIHN0eWxlPSJvdmVyZmxvdzp2aXNpYmxlOyIgeGxpbms6aHJlZj0iI1NWR0lEXzAwMDAwMTgzMjQxODI0MjcwNTgxNDMxNzkwMDAwMDAzNTEyODU5MTI1NTQxNzQ5Mzg4XyIvPiYjeGE7CTwvY2xpcFBhdGg+JiN4YTsJPGcgc3R5bGU9ImNsaXAtcGF0aDp1cmwoI1NWR0lEXzAwMDAwMTUyMjM2ODYzMDg0NTE4MTUxODYwMDAwMDExMDQzNTM4NTI5NzI0Njk1MjA4Xyk7IiBpZD0iZzEyNiI+JiN4YTsJCTxnIGlkPSJnMTI4Ij4mI3hhOwkJCSYjeGE7CQkJCTxsaW5lYXJHcmFkaWVudCBncmFkaWVudFRyYW5zZm9ybT0ibWF0cml4KDEyLjg5OSAtOS41NTI4IDkuNTUyOCAxMi44OTkgLTExMC40MTEyIDcyMTEuMjE3OCkiIHkyPSItMzMxLjY3NjYiIHgyPSIyOTYuMDk4OSIgeTE9Ii0zMzEuNjc2NiIgeDE9IjI4NC43NTgxIiBncmFkaWVudFVuaXRzPSJ1c2VyU3BhY2VPblVzZSIgaWQ9InBhdGgxNDJfMDAwMDAwNTcxMzQzOTA5NTE3ODUwMTUzNzAwMDAwMDU5MjY0NjIzMTA4NDY0OTk0OTlfIj4mI3hhOwkJCQk8c3RvcCBzdHlsZT0ic3RvcC1jb2xvcjojNDc5NUQxIiBvZmZzZXQ9IjAiLz4mI3hhOwkJCQk8c3RvcCBzdHlsZT0ic3RvcC1jb2xvcjojNDc5NUQxIiBvZmZzZXQ9IjAuMiIvPiYjeGE7CQkJCTxzdG9wIHN0eWxlPSJzdG9wLWNvbG9yOiNGRkZGRkYiIG9mZnNldD0iMSIvPiYjeGE7CQkJPC9saW5lYXJHcmFkaWVudD4mI3hhOwkJCTxwYXRoIGQ9Ik01NDcuOSwxMjcuMiYjMTA7JiM5OyYjOTsmIzk7JiM5O2MtOS44LTExLjctMjAuOC0yMi4xLTMzLTMxLjJjLTEuOC0xLjMtMy41LTIuNi01LjMtMy44bC0yNSwyNmwtOTEuNCw5NS4xTDUxOSwxNDguMmwzMi4zLTE2LjcmIzEwOyYjOTsmIzk7JiM5OyYjOTtDNTUwLjEsMTMwLjEsNTQ5LjEsMTI4LjYsNTQ3LjksMTI3LjIiIHN0eWxlPSJmaWxsOnVybCgjcGF0aDE0Ml8wMDAwMDA1NzEzNDM5MDk1MTc4NTAxNTM3MDAwMDAwNTkyNjQ2MjMxMDg0NjQ5OTQ5OV8pOyIgaWQ9InBhdGgxNDIiLz4mI3hhOwkJPC9nPiYjeGE7CTwvZz4mI3hhOzwvZz4mI3hhOzxnPiYjeGE7CTxkZWZzPiYjeGE7CQk8cGF0aCBkPSJNNTkyLjgsMjQ5LjRjMC0yLjItMC4yLTQuNC0wLjItNi42bC0zNS44LTIuNiYjMTA7JiM5OyYjOTsmIzk7bC0xNjMuNy0xMS44bDE2MC42LDU1LjdsMzMuOCwxMS43YzAuMS0wLjQsMC4yLTAuOCwwLjMtMS4yYzMuNC0xNC40LDUuMS0yOS4xLDUuMS00My44QzU5Mi45LDI1MC40LDU5Mi44LDI0OS45LDU5Mi44LDI0OS40JiMxMDsmIzk7JiM5OyYjOTtMNTkyLjgsMjQ5LjR6IiBpZD0iU1ZHSURfMDAwMDAxMzIwNjM2MjgyNDc4MTkwODQwNjAwMDAwMTQ2MjkxMTA2MjAxNjE1OTY1OTZfIi8+JiN4YTsJPC9kZWZzPiYjeGE7CTxjbGlwUGF0aCBpZD0iU1ZHSURfMDAwMDAxNzg4OTkxMDg4MzkxNzM1NjY1NDAwMDAwMDk1MTYyOTcxMzU3MjgxMjc2NzBfIj4mI3hhOwkJPHVzZSBzdHlsZT0ib3ZlcmZsb3c6dmlzaWJsZTsiIHhsaW5rOmhyZWY9IiNTVkdJRF8wMDAwMDEzMjA2MzYyODI0NzgxOTA4NDA2MDAwMDAxNDYyOTExMDYyMDE2MTU5NjU5Nl8iLz4mI3hhOwk8L2NsaXBQYXRoPiYjeGE7CTxnIHN0eWxlPSJjbGlwLXBhdGg6dXJsKCNTVkdJRF8wMDAwMDE3ODg5OTEwODgzOTE3MzU2NjU0MDAwMDAwOTUxNjI5NzEzNTcyODEyNzY3MF8pOyIgaWQ9ImcxNDQiPiYjeGE7CQk8ZyBpZD0iZzE0NiI+JiN4YTsJCQkmI3hhOwkJCQk8bGluZWFyR3JhZGllbnQgZ3JhZGllbnRUcmFuc2Zvcm09Im1hdHJpeCgxOC41MTIgMy43NzgxIC0zLjc3ODEgMTguNTEyIC02MzIxLjM1NjQgNTUxNC4wNjY5KSIgeTI9Ii0zNDUuMTM1MSIgeDI9IjMwMy41ODU0IiB5MT0iLTM0NS4xMzUxIiB4MT0iMjkyLjIzOTkiIGdyYWRpZW50VW5pdHM9InVzZXJTcGFjZU9uVXNlIiBpZD0icGF0aDE2MF8wMDAwMDAxODkyMDQxOTc4NjI5NDE4NjQ4MDAwMDAwMDM2OTU1ODA4NDE0MDczNTY0OF8iPiYjeGE7CQkJCTxzdG9wIHN0eWxlPSJzdG9wLWNvbG9yOiM0MzkzRDAiIG9mZnNldD0iMCIvPiYjeGE7CQkJCTxzdG9wIHN0eWxlPSJzdG9wLWNvbG9yOiM0MzkzRDAiIG9mZnNldD0iMC4yIi8+JiN4YTsJCQkJPHN0b3Agc3R5bGU9InN0b3AtY29sb3I6I0ZGRkZGRiIgb2Zmc2V0PSIxIi8+JiN4YTsJCQk8L2xpbmVhckdyYWRpZW50PiYjeGE7CQkJPHBhdGggZD0iTTU5Mi44LDI0OS40JiMxMDsmIzk7JiM5OyYjOTsmIzk7YzAtMi4yLTAuMi00LjQtMC4yLTYuNmwtMzUuOC0yLjZsLTE2My43LTExLjhsMTYwLjYsNTUuN2wzMy44LDExLjdjMC4xLTAuNCwwLjItMC44LDAuMy0xLjJjMy40LTE0LjQsNS4xLTI5LjEsNS4xLTQzLjgmIzEwOyYjOTsmIzk7JiM5OyYjOTtDNTkyLjksMjUwLjQsNTkyLjgsMjQ5LjksNTkyLjgsMjQ5LjQiIHN0eWxlPSJmaWxsOnVybCgjcGF0aDE2MF8wMDAwMDAxODkyMDQxOTc4NjI5NDE4NjQ4MDAwMDAwMDM2OTU1ODA4NDE0MDczNTY0OF8pOyIgaWQ9InBhdGgxNjAiLz4mI3hhOwkJPC9nPiYjeGE7CTwvZz4mI3hhOzwvZz4mI3hhOzxnPiYjeGE7CTxkZWZzPiYjeGE7CQk8cGF0aCBkPSJNNTg3LjYsMjA2LjFjLTMuNS0xNC41LTguNi0yOC41LTE1LjQtNDEuOWwtMzQuMywxMSYjMTA7JiM5OyYjOTsmIzk7TDM5NS42LDIyMWwxNTcuNi01LjRsMzYuMS0xLjJDNTg4LjgsMjExLjYsNTg4LjIsMjA4LjgsNTg3LjYsMjA2LjFMNTg3LjYsMjA2LjF6IiBpZD0iU1ZHSURfMDAwMDAxMTQwNjk2NDMyMjQxNjcyNTQ1OTAwMDAwMTU3NDM0NDU3ODM2NjgzMTA5MzZfIi8+JiN4YTsJPC9kZWZzPiYjeGE7CTxjbGlwUGF0aCBpZD0iU1ZHSURfMDAwMDAxNzg4ODQwOTAzMTc3MTY2NTY3NTAwMDAwMTc0MDEyMDYwNDgyOTA1MjE0NzVfIj4mI3hhOwkJPHVzZSBzdHlsZT0ib3ZlcmZsb3c6dmlzaWJsZTsiIHhsaW5rOmhyZWY9IiNTVkdJRF8wMDAwMDExNDA2OTY0MzIyNDE2NzI1NDU5MDAwMDAxNTc0MzQ0NTc4MzY2ODMxMDkzNl8iLz4mI3hhOwk8L2NsaXBQYXRoPiYjeGE7CTxnIHN0eWxlPSJjbGlwLXBhdGg6dXJsKCNTVkdJRF8wMDAwMDE3ODg4NDA5MDMxNzcxNjY1Njc1MDAwMDAxNzQwMTIwNjA0ODI5MDUyMTQ3NV8pOyIgaWQ9ImcxNjIiPiYjeGE7CQk8ZyBpZD0iZzE2NCI+JiN4YTsJCQkmI3hhOwkJCQk8bGluZWFyR3JhZGllbnQgZ3JhZGllbnRUcmFuc2Zvcm09Im1hdHJpeCgxNy4wNTQ4IC0zLjA3NjMgMy4wNzYzIDE3LjA1NDggLTM1MjAuMjY5OCA2ODg2Ljg2NzcpIiB5Mj0iLTMzOC4zMjY4IiB4Mj0iMzAyLjAxNjgiIHkxPSItMzM4LjMyNjgiIHgxPSIyOTAuNjc1OCIgZ3JhZGllbnRVbml0cz0idXNlclNwYWNlT25Vc2UiIGlkPSJwYXRoMTc4XzAwMDAwMDUyNzg0MTc4MjA5MTI3ODAzODMwMDAwMDEyMTIxNTg2OTM4MzA2MTg0NjE1XyI+JiN4YTsJCQkJPHN0b3Agc3R5bGU9InN0b3AtY29sb3I6IzQzOTNEMCIgb2Zmc2V0PSIwIi8+JiN4YTsJCQkJPHN0b3Agc3R5bGU9InN0b3AtY29sb3I6IzQ2OTVEMSIgb2Zmc2V0PSIwLjMzMyIvPiYjeGE7CQkJCTxzdG9wIHN0eWxlPSJzdG9wLWNvbG9yOiNGRkZGRkYiIG9mZnNldD0iMSIvPiYjeGE7CQkJPC9saW5lYXJHcmFkaWVudD4mI3hhOwkJCTxwYXRoIGQ9Ik01ODcuNiwyMDYuMSYjMTA7JiM5OyYjOTsmIzk7JiM5O2MtMy41LTE0LjUtOC42LTI4LjUtMTUuNC00MS45bC0zNC4zLDExTDM5NS42LDIyMWwxNTcuNi01LjRsMzYuMS0xLjJDNTg4LjgsMjExLjYsNTg4LjIsMjA4LjgsNTg3LjYsMjA2LjEiIHN0eWxlPSJmaWxsOnVybCgjcGF0aDE3OF8wMDAwMDA1Mjc4NDE3ODIwOTEyNzgwMzgzMDAwMDAxMjEyMTU4NjkzODMwNjE4NDYxNV8pOyIgaWQ9InBhdGgxNzgiLz4mI3hhOwkJPC9nPiYjeGE7CTwvZz4mI3hhOzwvZz4mI3hhOzwvc3ZnPg==;" vertex="1" parent="1">
          <mxGeometry x="850" y="37.5" width="52.23" height="65" as="geometry" />
        </mxCell>
      </root>
    </mxGraphModel>
  </diagram>
</mxfile>
